<svg width="485" height="400" viewBox="0 0 485 400" fill="none" xmlns="http://www.w3.org/2000/svg">
<path d="M124.214 20.3525C123.478 20.6488 122.762 20.8688 122.068 21.0127C121.383 21.1566 120.668 21.2285 119.923 21.2285C118.729 21.2285 117.672 21.055 116.749 20.708C115.835 20.3525 115.061 19.8278 114.426 19.1338C113.799 18.4398 113.321 17.5807 112.991 16.5566C112.67 15.5241 112.509 14.3265 112.509 12.9639C112.509 11.5674 112.687 10.3275 113.042 9.24414C113.397 8.15234 113.905 7.23405 114.565 6.48926C115.226 5.736 116.025 5.16471 116.965 4.77539C117.913 4.3776 118.975 4.17871 120.151 4.17871C120.532 4.17871 120.888 4.18717 121.218 4.2041C121.556 4.22103 121.886 4.25488 122.208 4.30566C122.53 4.34798 122.855 4.40723 123.186 4.4834C123.516 4.55957 123.858 4.6569 124.214 4.77539V7.87305C123.494 7.53451 122.809 7.29329 122.157 7.14941C121.506 7.00553 120.913 6.93359 120.38 6.93359C119.593 6.93359 118.92 7.07747 118.361 7.36523C117.803 7.64453 117.341 8.04232 116.978 8.55859C116.622 9.06641 116.36 9.67578 116.19 10.3867C116.021 11.0892 115.937 11.8636 115.937 12.71C115.937 13.6071 116.021 14.4111 116.19 15.1221C116.368 15.8245 116.639 16.4212 117.003 16.9121C117.367 17.403 117.832 17.7796 118.399 18.042C118.966 18.2959 119.639 18.4229 120.418 18.4229C120.697 18.4229 120.998 18.3975 121.319 18.3467C121.649 18.2874 121.979 18.2155 122.31 18.1309C122.648 18.0378 122.978 17.932 123.3 17.8135C123.63 17.6865 123.935 17.5596 124.214 17.4326V20.3525ZM135.614 21L135.538 19.3115C135.267 19.5993 134.984 19.8659 134.688 20.1113C134.391 20.3483 134.065 20.5557 133.71 20.7334C133.354 20.9111 132.965 21.0465 132.542 21.1396C132.127 21.2412 131.67 21.292 131.171 21.292C130.511 21.292 129.931 21.1947 129.432 21C128.932 20.8053 128.513 20.5345 128.175 20.1875C127.836 19.8405 127.578 19.4215 127.4 18.9307C127.231 18.4398 127.146 17.8981 127.146 17.3057C127.146 16.6963 127.273 16.1335 127.527 15.6172C127.79 15.1009 128.183 14.6566 128.708 14.2842C129.241 13.9118 129.901 13.6198 130.688 13.4082C131.484 13.1966 132.415 13.0908 133.481 13.0908H135.17V12.3164C135.17 11.9863 135.123 11.6901 135.03 11.4277C134.937 11.1569 134.785 10.9284 134.573 10.7422C134.37 10.556 134.104 10.4121 133.773 10.3105C133.443 10.209 133.037 10.1582 132.555 10.1582C131.793 10.1582 131.04 10.2471 130.295 10.4248C129.559 10.5941 128.843 10.8353 128.149 11.1484V8.67285C128.767 8.42741 129.478 8.22428 130.282 8.06348C131.095 7.90267 131.937 7.82227 132.809 7.82227C133.765 7.82227 134.586 7.91536 135.271 8.10156C135.957 8.2793 136.52 8.55013 136.96 8.91406C137.409 9.27799 137.739 9.73503 137.95 10.2852C138.162 10.8268 138.268 11.4616 138.268 12.1895V21H135.614ZM135.17 15.2998H133.278C132.754 15.2998 132.309 15.3506 131.945 15.4521C131.581 15.5537 131.285 15.6934 131.057 15.8711C130.828 16.0488 130.659 16.2562 130.549 16.4932C130.447 16.7217 130.396 16.9671 130.396 17.2295C130.396 17.7542 130.566 18.1562 130.904 18.4355C131.243 18.7064 131.704 18.8418 132.288 18.8418C132.72 18.8418 133.168 18.6852 133.634 18.3721C134.099 18.0589 134.611 17.6104 135.17 17.0264V15.2998ZM152.461 20.873C151.902 21 151.34 21.1016 150.772 21.1777C150.205 21.2539 149.668 21.292 149.16 21.292C148.314 21.292 147.582 21.2031 146.964 21.0254C146.354 20.8477 145.847 20.5768 145.44 20.2129C145.043 19.849 144.746 19.3877 144.552 18.8291C144.366 18.262 144.272 17.5892 144.272 16.8105V10.5137H140.807V8.10156H144.272V4.80078L147.446 3.97559V8.10156H152.461V10.5137H147.446V16.582C147.446 17.3184 147.616 17.877 147.954 18.2578C148.293 18.6302 148.86 18.8164 149.655 18.8164C150.163 18.8164 150.658 18.7741 151.141 18.6895C151.623 18.6048 152.063 18.5075 152.461 18.3975V20.873ZM164.204 21L164.128 19.3115C163.857 19.5993 163.574 19.8659 163.277 20.1113C162.981 20.3483 162.655 20.5557 162.3 20.7334C161.944 20.9111 161.555 21.0465 161.132 21.1396C160.717 21.2412 160.26 21.292 159.761 21.292C159.101 21.292 158.521 21.1947 158.021 21C157.522 20.8053 157.103 20.5345 156.765 20.1875C156.426 19.8405 156.168 19.4215 155.99 18.9307C155.821 18.4398 155.736 17.8981 155.736 17.3057C155.736 16.6963 155.863 16.1335 156.117 15.6172C156.38 15.1009 156.773 14.6566 157.298 14.2842C157.831 13.9118 158.491 13.6198 159.278 13.4082C160.074 13.1966 161.005 13.0908 162.071 13.0908H163.76V12.3164C163.76 11.9863 163.713 11.6901 163.62 11.4277C163.527 11.1569 163.375 10.9284 163.163 10.7422C162.96 10.556 162.693 10.4121 162.363 10.3105C162.033 10.209 161.627 10.1582 161.145 10.1582C160.383 10.1582 159.63 10.2471 158.885 10.4248C158.148 10.5941 157.433 10.8353 156.739 11.1484V8.67285C157.357 8.42741 158.068 8.22428 158.872 8.06348C159.685 7.90267 160.527 7.82227 161.398 7.82227C162.355 7.82227 163.176 7.91536 163.861 8.10156C164.547 8.2793 165.11 8.55013 165.55 8.91406C165.998 9.27799 166.328 9.73503 166.54 10.2852C166.752 10.8268 166.857 11.4616 166.857 12.1895V21H164.204ZM163.76 15.2998H161.868C161.343 15.2998 160.899 15.3506 160.535 15.4521C160.171 15.5537 159.875 15.6934 159.646 15.8711C159.418 16.0488 159.249 16.2562 159.139 16.4932C159.037 16.7217 158.986 16.9671 158.986 17.2295C158.986 17.7542 159.156 18.1562 159.494 18.4355C159.833 18.7064 160.294 18.8418 160.878 18.8418C161.31 18.8418 161.758 18.6852 162.224 18.3721C162.689 18.0589 163.201 17.6104 163.76 17.0264V15.2998ZM174.576 5.47363H170.933V3.06152H177.75V18.5879H181.47V21H170.488V18.5879H174.576V5.47363ZM196.323 14.4492C196.323 15.4648 196.179 16.3958 195.892 17.2422C195.604 18.0801 195.189 18.7995 194.647 19.4004C194.106 20.0013 193.441 20.4668 192.654 20.7969C191.867 21.127 190.97 21.292 189.963 21.292C189.007 21.292 188.152 21.1523 187.398 20.873C186.645 20.5938 186.006 20.179 185.481 19.6289C184.957 19.0703 184.555 18.3763 184.275 17.5469C183.996 16.709 183.856 15.7357 183.856 14.627C183.856 13.6029 184 12.6719 184.288 11.834C184.584 10.9961 185.003 10.2809 185.545 9.68848C186.095 9.09603 186.764 8.639 187.551 8.31738C188.338 7.9873 189.227 7.82227 190.217 7.82227C191.182 7.82227 192.041 7.96615 192.794 8.25391C193.547 8.5332 194.186 8.95215 194.711 9.51074C195.236 10.0693 195.633 10.7633 195.904 11.5928C196.184 12.4137 196.323 13.3659 196.323 14.4492ZM193.099 14.5254C193.099 13.1882 192.845 12.1852 192.337 11.5166C191.838 10.8395 191.097 10.501 190.115 10.501C189.574 10.501 189.112 10.6068 188.731 10.8184C188.351 11.0299 188.037 11.3219 187.792 11.6943C187.547 12.0583 187.365 12.4857 187.246 12.9766C187.136 13.4674 187.081 13.9922 187.081 14.5508C187.081 15.8965 187.352 16.9121 187.894 17.5977C188.435 18.2747 189.176 18.6133 190.115 18.6133C190.632 18.6133 191.08 18.5117 191.461 18.3086C191.842 18.097 192.151 17.8092 192.388 17.4453C192.625 17.0729 192.802 16.637 192.921 16.1377C193.039 15.6383 193.099 15.1009 193.099 14.5254ZM208.676 10.3613C208.913 10.6576 209.078 10.9707 209.171 11.3008C209.272 11.6224 209.323 11.9525 209.323 12.291C209.323 13.0104 209.196 13.6452 208.942 14.1953C208.697 14.7454 208.346 15.2067 207.889 15.5791C207.44 15.9515 206.898 16.235 206.264 16.4297C205.637 16.6159 204.943 16.709 204.182 16.709C203.733 16.709 203.318 16.6667 202.938 16.582C202.557 16.4889 202.269 16.3831 202.074 16.2646C201.93 16.4085 201.808 16.5693 201.706 16.7471C201.604 16.9163 201.554 17.111 201.554 17.3311C201.554 17.4665 201.588 17.6019 201.655 17.7373C201.723 17.8727 201.82 17.9954 201.947 18.1055C202.083 18.207 202.239 18.2917 202.417 18.3594C202.603 18.4271 202.811 18.4652 203.039 18.4736L206.099 18.5879C206.784 18.6048 207.402 18.6937 207.952 18.8545C208.511 19.0068 208.989 19.2269 209.387 19.5146C209.785 19.8024 210.089 20.1536 210.301 20.5684C210.521 20.9746 210.631 21.4401 210.631 21.9648C210.631 22.5658 210.495 23.1328 210.225 23.666C209.954 24.1992 209.543 24.6605 208.993 25.0498C208.451 25.4476 207.774 25.7607 206.962 25.9893C206.149 26.2178 205.206 26.332 204.131 26.332C203.09 26.332 202.193 26.2474 201.439 26.0781C200.695 25.9173 200.081 25.6888 199.599 25.3926C199.125 25.0964 198.773 24.7409 198.545 24.3262C198.316 23.9199 198.202 23.4714 198.202 22.9805C198.202 22.6842 198.24 22.4092 198.316 22.1553C198.393 21.9014 198.507 21.6559 198.659 21.4189C198.812 21.1904 199.002 20.9661 199.23 20.7461C199.459 20.526 199.73 20.306 200.043 20.0859C199.628 19.849 199.311 19.5443 199.091 19.1719C198.879 18.7995 198.773 18.4017 198.773 17.9785C198.773 17.6908 198.812 17.4242 198.888 17.1787C198.964 16.9248 199.061 16.6836 199.18 16.4551C199.307 16.2266 199.451 16.0065 199.611 15.7949C199.772 15.5833 199.941 15.376 200.119 15.1729C199.806 14.8597 199.544 14.4831 199.332 14.043C199.129 13.5944 199.027 13.0358 199.027 12.3672C199.027 11.6478 199.154 11.0088 199.408 10.4502C199.671 9.88314 200.03 9.40918 200.487 9.02832C200.944 8.639 201.486 8.34701 202.112 8.15234C202.747 7.94922 203.437 7.84766 204.182 7.84766C204.562 7.84766 204.926 7.86882 205.273 7.91113C205.629 7.94499 205.951 8.00846 206.238 8.10156H210.707V10.3613H208.676ZM201.376 22.7139C201.376 23.2132 201.626 23.5814 202.125 23.8184C202.633 24.0553 203.344 24.1738 204.258 24.1738C204.842 24.1738 205.333 24.1188 205.73 24.0088C206.137 23.8988 206.467 23.7549 206.721 23.5771C206.975 23.3994 207.157 23.1921 207.267 22.9551C207.377 22.7181 207.432 22.4727 207.432 22.2188C207.432 21.9902 207.377 21.7956 207.267 21.6348C207.165 21.4824 207.017 21.3512 206.822 21.2412C206.636 21.1396 206.412 21.0592 206.149 21C205.896 20.9492 205.612 20.9154 205.299 20.8984L202.569 20.8477C202.324 21.0169 202.121 21.1777 201.96 21.3301C201.808 21.4824 201.685 21.6305 201.592 21.7744C201.507 21.9268 201.448 22.0791 201.414 22.2314C201.389 22.3838 201.376 22.5446 201.376 22.7139ZM201.896 12.3672C201.896 13.0527 202.095 13.5986 202.493 14.0049C202.899 14.4027 203.462 14.6016 204.182 14.6016C204.562 14.6016 204.893 14.5381 205.172 14.4111C205.46 14.2842 205.697 14.1149 205.883 13.9033C206.069 13.6917 206.209 13.4463 206.302 13.167C206.395 12.8877 206.441 12.5957 206.441 12.291C206.441 11.5716 206.238 11.013 205.832 10.6152C205.434 10.209 204.876 10.0059 204.156 10.0059C203.775 10.0059 203.441 10.0693 203.153 10.1963C202.874 10.3232 202.641 10.4967 202.455 10.7168C202.269 10.9284 202.129 11.1781 202.036 11.4658C201.943 11.7536 201.896 12.054 201.896 12.3672Z" fill="black"/>
<path d="M417.988 170.148C417.988 171.336 417.84 172.414 417.543 173.383C417.254 174.352 416.797 175.18 416.172 175.867C415.555 176.547 414.762 177.074 413.793 177.449C412.824 177.816 411.664 178 410.312 178H406.422V162.684H410.957C412.129 162.684 413.152 162.832 414.027 163.129C414.91 163.418 415.645 163.867 416.23 164.477C416.816 165.086 417.254 165.859 417.543 166.797C417.84 167.734 417.988 168.852 417.988 170.148ZM414.895 170.336C414.895 169.508 414.828 168.77 414.695 168.121C414.562 167.473 414.336 166.926 414.016 166.48C413.703 166.027 413.281 165.684 412.75 165.449C412.219 165.215 411.559 165.098 410.77 165.098H409.305V175.586H410.57C411.984 175.586 413.059 175.164 413.793 174.32C414.527 173.477 414.895 172.148 414.895 170.336ZM430.961 171.953C430.961 172.891 430.828 173.75 430.562 174.531C430.297 175.305 429.914 175.969 429.414 176.523C428.914 177.078 428.301 177.508 427.574 177.812C426.848 178.117 426.02 178.27 425.09 178.27C424.207 178.27 423.418 178.141 422.723 177.883C422.027 177.625 421.438 177.242 420.953 176.734C420.469 176.219 420.098 175.578 419.84 174.812C419.582 174.039 419.453 173.141 419.453 172.117C419.453 171.172 419.586 170.312 419.852 169.539C420.125 168.766 420.512 168.105 421.012 167.559C421.52 167.012 422.137 166.59 422.863 166.293C423.59 165.988 424.41 165.836 425.324 165.836C426.215 165.836 427.008 165.969 427.703 166.234C428.398 166.492 428.988 166.879 429.473 167.395C429.957 167.91 430.324 168.551 430.574 169.316C430.832 170.074 430.961 170.953 430.961 171.953ZM427.984 172.023C427.984 170.789 427.75 169.863 427.281 169.246C426.82 168.621 426.137 168.309 425.23 168.309C424.73 168.309 424.305 168.406 423.953 168.602C423.602 168.797 423.312 169.066 423.086 169.41C422.859 169.746 422.691 170.141 422.582 170.594C422.48 171.047 422.43 171.531 422.43 172.047C422.43 173.289 422.68 174.227 423.18 174.859C423.68 175.484 424.363 175.797 425.23 175.797C425.707 175.797 426.121 175.703 426.473 175.516C426.824 175.32 427.109 175.055 427.328 174.719C427.547 174.375 427.711 173.973 427.82 173.512C427.93 173.051 427.984 172.555 427.984 172.023ZM441.836 178V169.891C441.836 169.594 441.828 169.336 441.812 169.117C441.797 168.891 441.766 168.703 441.719 168.555C441.672 168.406 441.602 168.297 441.508 168.227C441.422 168.148 441.301 168.109 441.145 168.109C440.902 168.109 440.664 168.273 440.43 168.602C440.195 168.93 439.93 169.488 439.633 170.277V178H437.184V169.891C437.184 169.594 437.176 169.336 437.16 169.117C437.145 168.891 437.113 168.703 437.066 168.555C437.02 168.406 436.949 168.297 436.855 168.227C436.762 168.148 436.637 168.109 436.48 168.109C436.277 168.109 436.051 168.273 435.801 168.602C435.551 168.93 435.273 169.488 434.969 170.277V178H432.496V166.094H434.617L434.664 167.828C434.836 167.477 435.008 167.176 435.18 166.926C435.352 166.676 435.535 166.473 435.73 166.316C435.926 166.152 436.133 166.035 436.352 165.965C436.578 165.895 436.832 165.859 437.113 165.859C437.777 165.859 438.281 166.035 438.625 166.387C438.977 166.73 439.176 167.211 439.223 167.828C439.41 167.477 439.594 167.176 439.773 166.926C439.961 166.676 440.152 166.473 440.348 166.316C440.551 166.152 440.766 166.035 440.992 165.965C441.227 165.895 441.484 165.859 441.766 165.859C442.633 165.859 443.273 166.164 443.688 166.773C444.102 167.375 444.309 168.27 444.309 169.457V178H441.836ZM454.094 178L454.023 176.441C453.773 176.707 453.512 176.953 453.238 177.18C452.965 177.398 452.664 177.59 452.336 177.754C452.008 177.918 451.648 178.043 451.258 178.129C450.875 178.223 450.453 178.27 449.992 178.27C449.383 178.27 448.848 178.18 448.387 178C447.926 177.82 447.539 177.57 447.227 177.25C446.914 176.93 446.676 176.543 446.512 176.09C446.355 175.637 446.277 175.137 446.277 174.59C446.277 174.027 446.395 173.508 446.629 173.031C446.871 172.555 447.234 172.145 447.719 171.801C448.211 171.457 448.82 171.188 449.547 170.992C450.281 170.797 451.141 170.699 452.125 170.699H453.684V169.984C453.684 169.68 453.641 169.406 453.555 169.164C453.469 168.914 453.328 168.703 453.133 168.531C452.945 168.359 452.699 168.227 452.395 168.133C452.09 168.039 451.715 167.992 451.27 167.992C450.566 167.992 449.871 168.074 449.184 168.238C448.504 168.395 447.844 168.617 447.203 168.906V166.621C447.773 166.395 448.43 166.207 449.172 166.059C449.922 165.91 450.699 165.836 451.504 165.836C452.387 165.836 453.145 165.922 453.777 166.094C454.41 166.258 454.93 166.508 455.336 166.844C455.75 167.18 456.055 167.602 456.25 168.109C456.445 168.609 456.543 169.195 456.543 169.867V178H454.094ZM453.684 172.738H451.938C451.453 172.738 451.043 172.785 450.707 172.879C450.371 172.973 450.098 173.102 449.887 173.266C449.676 173.43 449.52 173.621 449.418 173.84C449.324 174.051 449.277 174.277 449.277 174.52C449.277 175.004 449.434 175.375 449.746 175.633C450.059 175.883 450.484 176.008 451.023 176.008C451.422 176.008 451.836 175.863 452.266 175.574C452.695 175.285 453.168 174.871 453.684 174.332V172.738ZM466.832 162.836C466.832 163.094 466.785 163.336 466.691 163.562C466.598 163.789 466.465 163.988 466.293 164.16C466.129 164.324 465.934 164.457 465.707 164.559C465.48 164.652 465.234 164.699 464.969 164.699C464.703 164.699 464.453 164.652 464.219 164.559C463.992 164.457 463.793 164.324 463.621 164.16C463.457 163.988 463.328 163.789 463.234 163.562C463.141 163.336 463.094 163.094 463.094 162.836C463.094 162.578 463.141 162.336 463.234 162.109C463.328 161.883 463.457 161.684 463.621 161.512C463.793 161.34 463.992 161.207 464.219 161.113C464.453 161.012 464.703 160.961 464.969 160.961C465.234 160.961 465.48 161.012 465.707 161.113C465.934 161.207 466.129 161.34 466.293 161.512C466.465 161.684 466.598 161.883 466.691 162.109C466.785 162.336 466.832 162.578 466.832 162.836ZM463.668 168.32H460.305V166.094H466.598V175.773H470.031V178H459.895V175.773H463.668V168.32ZM480.121 178V170.242C480.121 168.938 479.637 168.285 478.668 168.285C478.184 168.285 477.719 168.48 477.273 168.871C476.836 169.262 476.371 169.793 475.879 170.465V178H473.02V166.094H475.492L475.562 167.852C475.805 167.547 476.055 167.27 476.312 167.02C476.578 166.77 476.863 166.559 477.168 166.387C477.473 166.207 477.801 166.07 478.152 165.977C478.504 165.883 478.898 165.836 479.336 165.836C479.945 165.836 480.477 165.938 480.93 166.141C481.383 166.336 481.762 166.617 482.066 166.984C482.371 167.344 482.598 167.781 482.746 168.297C482.902 168.805 482.98 169.375 482.98 170.008V178H480.121Z" fill="black"/>
<circle cx="163" cy="237" r="160.5" fill="#7DE77B" stroke="black" stroke-width="5"/>
<circle cx="162" cy="239" r="113.5" fill="#FFFD54" fill-opacity="0.65" stroke="black" stroke-width="5"/>
<circle cx="161.5" cy="241.5" r="55" fill="#FFFD54" stroke="black" stroke-width="5"/>
<path d="M121.609 41.1562C122.141 41.3438 122.648 41.4844 123.133 41.5781C123.617 41.6719 124.068 41.7188 124.484 41.7188C125.094 41.7188 125.536 41.6224 125.812 41.4297C126.094 41.237 126.234 40.9922 126.234 40.6953C126.234 40.5911 126.214 40.4974 126.172 40.4141C126.13 40.3255 126.055 40.2422 125.945 40.1641C125.836 40.0859 125.685 40.0078 125.492 39.9297C125.305 39.8516 125.06 39.7656 124.758 39.6719C124.029 39.4479 123.482 39.1458 123.117 38.7656C122.753 38.3854 122.57 37.9036 122.57 37.3203C122.57 36.987 122.654 36.6745 122.82 36.3828C122.987 36.0859 123.229 35.8281 123.547 35.6094C123.87 35.3854 124.268 35.2109 124.742 35.0859C125.216 34.9557 125.76 34.8906 126.375 34.8906C126.896 34.8906 127.341 34.9141 127.711 34.9609C128.081 35.0026 128.404 35.0521 128.68 35.1094V36.6641C128.174 36.513 127.729 36.4141 127.344 36.3672C126.958 36.3203 126.609 36.2969 126.297 36.2969C125.974 36.2969 125.703 36.3255 125.484 36.3828C125.266 36.4349 125.091 36.5104 124.961 36.6094C124.831 36.7083 124.737 36.8125 124.68 36.9219C124.628 37.026 124.602 37.1276 124.602 37.2266C124.602 37.3464 124.625 37.4531 124.672 37.5469C124.719 37.6406 124.802 37.7292 124.922 37.8125C125.042 37.8958 125.203 37.9792 125.406 38.0625C125.609 38.1458 125.865 38.2344 126.172 38.3281C126.88 38.5521 127.411 38.8385 127.766 39.1875C128.12 39.5365 128.297 39.9688 128.297 40.4844C128.297 40.9479 128.198 41.349 128 41.6875C127.802 42.0208 127.531 42.2995 127.188 42.5234C126.844 42.7474 126.44 42.9115 125.977 43.0156C125.513 43.125 125.016 43.1797 124.484 43.1797C123.885 43.1797 123.349 43.151 122.875 43.0938C122.406 43.0417 121.984 42.9688 121.609 42.875V41.1562ZM133.57 35.0625L132.531 40.2344C132.453 40.6667 132.466 41 132.57 41.2344C132.674 41.4635 132.859 41.5781 133.125 41.5781C133.365 41.5781 133.62 41.4818 133.891 41.2891C134.161 41.0964 134.419 40.849 134.664 40.5469C134.909 40.2448 135.122 39.9089 135.305 39.5391C135.492 39.1693 135.62 38.8073 135.688 38.4531L136.359 35.0625H138.258L137.414 39.3047C137.383 39.4714 137.352 39.651 137.32 39.8438C137.289 40.0312 137.255 40.2656 137.219 40.5469C137.188 40.8229 137.151 41.1589 137.109 41.5547C137.068 41.9505 137.021 42.4323 136.969 43H135.414L135.477 41.5625C135.357 41.7448 135.206 41.9323 135.023 42.125C134.841 42.3125 134.628 42.4844 134.383 42.6406C134.143 42.7969 133.875 42.9245 133.578 43.0234C133.286 43.1276 132.969 43.1797 132.625 43.1797C132.203 43.1797 131.844 43.1094 131.547 42.9688C131.255 42.8281 131.023 42.6302 130.852 42.375C130.685 42.1146 130.581 41.8021 130.539 41.4375C130.503 41.0677 130.531 40.6562 130.625 40.2031L131.672 35.0625H133.57ZM146.867 37.6406C146.867 38.4427 146.76 39.1797 146.547 39.8516C146.333 40.5234 146.023 41.1042 145.617 41.5938C145.211 42.0781 144.714 42.4583 144.125 42.7344C143.536 43.0052 142.867 43.1406 142.117 43.1406C141.779 43.1406 141.466 43.1276 141.18 43.1016C140.893 43.0807 140.62 43.0495 140.359 43.0078C140.104 42.9661 139.859 42.9167 139.625 42.8594C139.396 42.8021 139.169 42.737 138.945 42.6641L141.086 31.9609H142.992L142.453 34.6797L141.891 36.3281C142.031 36.1042 142.198 35.9036 142.391 35.7266C142.583 35.5495 142.794 35.3984 143.023 35.2734C143.253 35.1484 143.492 35.0547 143.742 34.9922C143.997 34.9245 144.255 34.8906 144.516 34.8906C145.286 34.8906 145.87 35.1302 146.266 35.6094C146.667 36.0885 146.867 36.7656 146.867 37.6406ZM144.883 37.7656C144.883 37.349 144.81 37.0312 144.664 36.8125C144.523 36.5938 144.307 36.4844 144.016 36.4844C143.854 36.4844 143.685 36.5286 143.508 36.6172C143.336 36.7057 143.161 36.8281 142.984 36.9844C142.812 37.1354 142.643 37.3151 142.477 37.5234C142.315 37.7266 142.164 37.9453 142.023 38.1797C141.888 38.4089 141.771 38.6458 141.672 38.8906C141.573 39.1354 141.503 39.375 141.461 39.6094L141.086 41.4766C141.253 41.5339 141.424 41.5781 141.602 41.6094C141.779 41.6406 141.966 41.6562 142.164 41.6562C142.534 41.6562 142.857 41.5911 143.133 41.4609C143.414 41.3255 143.654 41.151 143.852 40.9375C144.055 40.7188 144.221 40.4714 144.352 40.1953C144.487 39.9193 144.594 39.638 144.672 39.3516C144.75 39.0651 144.805 38.7839 144.836 38.5078C144.867 38.2318 144.883 37.9844 144.883 37.7656ZM152.625 34.9219C152.906 34.9219 153.154 34.9349 153.367 34.9609C153.581 34.987 153.776 35.0156 153.953 35.0469L154.578 31.9609H156.477L155.008 39.3047C154.977 39.4714 154.945 39.651 154.914 39.8438C154.883 40.0312 154.849 40.2656 154.812 40.5469C154.781 40.8229 154.745 41.1589 154.703 41.5547C154.661 41.9505 154.615 42.4323 154.562 43H153.008L153.07 41.5625C152.951 41.7448 152.799 41.9323 152.617 42.125C152.435 42.3125 152.221 42.4844 151.977 42.6406C151.737 42.7969 151.469 42.9245 151.172 43.0234C150.88 43.1276 150.562 43.1797 150.219 43.1797C149.448 43.1797 148.862 42.9401 148.461 42.4609C148.065 41.9818 147.867 41.3021 147.867 40.4219C147.867 39.625 147.974 38.8906 148.188 38.2188C148.401 37.5417 148.711 36.9609 149.117 36.4766C149.523 35.987 150.021 35.6068 150.609 35.3359C151.203 35.0599 151.875 34.9219 152.625 34.9219ZM149.852 40.2969C149.852 40.7135 149.922 41.0312 150.062 41.25C150.208 41.4688 150.427 41.5781 150.719 41.5781C150.958 41.5781 151.214 41.4818 151.484 41.2891C151.755 41.0964 152.013 40.849 152.258 40.5469C152.503 40.2448 152.716 39.9089 152.898 39.5391C153.086 39.1693 153.214 38.8073 153.281 38.4531L153.648 36.5859C153.534 36.5443 153.383 36.5052 153.195 36.4688C153.008 36.4271 152.802 36.4062 152.578 36.4062C152.208 36.4062 151.883 36.474 151.602 36.6094C151.326 36.7396 151.086 36.9141 150.883 37.1328C150.68 37.3464 150.51 37.5911 150.375 37.8672C150.245 38.1432 150.141 38.4245 150.062 38.7109C149.984 38.9974 149.93 39.2812 149.898 39.5625C149.867 39.8385 149.852 40.0833 149.852 40.2969ZM159.836 43.1797C159.341 43.1797 158.896 43.1198 158.5 43C158.104 42.875 157.766 42.6901 157.484 42.4453C157.208 42.1953 156.995 41.8828 156.844 41.5078C156.693 41.1276 156.617 40.6823 156.617 40.1719C156.617 39.724 156.664 39.2839 156.758 38.8516C156.857 38.4141 156.997 38 157.18 37.6094C157.367 37.2135 157.594 36.8516 157.859 36.5234C158.13 36.1901 158.44 35.9036 158.789 35.6641C159.143 35.4193 159.531 35.2292 159.953 35.0938C160.38 34.9583 160.841 34.8906 161.336 34.8906C161.826 34.8906 162.268 34.9531 162.664 35.0781C163.065 35.1979 163.404 35.3828 163.68 35.6328C163.961 35.8776 164.177 36.1901 164.328 36.5703C164.479 36.9453 164.555 37.388 164.555 37.8984C164.555 38.3464 164.505 38.7891 164.406 39.2266C164.312 39.6589 164.174 40.0703 163.992 40.4609C163.81 40.8516 163.583 41.2135 163.312 41.5469C163.042 41.8802 162.732 42.1693 162.383 42.4141C162.034 42.6536 161.646 42.8411 161.219 42.9766C160.792 43.112 160.331 43.1797 159.836 43.1797ZM162.555 38.0859C162.555 37.5703 162.427 37.1849 162.172 36.9297C161.922 36.6693 161.56 36.5391 161.086 36.5391C160.805 36.5391 160.549 36.5938 160.32 36.7031C160.091 36.8073 159.883 36.9479 159.695 37.125C159.513 37.3021 159.354 37.5078 159.219 37.7422C159.083 37.9766 158.971 38.2214 158.883 38.4766C158.794 38.7318 158.727 38.9896 158.68 39.25C158.638 39.5052 158.617 39.7474 158.617 39.9766C158.617 40.4922 158.745 40.8802 159 41.1406C159.255 41.401 159.62 41.5312 160.094 41.5312C160.375 41.5312 160.63 41.4792 160.859 41.375C161.089 41.2656 161.294 41.1224 161.477 40.9453C161.659 40.763 161.818 40.5573 161.953 40.3281C162.089 40.0938 162.201 39.849 162.289 39.5938C162.378 39.3385 162.443 39.0807 162.484 38.8203C162.531 38.5599 162.555 38.3151 162.555 38.0859ZM170.875 43L171.961 37.5938C172.034 37.1979 172.068 36.901 172.062 36.7031C172.062 36.5052 171.992 36.4062 171.852 36.4062C171.737 36.4062 171.596 36.4844 171.43 36.6406C171.268 36.7969 171.107 36.9974 170.945 37.2422C170.784 37.487 170.633 37.763 170.492 38.0703C170.357 38.3724 170.26 38.6719 170.203 38.9688L169.398 43H167.766L168.859 37.5938C168.932 37.1979 168.966 36.901 168.961 36.7031C168.961 36.5052 168.888 36.4062 168.742 36.4062C168.643 36.4062 168.513 36.4844 168.352 36.6406C168.19 36.7969 168.026 36.9974 167.859 37.2422C167.693 37.487 167.539 37.763 167.398 38.0703C167.258 38.3724 167.156 38.6719 167.094 38.9688L166.297 43H164.648L165.5 38.7578C165.531 38.5964 165.56 38.4193 165.586 38.2266C165.617 38.0339 165.648 37.7995 165.68 37.5234C165.716 37.2422 165.755 36.9036 165.797 36.5078C165.839 36.112 165.888 35.6302 165.945 35.0625H167.352L167.305 36.3438L167.461 36.1172C167.779 35.6953 168.078 35.388 168.359 35.1953C168.641 35.0026 168.945 34.9062 169.273 34.9062C169.659 34.9062 169.945 34.9974 170.133 35.1797C170.326 35.362 170.422 35.6172 170.422 35.9453C170.422 36.0026 170.417 36.0651 170.406 36.1328C170.401 36.2005 170.391 36.2708 170.375 36.3438C170.542 36.1094 170.701 35.9036 170.852 35.7266C171.008 35.5443 171.164 35.3932 171.32 35.2734C171.477 35.1484 171.635 35.0573 171.797 35C171.964 34.9375 172.141 34.9062 172.328 34.9062C172.901 34.9062 173.305 35.1172 173.539 35.5391C173.773 35.9557 173.802 36.5964 173.625 37.4609L172.523 43H170.875ZM176.609 43.1797C175.839 43.1797 175.253 42.9401 174.852 42.4609C174.456 41.9818 174.258 41.3021 174.258 40.4219C174.258 39.625 174.365 38.8906 174.578 38.2188C174.792 37.5417 175.102 36.9609 175.508 36.4766C175.914 35.987 176.411 35.6068 177 35.3359C177.594 35.0599 178.266 34.9219 179.016 34.9219C179.417 34.9219 179.773 34.9505 180.086 35.0078C180.404 35.0599 180.68 35.1224 180.914 35.1953L182.273 34.9062L181.398 39.3047C181.367 39.4714 181.336 39.651 181.305 39.8438C181.273 40.0312 181.24 40.2656 181.203 40.5469C181.172 40.8229 181.135 41.1589 181.094 41.5547C181.052 41.9505 181.005 42.4323 180.953 43H179.398L179.461 41.5625C179.341 41.7448 179.19 41.9323 179.008 42.125C178.826 42.3125 178.612 42.4844 178.367 42.6406C178.128 42.7969 177.859 42.9245 177.562 43.0234C177.271 43.1276 176.953 43.1797 176.609 43.1797ZM180.039 36.5859C179.872 36.5286 179.701 36.4844 179.523 36.4531C179.352 36.4219 179.167 36.4062 178.969 36.4062C178.599 36.4062 178.273 36.474 177.992 36.6094C177.716 36.7396 177.477 36.9141 177.273 37.1328C177.07 37.3464 176.901 37.5911 176.766 37.8672C176.635 38.1432 176.531 38.4245 176.453 38.7109C176.375 38.9974 176.32 39.2812 176.289 39.5625C176.258 39.8385 176.242 40.0833 176.242 40.2969C176.242 40.7135 176.312 41.0312 176.453 41.25C176.599 41.4688 176.818 41.5781 177.109 41.5781C177.349 41.5781 177.604 41.4818 177.875 41.2891C178.146 41.0964 178.404 40.849 178.648 40.5469C178.893 40.2448 179.107 39.9089 179.289 39.5391C179.477 39.1693 179.604 38.8073 179.672 38.4531L180.039 36.5859ZM187.695 40.3438C187.602 40.8385 187.604 41.1875 187.703 41.3906C187.802 41.5885 187.997 41.6875 188.289 41.6875C188.534 41.6875 188.805 41.6354 189.102 41.5312C189.398 41.4219 189.737 41.276 190.117 41.0938V42.5547C189.779 42.737 189.414 42.8854 189.023 43C188.638 43.1198 188.245 43.1797 187.844 43.1797C186.953 43.1797 186.333 42.9505 185.984 42.4922C185.635 42.0286 185.562 41.2917 185.766 40.2812L186.273 37.7188C186.372 37.224 186.37 36.8776 186.266 36.6797C186.161 36.4766 185.966 36.375 185.68 36.375C185.44 36.375 185.169 36.4297 184.867 36.5391C184.57 36.6432 184.234 36.7865 183.859 36.9688V35.5078C184.198 35.3203 184.56 35.1693 184.945 35.0547C185.331 34.9401 185.727 34.8828 186.133 34.8828C187.018 34.8828 187.635 35.1146 187.984 35.5781C188.333 36.0417 188.409 36.776 188.211 37.7812L187.695 40.3438ZM189.266 32.8203C189.266 33.0078 189.229 33.1823 189.156 33.3438C189.083 33.5052 188.984 33.6458 188.859 33.7656C188.74 33.8802 188.599 33.9714 188.438 34.0391C188.281 34.1016 188.115 34.1328 187.938 34.1328C187.755 34.1328 187.589 34.1016 187.438 34.0391C187.286 33.9714 187.156 33.8854 187.047 33.7812C186.938 33.6719 186.852 33.5469 186.789 33.4062C186.732 33.2604 186.703 33.1094 186.703 32.9531C186.703 32.7656 186.74 32.5938 186.812 32.4375C186.885 32.276 186.984 32.138 187.109 32.0234C187.234 31.9036 187.378 31.8099 187.539 31.7422C187.701 31.6745 187.87 31.6406 188.047 31.6406C188.234 31.6406 188.401 31.6745 188.547 31.7422C188.698 31.8047 188.826 31.8906 188.93 32C189.039 32.1094 189.122 32.2344 189.18 32.375C189.237 32.5156 189.266 32.6641 189.266 32.8203ZM196.398 43L197.438 37.8281C197.521 37.3958 197.508 37.0651 197.398 36.8359C197.294 36.6016 197.109 36.4844 196.844 36.4844C196.688 36.4844 196.521 36.5286 196.344 36.6172C196.167 36.7057 195.99 36.8281 195.812 36.9844C195.641 37.1354 195.471 37.3151 195.305 37.5234C195.143 37.7266 194.995 37.9453 194.859 38.1797C194.724 38.4089 194.607 38.6458 194.508 38.8906C194.409 39.1354 194.336 39.375 194.289 39.6094L193.617 43H191.711L192.562 38.7578C192.594 38.5964 192.622 38.4193 192.648 38.2266C192.68 38.0339 192.711 37.7995 192.742 37.5234C192.779 37.2422 192.818 36.9036 192.859 36.5078C192.901 36.112 192.951 35.6302 193.008 35.0625H194.562L194.492 36.5078C194.612 36.3255 194.763 36.1406 194.945 35.9531C195.133 35.7604 195.346 35.5859 195.586 35.4297C195.831 35.2734 196.099 35.1458 196.391 35.0469C196.688 34.9427 197.005 34.8906 197.344 34.8906C197.766 34.8906 198.122 34.9609 198.414 35.1016C198.711 35.237 198.943 35.4349 199.109 35.6953C199.276 35.9505 199.38 36.263 199.422 36.6328C199.464 36.9974 199.438 37.4089 199.344 37.8672L198.305 43H196.398Z" fill="black"/>
<path d="M410.664 205H408.117L405 194.789H407.18L408.906 200.938L409.461 202.953L410.039 200.82L411.75 194.789H413.797L410.664 205ZM419.555 194.891C419.555 195.062 419.523 195.224 419.461 195.375C419.398 195.526 419.31 195.659 419.195 195.773C419.086 195.883 418.956 195.971 418.805 196.039C418.654 196.102 418.49 196.133 418.312 196.133C418.135 196.133 417.969 196.102 417.812 196.039C417.661 195.971 417.529 195.883 417.414 195.773C417.305 195.659 417.219 195.526 417.156 195.375C417.094 195.224 417.062 195.062 417.062 194.891C417.062 194.719 417.094 194.557 417.156 194.406C417.219 194.255 417.305 194.122 417.414 194.008C417.529 193.893 417.661 193.805 417.812 193.742C417.969 193.674 418.135 193.641 418.312 193.641C418.49 193.641 418.654 193.674 418.805 193.742C418.956 193.805 419.086 193.893 419.195 194.008C419.31 194.122 419.398 194.255 419.461 194.406C419.523 194.557 419.555 194.719 419.555 194.891ZM417.445 198.547H415.203V197.062H419.398V203.516H421.688V205H414.93V203.516H417.445V198.547ZM428.414 205V199.828C428.414 198.958 428.091 198.523 427.445 198.523C427.122 198.523 426.812 198.654 426.516 198.914C426.224 199.174 425.914 199.529 425.586 199.977V205H423.68V197.062H425.328L425.375 198.234C425.536 198.031 425.703 197.846 425.875 197.68C426.052 197.513 426.242 197.372 426.445 197.258C426.648 197.138 426.867 197.047 427.102 196.984C427.336 196.922 427.599 196.891 427.891 196.891C428.297 196.891 428.651 196.958 428.953 197.094C429.255 197.224 429.508 197.411 429.711 197.656C429.914 197.896 430.065 198.188 430.164 198.531C430.268 198.87 430.32 199.25 430.32 199.672V205H428.414ZM437.25 204.133C436.974 204.82 436.685 205.422 436.383 205.938C436.086 206.458 435.758 206.891 435.398 207.234C435.039 207.583 434.638 207.844 434.195 208.016C433.758 208.193 433.266 208.281 432.719 208.281C432.589 208.281 432.445 208.273 432.289 208.258C432.138 208.247 431.982 208.229 431.82 208.203V206.586C431.883 206.596 431.953 206.607 432.031 206.617C432.115 206.633 432.201 206.643 432.289 206.648C432.378 206.659 432.466 206.667 432.555 206.672C432.648 206.677 432.734 206.68 432.812 206.68C433.031 206.68 433.234 206.638 433.422 206.555C433.609 206.471 433.781 206.354 433.938 206.203C434.099 206.057 434.245 205.88 434.375 205.672C434.505 205.469 434.62 205.245 434.719 205L431.57 197.062H433.695L435.344 201.562L435.836 203.016L436.32 201.625L437.984 197.062H440.031L437.25 204.133ZM443.836 195.445H441.594V193.961H445.789V203.516H448.078V205H441.32V203.516H443.836V195.445Z" fill="black"/>
<path d="M411.641 231L411.078 228.984H407.516L406.938 231H405.031L408.055 220.789H410.742L413.766 231H411.641ZM409.32 222.664L407.977 227.414H410.648L409.32 222.664ZM419.992 226.148C420.003 225.852 419.987 225.599 419.945 225.391C419.909 225.182 419.846 225.01 419.758 224.875C419.674 224.74 419.57 224.641 419.445 224.578C419.32 224.516 419.177 224.484 419.016 224.484C418.734 224.484 418.443 224.602 418.141 224.836C417.844 225.065 417.516 225.445 417.156 225.977V231H415.203V223.062H416.93L417 224.219C417.13 224.016 417.276 223.833 417.438 223.672C417.604 223.51 417.786 223.372 417.984 223.258C418.188 223.138 418.411 223.047 418.656 222.984C418.901 222.922 419.169 222.891 419.461 222.891C419.862 222.891 420.216 222.961 420.523 223.102C420.836 223.237 421.096 223.44 421.305 223.711C421.518 223.982 421.674 224.323 421.773 224.734C421.878 225.141 421.922 225.612 421.906 226.148H419.992ZM430.227 230.922C429.883 231 429.536 231.062 429.188 231.109C428.839 231.156 428.508 231.18 428.195 231.18C427.674 231.18 427.224 231.125 426.844 231.016C426.469 230.906 426.156 230.74 425.906 230.516C425.661 230.292 425.479 230.008 425.359 229.664C425.245 229.315 425.188 228.901 425.188 228.422V224.547H423.055V223.062H425.188V221.031L427.141 220.523V223.062H430.227V224.547H427.141V228.281C427.141 228.734 427.245 229.078 427.453 229.312C427.661 229.542 428.01 229.656 428.5 229.656C428.812 229.656 429.117 229.63 429.414 229.578C429.711 229.526 429.982 229.466 430.227 229.398V230.922ZM437.148 220.891C437.148 221.062 437.117 221.224 437.055 221.375C436.992 221.526 436.904 221.659 436.789 221.773C436.68 221.883 436.549 221.971 436.398 222.039C436.247 222.102 436.083 222.133 435.906 222.133C435.729 222.133 435.562 222.102 435.406 222.039C435.255 221.971 435.122 221.883 435.008 221.773C434.898 221.659 434.812 221.526 434.75 221.375C434.688 221.224 434.656 221.062 434.656 220.891C434.656 220.719 434.688 220.557 434.75 220.406C434.812 220.255 434.898 220.122 435.008 220.008C435.122 219.893 435.255 219.805 435.406 219.742C435.562 219.674 435.729 219.641 435.906 219.641C436.083 219.641 436.247 219.674 436.398 219.742C436.549 219.805 436.68 219.893 436.789 220.008C436.904 220.122 436.992 220.255 437.055 220.406C437.117 220.557 437.148 220.719 437.148 220.891ZM435.039 224.547H432.797V223.062H436.992V229.516H439.281V231H432.523V229.516H435.039V224.547ZM447.82 228.664C447.82 229.117 447.719 229.505 447.516 229.828C447.318 230.146 447.052 230.406 446.719 230.609C446.391 230.807 446.016 230.951 445.594 231.039C445.177 231.133 444.75 231.18 444.312 231.18C443.729 231.18 443.203 231.151 442.734 231.094C442.266 231.042 441.823 230.964 441.406 230.859V229.141C441.896 229.344 442.383 229.492 442.867 229.586C443.357 229.674 443.818 229.719 444.25 229.719C444.75 229.719 445.122 229.641 445.367 229.484C445.617 229.323 445.742 229.115 445.742 228.859C445.742 228.74 445.716 228.63 445.664 228.531C445.612 228.432 445.513 228.339 445.367 228.25C445.227 228.156 445.026 228.062 444.766 227.969C444.505 227.87 444.164 227.76 443.742 227.641C443.352 227.531 443.008 227.409 442.711 227.273C442.419 227.133 442.177 226.969 441.984 226.781C441.792 226.594 441.646 226.378 441.547 226.133C441.453 225.883 441.406 225.591 441.406 225.258C441.406 224.935 441.479 224.63 441.625 224.344C441.771 224.057 441.987 223.807 442.273 223.594C442.565 223.375 442.927 223.203 443.359 223.078C443.792 222.953 444.297 222.891 444.875 222.891C445.375 222.891 445.818 222.917 446.203 222.969C446.589 223.021 446.93 223.078 447.227 223.141V224.695C446.773 224.549 446.346 224.448 445.945 224.391C445.549 224.328 445.156 224.297 444.766 224.297C444.375 224.297 444.06 224.367 443.82 224.508C443.586 224.648 443.469 224.844 443.469 225.094C443.469 225.214 443.492 225.32 443.539 225.414C443.586 225.508 443.677 225.599 443.812 225.688C443.953 225.776 444.146 225.87 444.391 225.969C444.641 226.062 444.969 226.167 445.375 226.281C445.833 226.411 446.219 226.552 446.531 226.703C446.844 226.849 447.094 227.016 447.281 227.203C447.474 227.391 447.612 227.604 447.695 227.844C447.779 228.083 447.82 228.357 447.82 228.664ZM456.617 230.922C456.273 231 455.927 231.062 455.578 231.109C455.229 231.156 454.898 231.18 454.586 231.18C454.065 231.18 453.615 231.125 453.234 231.016C452.859 230.906 452.547 230.74 452.297 230.516C452.052 230.292 451.87 230.008 451.75 229.664C451.635 229.315 451.578 228.901 451.578 228.422V224.547H449.445V223.062H451.578V221.031L453.531 220.523V223.062H456.617V224.547H453.531V228.281C453.531 228.734 453.635 229.078 453.844 229.312C454.052 229.542 454.401 229.656 454.891 229.656C455.203 229.656 455.508 229.63 455.805 229.578C456.102 229.526 456.372 229.466 456.617 229.398V230.922Z" fill="black"/>
<path d="M409.445 252.68V251.094H413.078V256.539C412.609 256.758 412.12 256.919 411.609 257.023C411.099 257.128 410.544 257.18 409.945 257.18C409.237 257.18 408.599 257.07 408.031 256.852C407.469 256.633 406.99 256.307 406.594 255.875C406.198 255.443 405.893 254.906 405.68 254.266C405.471 253.625 405.367 252.883 405.367 252.039C405.367 251.19 405.477 250.43 405.695 249.758C405.919 249.086 406.242 248.518 406.664 248.055C407.091 247.586 407.612 247.229 408.227 246.984C408.846 246.74 409.552 246.617 410.344 246.617C410.812 246.617 411.268 246.659 411.711 246.742C412.159 246.82 412.604 246.927 413.047 247.062V248.961C412.661 248.779 412.234 248.63 411.766 248.516C411.302 248.396 410.833 248.336 410.359 248.336C409.88 248.336 409.456 248.419 409.086 248.586C408.721 248.753 408.414 248.99 408.164 249.297C407.919 249.604 407.732 249.982 407.602 250.43C407.477 250.878 407.414 251.383 407.414 251.945C407.414 252.487 407.464 252.977 407.562 253.414C407.661 253.846 407.82 254.216 408.039 254.523C408.263 254.826 408.549 255.057 408.898 255.219C409.247 255.38 409.672 255.461 410.172 255.461C410.292 255.461 410.396 255.458 410.484 255.453C410.573 255.443 410.656 255.43 410.734 255.414C410.812 255.398 410.885 255.38 410.953 255.359C411.026 255.339 411.102 255.315 411.18 255.289V252.68H409.445ZM421.797 252.422C421.797 252.552 421.792 252.721 421.781 252.93C421.776 253.138 421.766 253.333 421.75 253.516H416.531C416.531 253.865 416.583 254.172 416.688 254.438C416.797 254.703 416.948 254.927 417.141 255.109C417.339 255.286 417.573 255.422 417.844 255.516C418.12 255.609 418.424 255.656 418.758 255.656C419.143 255.656 419.555 255.628 419.992 255.57C420.435 255.508 420.893 255.409 421.367 255.273V256.789C421.164 256.846 420.943 256.898 420.703 256.945C420.464 256.992 420.219 257.034 419.969 257.07C419.719 257.107 419.466 257.133 419.211 257.148C418.956 257.169 418.708 257.18 418.469 257.18C417.865 257.18 417.323 257.094 416.844 256.922C416.365 256.75 415.958 256.497 415.625 256.164C415.292 255.826 415.036 255.409 414.859 254.914C414.682 254.419 414.594 253.846 414.594 253.195C414.594 252.549 414.682 251.964 414.859 251.438C415.036 250.906 415.286 250.453 415.609 250.078C415.932 249.698 416.323 249.406 416.781 249.203C417.245 248.995 417.76 248.891 418.328 248.891C418.891 248.891 419.388 248.979 419.82 249.156C420.253 249.328 420.615 249.57 420.906 249.883C421.198 250.195 421.419 250.568 421.57 251C421.721 251.432 421.797 251.906 421.797 252.422ZM419.859 252.148C419.865 251.836 419.826 251.565 419.742 251.336C419.659 251.102 419.544 250.909 419.398 250.758C419.258 250.607 419.091 250.495 418.898 250.422C418.711 250.349 418.508 250.312 418.289 250.312C417.81 250.312 417.417 250.474 417.109 250.797C416.802 251.115 416.62 251.565 416.562 252.148H419.859ZM428.414 257V251.828C428.414 250.958 428.091 250.523 427.445 250.523C427.122 250.523 426.812 250.654 426.516 250.914C426.224 251.174 425.914 251.529 425.586 251.977V257H423.68V249.062H425.328L425.375 250.234C425.536 250.031 425.703 249.846 425.875 249.68C426.052 249.513 426.242 249.372 426.445 249.258C426.648 249.138 426.867 249.047 427.102 248.984C427.336 248.922 427.599 248.891 427.891 248.891C428.297 248.891 428.651 248.958 428.953 249.094C429.255 249.224 429.508 249.411 429.711 249.656C429.914 249.896 430.065 250.188 430.164 250.531C430.268 250.87 430.32 251.25 430.32 251.672V257H428.414ZM437.586 252.148C437.596 251.852 437.581 251.599 437.539 251.391C437.503 251.182 437.44 251.01 437.352 250.875C437.268 250.74 437.164 250.641 437.039 250.578C436.914 250.516 436.771 250.484 436.609 250.484C436.328 250.484 436.036 250.602 435.734 250.836C435.438 251.065 435.109 251.445 434.75 251.977V257H432.797V249.062H434.523L434.594 250.219C434.724 250.016 434.87 249.833 435.031 249.672C435.198 249.51 435.38 249.372 435.578 249.258C435.781 249.138 436.005 249.047 436.25 248.984C436.495 248.922 436.763 248.891 437.055 248.891C437.456 248.891 437.81 248.961 438.117 249.102C438.43 249.237 438.69 249.44 438.898 249.711C439.112 249.982 439.268 250.323 439.367 250.734C439.471 251.141 439.516 251.612 439.5 252.148H437.586ZM448.188 252.422C448.188 252.552 448.182 252.721 448.172 252.93C448.167 253.138 448.156 253.333 448.141 253.516H442.922C442.922 253.865 442.974 254.172 443.078 254.438C443.188 254.703 443.339 254.927 443.531 255.109C443.729 255.286 443.964 255.422 444.234 255.516C444.51 255.609 444.815 255.656 445.148 255.656C445.534 255.656 445.945 255.628 446.383 255.57C446.826 255.508 447.284 255.409 447.758 255.273V256.789C447.555 256.846 447.333 256.898 447.094 256.945C446.854 256.992 446.609 257.034 446.359 257.07C446.109 257.107 445.857 257.133 445.602 257.148C445.346 257.169 445.099 257.18 444.859 257.18C444.255 257.18 443.714 257.094 443.234 256.922C442.755 256.75 442.349 256.497 442.016 256.164C441.682 255.826 441.427 255.409 441.25 254.914C441.073 254.419 440.984 253.846 440.984 253.195C440.984 252.549 441.073 251.964 441.25 251.438C441.427 250.906 441.677 250.453 442 250.078C442.323 249.698 442.714 249.406 443.172 249.203C443.635 248.995 444.151 248.891 444.719 248.891C445.281 248.891 445.779 248.979 446.211 249.156C446.643 249.328 447.005 249.57 447.297 249.883C447.589 250.195 447.81 250.568 447.961 251C448.112 251.432 448.188 251.906 448.188 252.422ZM446.25 252.148C446.255 251.836 446.216 251.565 446.133 251.336C446.049 251.102 445.935 250.909 445.789 250.758C445.648 250.607 445.482 250.495 445.289 250.422C445.102 250.349 444.898 250.312 444.68 250.312C444.201 250.312 443.807 250.474 443.5 250.797C443.193 251.115 443.01 251.565 442.953 252.148H446.25Z" fill="black"/>
<path d="M412.969 282H410.711L409.703 278.852L409.336 277.57L408.984 278.883L407.992 282H405.828L405.258 271.789H406.953L407.195 278.336L407.258 280.125L407.719 278.531L408.844 274.898H410.055L411.242 278.75L411.625 280.109L411.656 278.516L411.914 271.789H413.547L412.969 282ZM419.555 271.891C419.555 272.062 419.523 272.224 419.461 272.375C419.398 272.526 419.31 272.659 419.195 272.773C419.086 272.883 418.956 272.971 418.805 273.039C418.654 273.102 418.49 273.133 418.312 273.133C418.135 273.133 417.969 273.102 417.812 273.039C417.661 272.971 417.529 272.883 417.414 272.773C417.305 272.659 417.219 272.526 417.156 272.375C417.094 272.224 417.062 272.062 417.062 271.891C417.062 271.719 417.094 271.557 417.156 271.406C417.219 271.255 417.305 271.122 417.414 271.008C417.529 270.893 417.661 270.805 417.812 270.742C417.969 270.674 418.135 270.641 418.312 270.641C418.49 270.641 418.654 270.674 418.805 270.742C418.956 270.805 419.086 270.893 419.195 271.008C419.31 271.122 419.398 271.255 419.461 271.406C419.523 271.557 419.555 271.719 419.555 271.891ZM417.445 275.547H415.203V274.062H419.398V280.516H421.688V282H414.93V280.516H417.445V275.547ZM430.227 279.664C430.227 280.117 430.125 280.505 429.922 280.828C429.724 281.146 429.458 281.406 429.125 281.609C428.797 281.807 428.422 281.951 428 282.039C427.583 282.133 427.156 282.18 426.719 282.18C426.135 282.18 425.609 282.151 425.141 282.094C424.672 282.042 424.229 281.964 423.812 281.859V280.141C424.302 280.344 424.789 280.492 425.273 280.586C425.763 280.674 426.224 280.719 426.656 280.719C427.156 280.719 427.529 280.641 427.773 280.484C428.023 280.323 428.148 280.115 428.148 279.859C428.148 279.74 428.122 279.63 428.07 279.531C428.018 279.432 427.919 279.339 427.773 279.25C427.633 279.156 427.432 279.062 427.172 278.969C426.911 278.87 426.57 278.76 426.148 278.641C425.758 278.531 425.414 278.409 425.117 278.273C424.826 278.133 424.583 277.969 424.391 277.781C424.198 277.594 424.052 277.378 423.953 277.133C423.859 276.883 423.812 276.591 423.812 276.258C423.812 275.935 423.885 275.63 424.031 275.344C424.177 275.057 424.393 274.807 424.68 274.594C424.971 274.375 425.333 274.203 425.766 274.078C426.198 273.953 426.703 273.891 427.281 273.891C427.781 273.891 428.224 273.917 428.609 273.969C428.995 274.021 429.336 274.078 429.633 274.141V275.695C429.18 275.549 428.753 275.448 428.352 275.391C427.956 275.328 427.562 275.297 427.172 275.297C426.781 275.297 426.466 275.367 426.227 275.508C425.992 275.648 425.875 275.844 425.875 276.094C425.875 276.214 425.898 276.32 425.945 276.414C425.992 276.508 426.083 276.599 426.219 276.688C426.359 276.776 426.552 276.87 426.797 276.969C427.047 277.062 427.375 277.167 427.781 277.281C428.24 277.411 428.625 277.552 428.938 277.703C429.25 277.849 429.5 278.016 429.688 278.203C429.88 278.391 430.018 278.604 430.102 278.844C430.185 279.083 430.227 279.357 430.227 279.664ZM437.211 282V276.828C437.211 275.958 436.888 275.523 436.242 275.523C435.919 275.523 435.609 275.654 435.312 275.914C435.021 276.174 434.711 276.529 434.383 276.977V282H432.477V270.961H434.383V273.68L434.289 275.117C434.451 274.924 434.615 274.753 434.781 274.602C434.948 274.445 435.128 274.315 435.32 274.211C435.513 274.107 435.721 274.029 435.945 273.977C436.169 273.919 436.417 273.891 436.688 273.891C437.094 273.891 437.448 273.958 437.75 274.094C438.052 274.224 438.305 274.411 438.508 274.656C438.711 274.896 438.862 275.188 438.961 275.531C439.065 275.87 439.117 276.25 439.117 276.672V282H437.211ZM443.836 272.445H441.594V270.961H445.789V280.516H448.078V282H441.32V280.516H443.836V272.445ZM454.742 271.891C454.742 272.062 454.711 272.224 454.648 272.375C454.586 272.526 454.497 272.659 454.383 272.773C454.273 272.883 454.143 272.971 453.992 273.039C453.841 273.102 453.677 273.133 453.5 273.133C453.323 273.133 453.156 273.102 453 273.039C452.849 272.971 452.716 272.883 452.602 272.773C452.492 272.659 452.406 272.526 452.344 272.375C452.281 272.224 452.25 272.062 452.25 271.891C452.25 271.719 452.281 271.557 452.344 271.406C452.406 271.255 452.492 271.122 452.602 271.008C452.716 270.893 452.849 270.805 453 270.742C453.156 270.674 453.323 270.641 453.5 270.641C453.677 270.641 453.841 270.674 453.992 270.742C454.143 270.805 454.273 270.893 454.383 271.008C454.497 271.122 454.586 271.255 454.648 271.406C454.711 271.557 454.742 271.719 454.742 271.891ZM452.633 275.547H450.391V274.062H454.586V280.516H456.875V282H450.117V280.516H452.633V275.547ZM465.414 279.664C465.414 280.117 465.312 280.505 465.109 280.828C464.911 281.146 464.646 281.406 464.312 281.609C463.984 281.807 463.609 281.951 463.188 282.039C462.771 282.133 462.344 282.18 461.906 282.18C461.323 282.18 460.797 282.151 460.328 282.094C459.859 282.042 459.417 281.964 459 281.859V280.141C459.49 280.344 459.977 280.492 460.461 280.586C460.951 280.674 461.411 280.719 461.844 280.719C462.344 280.719 462.716 280.641 462.961 280.484C463.211 280.323 463.336 280.115 463.336 279.859C463.336 279.74 463.31 279.63 463.258 279.531C463.206 279.432 463.107 279.339 462.961 279.25C462.82 279.156 462.62 279.062 462.359 278.969C462.099 278.87 461.758 278.76 461.336 278.641C460.945 278.531 460.602 278.409 460.305 278.273C460.013 278.133 459.771 277.969 459.578 277.781C459.385 277.594 459.24 277.378 459.141 277.133C459.047 276.883 459 276.591 459 276.258C459 275.935 459.073 275.63 459.219 275.344C459.365 275.057 459.581 274.807 459.867 274.594C460.159 274.375 460.521 274.203 460.953 274.078C461.385 273.953 461.891 273.891 462.469 273.891C462.969 273.891 463.411 273.917 463.797 273.969C464.182 274.021 464.523 274.078 464.82 274.141V275.695C464.367 275.549 463.94 275.448 463.539 275.391C463.143 275.328 462.75 275.297 462.359 275.297C461.969 275.297 461.654 275.367 461.414 275.508C461.18 275.648 461.062 275.844 461.062 276.094C461.062 276.214 461.086 276.32 461.133 276.414C461.18 276.508 461.271 276.599 461.406 276.688C461.547 276.776 461.74 276.87 461.984 276.969C462.234 277.062 462.562 277.167 462.969 277.281C463.427 277.411 463.812 277.552 464.125 277.703C464.438 277.849 464.688 278.016 464.875 278.203C465.068 278.391 465.206 278.604 465.289 278.844C465.372 279.083 465.414 279.357 465.414 279.664ZM474.211 281.922C473.867 282 473.521 282.062 473.172 282.109C472.823 282.156 472.492 282.18 472.18 282.18C471.659 282.18 471.208 282.125 470.828 282.016C470.453 281.906 470.141 281.74 469.891 281.516C469.646 281.292 469.464 281.008 469.344 280.664C469.229 280.315 469.172 279.901 469.172 279.422V275.547H467.039V274.062H469.172V272.031L471.125 271.523V274.062H474.211V275.547H471.125V279.281C471.125 279.734 471.229 280.078 471.438 280.312C471.646 280.542 471.995 280.656 472.484 280.656C472.797 280.656 473.102 280.63 473.398 280.578C473.695 280.526 473.966 280.466 474.211 280.398V281.922Z" fill="black"/>
<path d="M409.352 305.117C409.57 305.117 409.773 305.159 409.961 305.242C410.148 305.32 410.31 305.43 410.445 305.57C410.586 305.706 410.695 305.867 410.773 306.055C410.852 306.242 410.891 306.443 410.891 306.656C410.891 306.865 410.852 307.062 410.773 307.25C410.695 307.432 410.586 307.594 410.445 307.734C410.31 307.87 410.148 307.977 409.961 308.055C409.773 308.138 409.57 308.18 409.352 308.18C409.143 308.18 408.948 308.138 408.766 308.055C408.583 307.977 408.424 307.87 408.289 307.734C408.154 307.594 408.047 307.432 407.969 307.25C407.891 307.062 407.852 306.865 407.852 306.656C407.852 306.443 407.891 306.242 407.969 306.055C408.047 305.867 408.154 305.706 408.289 305.57C408.424 305.43 408.583 305.32 408.766 305.242C408.948 305.159 409.143 305.117 409.352 305.117ZM418.148 305.117C418.367 305.117 418.57 305.159 418.758 305.242C418.945 305.32 419.107 305.43 419.242 305.57C419.383 305.706 419.492 305.867 419.57 306.055C419.648 306.242 419.688 306.443 419.688 306.656C419.688 306.865 419.648 307.062 419.57 307.25C419.492 307.432 419.383 307.594 419.242 307.734C419.107 307.87 418.945 307.977 418.758 308.055C418.57 308.138 418.367 308.18 418.148 308.18C417.94 308.18 417.745 308.138 417.562 308.055C417.38 307.977 417.221 307.87 417.086 307.734C416.951 307.594 416.844 307.432 416.766 307.25C416.688 307.062 416.648 306.865 416.648 306.656C416.648 306.443 416.688 306.242 416.766 306.055C416.844 305.867 416.951 305.706 417.086 305.57C417.221 305.43 417.38 305.32 417.562 305.242C417.745 305.159 417.94 305.117 418.148 305.117ZM426.945 305.117C427.164 305.117 427.367 305.159 427.555 305.242C427.742 305.32 427.904 305.43 428.039 305.57C428.18 305.706 428.289 305.867 428.367 306.055C428.445 306.242 428.484 306.443 428.484 306.656C428.484 306.865 428.445 307.062 428.367 307.25C428.289 307.432 428.18 307.594 428.039 307.734C427.904 307.87 427.742 307.977 427.555 308.055C427.367 308.138 427.164 308.18 426.945 308.18C426.737 308.18 426.542 308.138 426.359 308.055C426.177 307.977 426.018 307.87 425.883 307.734C425.747 307.594 425.641 307.432 425.562 307.25C425.484 307.062 425.445 306.865 425.445 306.656C425.445 306.443 425.484 306.242 425.562 306.055C425.641 305.867 425.747 305.706 425.883 305.57C426.018 305.43 426.177 305.32 426.359 305.242C426.542 305.159 426.737 305.117 426.945 305.117Z" fill="black"/>
<line x1="204.377" y1="237.1" x2="390.377" y2="176.1" stroke="black" stroke-width="4"/>
<circle cx="197" cy="242" r="8" fill="black"/>
<path d="M143.492 231.766C143.492 232.557 143.393 233.276 143.195 233.922C143.003 234.568 142.698 235.12 142.281 235.578C141.87 236.031 141.341 236.383 140.695 236.633C140.049 236.878 139.276 237 138.375 237H135.781V226.789H138.805C139.586 226.789 140.268 226.888 140.852 227.086C141.44 227.279 141.93 227.578 142.32 227.984C142.711 228.391 143.003 228.906 143.195 229.531C143.393 230.156 143.492 230.901 143.492 231.766ZM141.43 231.891C141.43 231.339 141.385 230.846 141.297 230.414C141.208 229.982 141.057 229.617 140.844 229.32C140.635 229.018 140.354 228.789 140 228.633C139.646 228.477 139.206 228.398 138.68 228.398H137.703V235.391H138.547C139.49 235.391 140.206 235.109 140.695 234.547C141.185 233.984 141.43 233.099 141.43 231.891ZM152.141 232.969C152.141 233.594 152.052 234.167 151.875 234.688C151.698 235.203 151.443 235.646 151.109 236.016C150.776 236.385 150.367 236.672 149.883 236.875C149.398 237.078 148.846 237.18 148.227 237.18C147.638 237.18 147.112 237.094 146.648 236.922C146.185 236.75 145.792 236.495 145.469 236.156C145.146 235.812 144.898 235.385 144.727 234.875C144.555 234.359 144.469 233.76 144.469 233.078C144.469 232.448 144.557 231.875 144.734 231.359C144.917 230.844 145.174 230.404 145.508 230.039C145.846 229.674 146.258 229.393 146.742 229.195C147.227 228.992 147.773 228.891 148.383 228.891C148.977 228.891 149.505 228.979 149.969 229.156C150.432 229.328 150.826 229.586 151.148 229.93C151.471 230.273 151.716 230.701 151.883 231.211C152.055 231.716 152.141 232.302 152.141 232.969ZM150.156 233.016C150.156 232.193 150 231.576 149.688 231.164C149.38 230.747 148.924 230.539 148.32 230.539C147.987 230.539 147.703 230.604 147.469 230.734C147.234 230.865 147.042 231.044 146.891 231.273C146.74 231.497 146.628 231.76 146.555 232.062C146.487 232.365 146.453 232.688 146.453 233.031C146.453 233.859 146.62 234.484 146.953 234.906C147.286 235.323 147.742 235.531 148.32 235.531C148.638 235.531 148.914 235.469 149.148 235.344C149.383 235.214 149.573 235.036 149.719 234.812C149.865 234.583 149.974 234.315 150.047 234.008C150.12 233.701 150.156 233.37 150.156 233.016ZM159.391 237V231.594C159.391 231.396 159.385 231.224 159.375 231.078C159.365 230.927 159.344 230.802 159.312 230.703C159.281 230.604 159.234 230.531 159.172 230.484C159.115 230.432 159.034 230.406 158.93 230.406C158.768 230.406 158.609 230.516 158.453 230.734C158.297 230.953 158.12 231.326 157.922 231.852V237H156.289V231.594C156.289 231.396 156.284 231.224 156.273 231.078C156.263 230.927 156.242 230.802 156.211 230.703C156.18 230.604 156.133 230.531 156.07 230.484C156.008 230.432 155.924 230.406 155.82 230.406C155.685 230.406 155.534 230.516 155.367 230.734C155.201 230.953 155.016 231.326 154.812 231.852V237H153.164V229.062H154.578L154.609 230.219C154.724 229.984 154.839 229.784 154.953 229.617C155.068 229.451 155.19 229.315 155.32 229.211C155.451 229.102 155.589 229.023 155.734 228.977C155.885 228.93 156.055 228.906 156.242 228.906C156.685 228.906 157.021 229.023 157.25 229.258C157.484 229.487 157.617 229.807 157.648 230.219C157.773 229.984 157.896 229.784 158.016 229.617C158.141 229.451 158.268 229.315 158.398 229.211C158.534 229.102 158.677 229.023 158.828 228.977C158.984 228.93 159.156 228.906 159.344 228.906C159.922 228.906 160.349 229.109 160.625 229.516C160.901 229.917 161.039 230.513 161.039 231.305V237H159.391ZM167.562 237L167.516 235.961C167.349 236.138 167.174 236.302 166.992 236.453C166.81 236.599 166.609 236.727 166.391 236.836C166.172 236.945 165.932 237.029 165.672 237.086C165.417 237.148 165.135 237.18 164.828 237.18C164.422 237.18 164.065 237.12 163.758 237C163.451 236.88 163.193 236.714 162.984 236.5C162.776 236.286 162.617 236.029 162.508 235.727C162.404 235.424 162.352 235.091 162.352 234.727C162.352 234.352 162.43 234.005 162.586 233.688C162.747 233.37 162.99 233.096 163.312 232.867C163.641 232.638 164.047 232.458 164.531 232.328C165.021 232.198 165.594 232.133 166.25 232.133H167.289V231.656C167.289 231.453 167.26 231.271 167.203 231.109C167.146 230.943 167.052 230.802 166.922 230.688C166.797 230.573 166.633 230.484 166.43 230.422C166.227 230.359 165.977 230.328 165.68 230.328C165.211 230.328 164.747 230.383 164.289 230.492C163.836 230.596 163.396 230.745 162.969 230.938V229.414C163.349 229.263 163.786 229.138 164.281 229.039C164.781 228.94 165.299 228.891 165.836 228.891C166.424 228.891 166.93 228.948 167.352 229.062C167.773 229.172 168.12 229.339 168.391 229.562C168.667 229.786 168.87 230.068 169 230.406C169.13 230.74 169.195 231.13 169.195 231.578V237H167.562ZM167.289 233.492H166.125C165.802 233.492 165.529 233.523 165.305 233.586C165.081 233.648 164.898 233.734 164.758 233.844C164.617 233.953 164.513 234.081 164.445 234.227C164.383 234.367 164.352 234.518 164.352 234.68C164.352 235.003 164.456 235.25 164.664 235.422C164.872 235.589 165.156 235.672 165.516 235.672C165.781 235.672 166.057 235.576 166.344 235.383C166.63 235.19 166.945 234.914 167.289 234.555V233.492ZM176.055 226.891C176.055 227.062 176.023 227.224 175.961 227.375C175.898 227.526 175.81 227.659 175.695 227.773C175.586 227.883 175.456 227.971 175.305 228.039C175.154 228.102 174.99 228.133 174.812 228.133C174.635 228.133 174.469 228.102 174.312 228.039C174.161 227.971 174.029 227.883 173.914 227.773C173.805 227.659 173.719 227.526 173.656 227.375C173.594 227.224 173.562 227.062 173.562 226.891C173.562 226.719 173.594 226.557 173.656 226.406C173.719 226.255 173.805 226.122 173.914 226.008C174.029 225.893 174.161 225.805 174.312 225.742C174.469 225.674 174.635 225.641 174.812 225.641C174.99 225.641 175.154 225.674 175.305 225.742C175.456 225.805 175.586 225.893 175.695 226.008C175.81 226.122 175.898 226.255 175.961 226.406C176.023 226.557 176.055 226.719 176.055 226.891ZM173.945 230.547H171.703V229.062H175.898V235.516H178.188V237H171.43V235.516H173.945V230.547ZM184.914 237V231.828C184.914 230.958 184.591 230.523 183.945 230.523C183.622 230.523 183.312 230.654 183.016 230.914C182.724 231.174 182.414 231.529 182.086 231.977V237H180.18V229.062H181.828L181.875 230.234C182.036 230.031 182.203 229.846 182.375 229.68C182.552 229.513 182.742 229.372 182.945 229.258C183.148 229.138 183.367 229.047 183.602 228.984C183.836 228.922 184.099 228.891 184.391 228.891C184.797 228.891 185.151 228.958 185.453 229.094C185.755 229.224 186.008 229.411 186.211 229.656C186.414 229.896 186.565 230.188 186.664 230.531C186.768 230.87 186.82 231.25 186.82 231.672V237H184.914ZM141.047 256V245.789H143V254.352H147.312V256H141.047ZM154.367 256L154.32 254.961C154.154 255.138 153.979 255.302 153.797 255.453C153.615 255.599 153.414 255.727 153.195 255.836C152.977 255.945 152.737 256.029 152.477 256.086C152.221 256.148 151.94 256.18 151.633 256.18C151.227 256.18 150.87 256.12 150.562 256C150.255 255.88 149.997 255.714 149.789 255.5C149.581 255.286 149.422 255.029 149.312 254.727C149.208 254.424 149.156 254.091 149.156 253.727C149.156 253.352 149.234 253.005 149.391 252.688C149.552 252.37 149.794 252.096 150.117 251.867C150.445 251.638 150.852 251.458 151.336 251.328C151.826 251.198 152.398 251.133 153.055 251.133H154.094V250.656C154.094 250.453 154.065 250.271 154.008 250.109C153.951 249.943 153.857 249.802 153.727 249.688C153.602 249.573 153.438 249.484 153.234 249.422C153.031 249.359 152.781 249.328 152.484 249.328C152.016 249.328 151.552 249.383 151.094 249.492C150.641 249.596 150.201 249.745 149.773 249.938V248.414C150.154 248.263 150.591 248.138 151.086 248.039C151.586 247.94 152.104 247.891 152.641 247.891C153.229 247.891 153.734 247.948 154.156 248.062C154.578 248.172 154.924 248.339 155.195 248.562C155.471 248.786 155.674 249.068 155.805 249.406C155.935 249.74 156 250.13 156 250.578V256H154.367ZM154.094 252.492H152.93C152.607 252.492 152.333 252.523 152.109 252.586C151.885 252.648 151.703 252.734 151.562 252.844C151.422 252.953 151.318 253.081 151.25 253.227C151.188 253.367 151.156 253.518 151.156 253.68C151.156 254.003 151.26 254.25 151.469 254.422C151.677 254.589 151.961 254.672 152.32 254.672C152.586 254.672 152.862 254.576 153.148 254.383C153.435 254.19 153.75 253.914 154.094 253.555V252.492ZM162.961 255.133C162.685 255.82 162.396 256.422 162.094 256.938C161.797 257.458 161.469 257.891 161.109 258.234C160.75 258.583 160.349 258.844 159.906 259.016C159.469 259.193 158.977 259.281 158.43 259.281C158.299 259.281 158.156 259.273 158 259.258C157.849 259.247 157.693 259.229 157.531 259.203V257.586C157.594 257.596 157.664 257.607 157.742 257.617C157.826 257.633 157.911 257.643 158 257.648C158.089 257.659 158.177 257.667 158.266 257.672C158.359 257.677 158.445 257.68 158.523 257.68C158.742 257.68 158.945 257.638 159.133 257.555C159.32 257.471 159.492 257.354 159.648 257.203C159.81 257.057 159.956 256.88 160.086 256.672C160.216 256.469 160.331 256.245 160.43 256L157.281 248.062H159.406L161.055 252.562L161.547 254.016L162.031 252.625L163.695 248.062H165.742L162.961 255.133ZM173.898 251.422C173.898 251.552 173.893 251.721 173.883 251.93C173.878 252.138 173.867 252.333 173.852 252.516H168.633C168.633 252.865 168.685 253.172 168.789 253.438C168.898 253.703 169.049 253.927 169.242 254.109C169.44 254.286 169.674 254.422 169.945 254.516C170.221 254.609 170.526 254.656 170.859 254.656C171.245 254.656 171.656 254.628 172.094 254.57C172.536 254.508 172.995 254.409 173.469 254.273V255.789C173.266 255.846 173.044 255.898 172.805 255.945C172.565 255.992 172.32 256.034 172.07 256.07C171.82 256.107 171.568 256.133 171.312 256.148C171.057 256.169 170.81 256.18 170.57 256.18C169.966 256.18 169.424 256.094 168.945 255.922C168.466 255.75 168.06 255.497 167.727 255.164C167.393 254.826 167.138 254.409 166.961 253.914C166.784 253.419 166.695 252.846 166.695 252.195C166.695 251.549 166.784 250.964 166.961 250.438C167.138 249.906 167.388 249.453 167.711 249.078C168.034 248.698 168.424 248.406 168.883 248.203C169.346 247.995 169.862 247.891 170.43 247.891C170.992 247.891 171.49 247.979 171.922 248.156C172.354 248.328 172.716 248.57 173.008 248.883C173.299 249.195 173.521 249.568 173.672 250C173.823 250.432 173.898 250.906 173.898 251.422ZM171.961 251.148C171.966 250.836 171.927 250.565 171.844 250.336C171.76 250.102 171.646 249.909 171.5 249.758C171.359 249.607 171.193 249.495 171 249.422C170.812 249.349 170.609 249.312 170.391 249.312C169.911 249.312 169.518 249.474 169.211 249.797C168.904 250.115 168.721 250.565 168.664 251.148H171.961ZM180.891 251.148C180.901 250.852 180.885 250.599 180.844 250.391C180.807 250.182 180.745 250.01 180.656 249.875C180.573 249.74 180.469 249.641 180.344 249.578C180.219 249.516 180.076 249.484 179.914 249.484C179.633 249.484 179.341 249.602 179.039 249.836C178.742 250.065 178.414 250.445 178.055 250.977V256H176.102V248.062H177.828L177.898 249.219C178.029 249.016 178.174 248.833 178.336 248.672C178.503 248.51 178.685 248.372 178.883 248.258C179.086 248.138 179.31 248.047 179.555 247.984C179.799 247.922 180.068 247.891 180.359 247.891C180.76 247.891 181.115 247.961 181.422 248.102C181.734 248.237 181.995 248.44 182.203 248.711C182.417 248.982 182.573 249.323 182.672 249.734C182.776 250.141 182.82 250.612 182.805 251.148H180.891Z" fill="black"/>
<path d="M118.289 100.359V98.7891H124.742V100.359H122.492V107.414H124.742V109H118.289V107.414H120.539V100.359H118.289ZM131.734 109V103.828C131.734 102.958 131.411 102.523 130.766 102.523C130.443 102.523 130.133 102.654 129.836 102.914C129.544 103.174 129.234 103.529 128.906 103.977V109H127V101.062H128.648L128.695 102.234C128.857 102.031 129.023 101.846 129.195 101.68C129.372 101.513 129.562 101.372 129.766 101.258C129.969 101.138 130.188 101.047 130.422 100.984C130.656 100.922 130.919 100.891 131.211 100.891C131.617 100.891 131.971 100.958 132.273 101.094C132.576 101.224 132.828 101.411 133.031 101.656C133.234 101.896 133.385 102.188 133.484 102.531C133.589 102.87 133.641 103.25 133.641 103.672V109H131.734ZM142.922 99.5781C142.693 99.5052 142.419 99.4453 142.102 99.3984C141.789 99.3464 141.469 99.3203 141.141 99.3203C140.917 99.3203 140.708 99.3516 140.516 99.4141C140.323 99.4714 140.156 99.5651 140.016 99.6953C139.875 99.8255 139.763 99.9922 139.68 100.195C139.602 100.393 139.562 100.635 139.562 100.922V102.203H142.68V103.688H139.562V109H137.641V103.688H135.336V102.203H137.641V101C137.641 100.438 137.721 99.9557 137.883 99.5547C138.049 99.1484 138.281 98.8177 138.578 98.5625C138.88 98.3021 139.242 98.112 139.664 97.9922C140.086 97.8724 140.557 97.8125 141.078 97.8125C141.422 97.8125 141.747 97.8359 142.055 97.8828C142.367 97.9245 142.656 97.9766 142.922 98.0391V99.5781ZM149.703 104.148C149.714 103.852 149.698 103.599 149.656 103.391C149.62 103.182 149.557 103.01 149.469 102.875C149.385 102.74 149.281 102.641 149.156 102.578C149.031 102.516 148.888 102.484 148.727 102.484C148.445 102.484 148.154 102.602 147.852 102.836C147.555 103.065 147.227 103.445 146.867 103.977V109H144.914V101.062H146.641L146.711 102.219C146.841 102.016 146.987 101.833 147.148 101.672C147.315 101.51 147.497 101.372 147.695 101.258C147.898 101.138 148.122 101.047 148.367 100.984C148.612 100.922 148.88 100.891 149.172 100.891C149.573 100.891 149.927 100.961 150.234 101.102C150.547 101.237 150.807 101.44 151.016 101.711C151.229 101.982 151.385 102.323 151.484 102.734C151.589 103.141 151.633 103.612 151.617 104.148H149.703ZM158.367 109L158.32 107.961C158.154 108.138 157.979 108.302 157.797 108.453C157.615 108.599 157.414 108.727 157.195 108.836C156.977 108.945 156.737 109.029 156.477 109.086C156.221 109.148 155.94 109.18 155.633 109.18C155.227 109.18 154.87 109.12 154.562 109C154.255 108.88 153.997 108.714 153.789 108.5C153.581 108.286 153.422 108.029 153.312 107.727C153.208 107.424 153.156 107.091 153.156 106.727C153.156 106.352 153.234 106.005 153.391 105.688C153.552 105.37 153.794 105.096 154.117 104.867C154.445 104.638 154.852 104.458 155.336 104.328C155.826 104.198 156.398 104.133 157.055 104.133H158.094V103.656C158.094 103.453 158.065 103.271 158.008 103.109C157.951 102.943 157.857 102.802 157.727 102.688C157.602 102.573 157.438 102.484 157.234 102.422C157.031 102.359 156.781 102.328 156.484 102.328C156.016 102.328 155.552 102.383 155.094 102.492C154.641 102.596 154.201 102.745 153.773 102.938V101.414C154.154 101.263 154.591 101.138 155.086 101.039C155.586 100.94 156.104 100.891 156.641 100.891C157.229 100.891 157.734 100.948 158.156 101.062C158.578 101.172 158.924 101.339 159.195 101.562C159.471 101.786 159.674 102.068 159.805 102.406C159.935 102.74 160 103.13 160 103.578V109H158.367ZM158.094 105.492H156.93C156.607 105.492 156.333 105.523 156.109 105.586C155.885 105.648 155.703 105.734 155.562 105.844C155.422 105.953 155.318 106.081 155.25 106.227C155.188 106.367 155.156 106.518 155.156 106.68C155.156 107.003 155.26 107.25 155.469 107.422C155.677 107.589 155.961 107.672 156.32 107.672C156.586 107.672 156.862 107.576 157.148 107.383C157.435 107.19 157.75 106.914 158.094 106.555V105.492ZM171.438 109V98.7891H173.391V107.352H177.703V109H171.438ZM184.758 109L184.711 107.961C184.544 108.138 184.37 108.302 184.188 108.453C184.005 108.599 183.805 108.727 183.586 108.836C183.367 108.945 183.128 109.029 182.867 109.086C182.612 109.148 182.331 109.18 182.023 109.18C181.617 109.18 181.26 109.12 180.953 109C180.646 108.88 180.388 108.714 180.18 108.5C179.971 108.286 179.812 108.029 179.703 107.727C179.599 107.424 179.547 107.091 179.547 106.727C179.547 106.352 179.625 106.005 179.781 105.688C179.943 105.37 180.185 105.096 180.508 104.867C180.836 104.638 181.242 104.458 181.727 104.328C182.216 104.198 182.789 104.133 183.445 104.133H184.484V103.656C184.484 103.453 184.456 103.271 184.398 103.109C184.341 102.943 184.247 102.802 184.117 102.688C183.992 102.573 183.828 102.484 183.625 102.422C183.422 102.359 183.172 102.328 182.875 102.328C182.406 102.328 181.943 102.383 181.484 102.492C181.031 102.596 180.591 102.745 180.164 102.938V101.414C180.544 101.263 180.982 101.138 181.477 101.039C181.977 100.94 182.495 100.891 183.031 100.891C183.62 100.891 184.125 100.948 184.547 101.062C184.969 101.172 185.315 101.339 185.586 101.562C185.862 101.786 186.065 102.068 186.195 102.406C186.326 102.74 186.391 103.13 186.391 103.578V109H184.758ZM184.484 105.492H183.32C182.997 105.492 182.724 105.523 182.5 105.586C182.276 105.648 182.094 105.734 181.953 105.844C181.812 105.953 181.708 106.081 181.641 106.227C181.578 106.367 181.547 106.518 181.547 106.68C181.547 107.003 181.651 107.25 181.859 107.422C182.068 107.589 182.352 107.672 182.711 107.672C182.977 107.672 183.253 107.576 183.539 107.383C183.826 107.19 184.141 106.914 184.484 106.555V105.492ZM193.352 108.133C193.076 108.82 192.786 109.422 192.484 109.938C192.188 110.458 191.859 110.891 191.5 111.234C191.141 111.583 190.74 111.844 190.297 112.016C189.859 112.193 189.367 112.281 188.82 112.281C188.69 112.281 188.547 112.273 188.391 112.258C188.24 112.247 188.083 112.229 187.922 112.203V110.586C187.984 110.596 188.055 110.607 188.133 110.617C188.216 110.633 188.302 110.643 188.391 110.648C188.479 110.659 188.568 110.667 188.656 110.672C188.75 110.677 188.836 110.68 188.914 110.68C189.133 110.68 189.336 110.638 189.523 110.555C189.711 110.471 189.883 110.354 190.039 110.203C190.201 110.057 190.346 109.88 190.477 109.672C190.607 109.469 190.721 109.245 190.82 109L187.672 101.062H189.797L191.445 105.562L191.938 107.016L192.422 105.625L194.086 101.062H196.133L193.352 108.133ZM204.289 104.422C204.289 104.552 204.284 104.721 204.273 104.93C204.268 105.138 204.258 105.333 204.242 105.516H199.023C199.023 105.865 199.076 106.172 199.18 106.438C199.289 106.703 199.44 106.927 199.633 107.109C199.831 107.286 200.065 107.422 200.336 107.516C200.612 107.609 200.917 107.656 201.25 107.656C201.635 107.656 202.047 107.628 202.484 107.57C202.927 107.508 203.385 107.409 203.859 107.273V108.789C203.656 108.846 203.435 108.898 203.195 108.945C202.956 108.992 202.711 109.034 202.461 109.07C202.211 109.107 201.958 109.133 201.703 109.148C201.448 109.169 201.201 109.18 200.961 109.18C200.357 109.18 199.815 109.094 199.336 108.922C198.857 108.75 198.451 108.497 198.117 108.164C197.784 107.826 197.529 107.409 197.352 106.914C197.174 106.419 197.086 105.846 197.086 105.195C197.086 104.549 197.174 103.964 197.352 103.438C197.529 102.906 197.779 102.453 198.102 102.078C198.424 101.698 198.815 101.406 199.273 101.203C199.737 100.995 200.253 100.891 200.82 100.891C201.383 100.891 201.88 100.979 202.312 101.156C202.745 101.328 203.107 101.57 203.398 101.883C203.69 102.195 203.911 102.568 204.062 103C204.214 103.432 204.289 103.906 204.289 104.422ZM202.352 104.148C202.357 103.836 202.318 103.565 202.234 103.336C202.151 103.102 202.036 102.909 201.891 102.758C201.75 102.607 201.583 102.495 201.391 102.422C201.203 102.349 201 102.312 200.781 102.312C200.302 102.312 199.909 102.474 199.602 102.797C199.294 103.115 199.112 103.565 199.055 104.148H202.352ZM211.281 104.148C211.292 103.852 211.276 103.599 211.234 103.391C211.198 103.182 211.135 103.01 211.047 102.875C210.964 102.74 210.859 102.641 210.734 102.578C210.609 102.516 210.466 102.484 210.305 102.484C210.023 102.484 209.732 102.602 209.43 102.836C209.133 103.065 208.805 103.445 208.445 103.977V109H206.492V101.062H208.219L208.289 102.219C208.419 102.016 208.565 101.833 208.727 101.672C208.893 101.51 209.076 101.372 209.273 101.258C209.477 101.138 209.701 101.047 209.945 100.984C210.19 100.922 210.458 100.891 210.75 100.891C211.151 100.891 211.505 100.961 211.812 101.102C212.125 101.237 212.385 101.44 212.594 101.711C212.807 101.982 212.964 102.323 213.062 102.734C213.167 103.141 213.211 103.612 213.195 104.148H211.281Z" fill="black"/>
<path d="M120.859 153L120.297 150.984H116.734L116.156 153H114.25L117.273 142.789H119.961L122.984 153H120.859ZM118.539 144.664L117.195 149.414H119.867L118.539 144.664ZM131.242 148.891C131.242 149.62 131.138 150.25 130.93 150.781C130.727 151.312 130.44 151.755 130.07 152.109C129.706 152.458 129.273 152.719 128.773 152.891C128.273 153.057 127.729 153.141 127.141 153.141C126.943 153.141 126.745 153.128 126.547 153.102C126.349 153.076 126.169 153.042 126.008 153V156.102H124.102V145.062H125.75L125.797 146.234C125.958 146.031 126.125 145.846 126.297 145.68C126.474 145.513 126.664 145.372 126.867 145.258C127.07 145.138 127.289 145.047 127.523 144.984C127.758 144.922 128.021 144.891 128.312 144.891C128.781 144.891 129.198 144.984 129.562 145.172C129.927 145.359 130.232 145.628 130.477 145.977C130.727 146.32 130.917 146.74 131.047 147.234C131.177 147.724 131.242 148.276 131.242 148.891ZM129.242 148.969C129.242 148.531 129.211 148.159 129.148 147.852C129.086 147.544 128.995 147.292 128.875 147.094C128.76 146.896 128.617 146.753 128.445 146.664C128.279 146.57 128.086 146.523 127.867 146.523C127.544 146.523 127.234 146.654 126.938 146.914C126.646 147.174 126.336 147.529 126.008 147.977V151.445C126.159 151.503 126.344 151.549 126.562 151.586C126.786 151.622 127.013 151.641 127.242 151.641C127.544 151.641 127.818 151.578 128.062 151.453C128.312 151.328 128.523 151.151 128.695 150.922C128.872 150.693 129.008 150.414 129.102 150.086C129.195 149.753 129.242 149.38 129.242 148.969ZM140.039 148.891C140.039 149.62 139.935 150.25 139.727 150.781C139.523 151.312 139.237 151.755 138.867 152.109C138.503 152.458 138.07 152.719 137.57 152.891C137.07 153.057 136.526 153.141 135.938 153.141C135.74 153.141 135.542 153.128 135.344 153.102C135.146 153.076 134.966 153.042 134.805 153V156.102H132.898V145.062H134.547L134.594 146.234C134.755 146.031 134.922 145.846 135.094 145.68C135.271 145.513 135.461 145.372 135.664 145.258C135.867 145.138 136.086 145.047 136.32 144.984C136.555 144.922 136.818 144.891 137.109 144.891C137.578 144.891 137.995 144.984 138.359 145.172C138.724 145.359 139.029 145.628 139.273 145.977C139.523 146.32 139.714 146.74 139.844 147.234C139.974 147.724 140.039 148.276 140.039 148.891ZM138.039 148.969C138.039 148.531 138.008 148.159 137.945 147.852C137.883 147.544 137.792 147.292 137.672 147.094C137.557 146.896 137.414 146.753 137.242 146.664C137.076 146.57 136.883 146.523 136.664 146.523C136.341 146.523 136.031 146.654 135.734 146.914C135.443 147.174 135.133 147.529 134.805 147.977V151.445C134.956 151.503 135.141 151.549 135.359 151.586C135.583 151.622 135.81 151.641 136.039 151.641C136.341 151.641 136.615 151.578 136.859 151.453C137.109 151.328 137.32 151.151 137.492 150.922C137.669 150.693 137.805 150.414 137.898 150.086C137.992 149.753 138.039 149.38 138.039 148.969ZM144.258 143.445H142.016V141.961H146.211V151.516H148.5V153H141.742V151.516H144.258V143.445ZM155.164 142.891C155.164 143.062 155.133 143.224 155.07 143.375C155.008 143.526 154.919 143.659 154.805 143.773C154.695 143.883 154.565 143.971 154.414 144.039C154.263 144.102 154.099 144.133 153.922 144.133C153.745 144.133 153.578 144.102 153.422 144.039C153.271 143.971 153.138 143.883 153.023 143.773C152.914 143.659 152.828 143.526 152.766 143.375C152.703 143.224 152.672 143.062 152.672 142.891C152.672 142.719 152.703 142.557 152.766 142.406C152.828 142.255 152.914 142.122 153.023 142.008C153.138 141.893 153.271 141.805 153.422 141.742C153.578 141.674 153.745 141.641 153.922 141.641C154.099 141.641 154.263 141.674 154.414 141.742C154.565 141.805 154.695 141.893 154.805 142.008C154.919 142.122 155.008 142.255 155.07 142.406C155.133 142.557 155.164 142.719 155.164 142.891ZM153.055 146.547H150.812V145.062H155.008V151.516H157.297V153H150.539V151.516H153.055V146.547ZM165.711 152.695C165.336 152.846 164.948 152.958 164.547 153.031C164.146 153.104 163.727 153.141 163.289 153.141C162.659 153.141 162.094 153.055 161.594 152.883C161.094 152.711 160.669 152.456 160.32 152.117C159.971 151.779 159.703 151.359 159.516 150.859C159.333 150.359 159.242 149.781 159.242 149.125C159.242 148.49 159.341 147.914 159.539 147.398C159.742 146.883 160.026 146.443 160.391 146.078C160.755 145.714 161.193 145.432 161.703 145.234C162.219 145.036 162.792 144.938 163.422 144.938C163.938 144.938 164.37 144.966 164.719 145.023C165.073 145.076 165.391 145.143 165.672 145.227V147.078C165.349 146.917 164.997 146.792 164.617 146.703C164.242 146.615 163.885 146.57 163.547 146.57C163.193 146.57 162.875 146.63 162.594 146.75C162.312 146.87 162.076 147.036 161.883 147.25C161.69 147.464 161.542 147.724 161.438 148.031C161.339 148.333 161.289 148.667 161.289 149.031C161.289 149.411 161.344 149.753 161.453 150.055C161.562 150.357 161.716 150.615 161.914 150.828C162.117 151.036 162.359 151.198 162.641 151.312C162.922 151.422 163.234 151.477 163.578 151.477C163.745 151.477 163.919 151.466 164.102 151.445C164.289 151.419 164.474 151.385 164.656 151.344C164.844 151.297 165.026 151.245 165.203 151.188C165.385 151.13 165.555 151.068 165.711 151V152.695ZM173.062 153L173.016 151.961C172.849 152.138 172.674 152.302 172.492 152.453C172.31 152.599 172.109 152.727 171.891 152.836C171.672 152.945 171.432 153.029 171.172 153.086C170.917 153.148 170.635 153.18 170.328 153.18C169.922 153.18 169.565 153.12 169.258 153C168.951 152.88 168.693 152.714 168.484 152.5C168.276 152.286 168.117 152.029 168.008 151.727C167.904 151.424 167.852 151.091 167.852 150.727C167.852 150.352 167.93 150.005 168.086 149.688C168.247 149.37 168.49 149.096 168.812 148.867C169.141 148.638 169.547 148.458 170.031 148.328C170.521 148.198 171.094 148.133 171.75 148.133H172.789V147.656C172.789 147.453 172.76 147.271 172.703 147.109C172.646 146.943 172.552 146.802 172.422 146.688C172.297 146.573 172.133 146.484 171.93 146.422C171.727 146.359 171.477 146.328 171.18 146.328C170.711 146.328 170.247 146.383 169.789 146.492C169.336 146.596 168.896 146.745 168.469 146.938V145.414C168.849 145.263 169.286 145.138 169.781 145.039C170.281 144.94 170.799 144.891 171.336 144.891C171.924 144.891 172.43 144.948 172.852 145.062C173.273 145.172 173.62 145.339 173.891 145.562C174.167 145.786 174.37 146.068 174.5 146.406C174.63 146.74 174.695 147.13 174.695 147.578V153H173.062ZM172.789 149.492H171.625C171.302 149.492 171.029 149.523 170.805 149.586C170.581 149.648 170.398 149.734 170.258 149.844C170.117 149.953 170.013 150.081 169.945 150.227C169.883 150.367 169.852 150.518 169.852 150.68C169.852 151.003 169.956 151.25 170.164 151.422C170.372 151.589 170.656 151.672 171.016 151.672C171.281 151.672 171.557 151.576 171.844 151.383C172.13 151.19 172.445 150.914 172.789 150.555V149.492ZM183.43 152.922C183.086 153 182.74 153.062 182.391 153.109C182.042 153.156 181.711 153.18 181.398 153.18C180.878 153.18 180.427 153.125 180.047 153.016C179.672 152.906 179.359 152.74 179.109 152.516C178.865 152.292 178.682 152.008 178.562 151.664C178.448 151.315 178.391 150.901 178.391 150.422V146.547H176.258V145.062H178.391V143.031L180.344 142.523V145.062H183.43V146.547H180.344V150.281C180.344 150.734 180.448 151.078 180.656 151.312C180.865 151.542 181.214 151.656 181.703 151.656C182.016 151.656 182.32 151.63 182.617 151.578C182.914 151.526 183.185 151.466 183.43 151.398V152.922ZM190.352 142.891C190.352 143.062 190.32 143.224 190.258 143.375C190.195 143.526 190.107 143.659 189.992 143.773C189.883 143.883 189.753 143.971 189.602 144.039C189.451 144.102 189.286 144.133 189.109 144.133C188.932 144.133 188.766 144.102 188.609 144.039C188.458 143.971 188.326 143.883 188.211 143.773C188.102 143.659 188.016 143.526 187.953 143.375C187.891 143.224 187.859 143.062 187.859 142.891C187.859 142.719 187.891 142.557 187.953 142.406C188.016 142.255 188.102 142.122 188.211 142.008C188.326 141.893 188.458 141.805 188.609 141.742C188.766 141.674 188.932 141.641 189.109 141.641C189.286 141.641 189.451 141.674 189.602 141.742C189.753 141.805 189.883 141.893 189.992 142.008C190.107 142.122 190.195 142.255 190.258 142.406C190.32 142.557 190.352 142.719 190.352 142.891ZM188.242 146.547H186V145.062H190.195V151.516H192.484V153H185.727V151.516H188.242V146.547ZM201.625 148.969C201.625 149.594 201.536 150.167 201.359 150.688C201.182 151.203 200.927 151.646 200.594 152.016C200.26 152.385 199.852 152.672 199.367 152.875C198.883 153.078 198.331 153.18 197.711 153.18C197.122 153.18 196.596 153.094 196.133 152.922C195.669 152.75 195.276 152.495 194.953 152.156C194.63 151.812 194.383 151.385 194.211 150.875C194.039 150.359 193.953 149.76 193.953 149.078C193.953 148.448 194.042 147.875 194.219 147.359C194.401 146.844 194.659 146.404 194.992 146.039C195.331 145.674 195.742 145.393 196.227 145.195C196.711 144.992 197.258 144.891 197.867 144.891C198.461 144.891 198.99 144.979 199.453 145.156C199.917 145.328 200.31 145.586 200.633 145.93C200.956 146.273 201.201 146.701 201.367 147.211C201.539 147.716 201.625 148.302 201.625 148.969ZM199.641 149.016C199.641 148.193 199.484 147.576 199.172 147.164C198.865 146.747 198.409 146.539 197.805 146.539C197.471 146.539 197.188 146.604 196.953 146.734C196.719 146.865 196.526 147.044 196.375 147.273C196.224 147.497 196.112 147.76 196.039 148.062C195.971 148.365 195.938 148.688 195.938 149.031C195.938 149.859 196.104 150.484 196.438 150.906C196.771 151.323 197.227 151.531 197.805 151.531C198.122 151.531 198.398 151.469 198.633 151.344C198.867 151.214 199.057 151.036 199.203 150.812C199.349 150.583 199.458 150.315 199.531 150.008C199.604 149.701 199.641 149.37 199.641 149.016ZM208.008 153V147.828C208.008 146.958 207.685 146.523 207.039 146.523C206.716 146.523 206.406 146.654 206.109 146.914C205.818 147.174 205.508 147.529 205.18 147.977V153H203.273V145.062H204.922L204.969 146.234C205.13 146.031 205.297 145.846 205.469 145.68C205.646 145.513 205.836 145.372 206.039 145.258C206.242 145.138 206.461 145.047 206.695 144.984C206.93 144.922 207.193 144.891 207.484 144.891C207.891 144.891 208.245 144.958 208.547 145.094C208.849 145.224 209.102 145.411 209.305 145.656C209.508 145.896 209.659 146.188 209.758 146.531C209.862 146.87 209.914 147.25 209.914 147.672V153H208.008ZM146.547 172V161.789H148.5V170.352H152.812V172H146.547ZM159.867 172L159.82 170.961C159.654 171.138 159.479 171.302 159.297 171.453C159.115 171.599 158.914 171.727 158.695 171.836C158.477 171.945 158.237 172.029 157.977 172.086C157.721 172.148 157.44 172.18 157.133 172.18C156.727 172.18 156.37 172.12 156.062 172C155.755 171.88 155.497 171.714 155.289 171.5C155.081 171.286 154.922 171.029 154.812 170.727C154.708 170.424 154.656 170.091 154.656 169.727C154.656 169.352 154.734 169.005 154.891 168.688C155.052 168.37 155.294 168.096 155.617 167.867C155.945 167.638 156.352 167.458 156.836 167.328C157.326 167.198 157.898 167.133 158.555 167.133H159.594V166.656C159.594 166.453 159.565 166.271 159.508 166.109C159.451 165.943 159.357 165.802 159.227 165.688C159.102 165.573 158.938 165.484 158.734 165.422C158.531 165.359 158.281 165.328 157.984 165.328C157.516 165.328 157.052 165.383 156.594 165.492C156.141 165.596 155.701 165.745 155.273 165.938V164.414C155.654 164.263 156.091 164.138 156.586 164.039C157.086 163.94 157.604 163.891 158.141 163.891C158.729 163.891 159.234 163.948 159.656 164.062C160.078 164.172 160.424 164.339 160.695 164.562C160.971 164.786 161.174 165.068 161.305 165.406C161.435 165.74 161.5 166.13 161.5 166.578V172H159.867ZM159.594 168.492H158.43C158.107 168.492 157.833 168.523 157.609 168.586C157.385 168.648 157.203 168.734 157.062 168.844C156.922 168.953 156.818 169.081 156.75 169.227C156.688 169.367 156.656 169.518 156.656 169.68C156.656 170.003 156.76 170.25 156.969 170.422C157.177 170.589 157.461 170.672 157.82 170.672C158.086 170.672 158.362 170.576 158.648 170.383C158.935 170.19 159.25 169.914 159.594 169.555V168.492ZM168.461 171.133C168.185 171.82 167.896 172.422 167.594 172.938C167.297 173.458 166.969 173.891 166.609 174.234C166.25 174.583 165.849 174.844 165.406 175.016C164.969 175.193 164.477 175.281 163.93 175.281C163.799 175.281 163.656 175.273 163.5 175.258C163.349 175.247 163.193 175.229 163.031 175.203V173.586C163.094 173.596 163.164 173.607 163.242 173.617C163.326 173.633 163.411 173.643 163.5 173.648C163.589 173.659 163.677 173.667 163.766 173.672C163.859 173.677 163.945 173.68 164.023 173.68C164.242 173.68 164.445 173.638 164.633 173.555C164.82 173.471 164.992 173.354 165.148 173.203C165.31 173.057 165.456 172.88 165.586 172.672C165.716 172.469 165.831 172.245 165.93 172L162.781 164.062H164.906L166.555 168.562L167.047 170.016L167.531 168.625L169.195 164.062H171.242L168.461 171.133ZM179.398 167.422C179.398 167.552 179.393 167.721 179.383 167.93C179.378 168.138 179.367 168.333 179.352 168.516H174.133C174.133 168.865 174.185 169.172 174.289 169.438C174.398 169.703 174.549 169.927 174.742 170.109C174.94 170.286 175.174 170.422 175.445 170.516C175.721 170.609 176.026 170.656 176.359 170.656C176.745 170.656 177.156 170.628 177.594 170.57C178.036 170.508 178.495 170.409 178.969 170.273V171.789C178.766 171.846 178.544 171.898 178.305 171.945C178.065 171.992 177.82 172.034 177.57 172.07C177.32 172.107 177.068 172.133 176.812 172.148C176.557 172.169 176.31 172.18 176.07 172.18C175.466 172.18 174.924 172.094 174.445 171.922C173.966 171.75 173.56 171.497 173.227 171.164C172.893 170.826 172.638 170.409 172.461 169.914C172.284 169.419 172.195 168.846 172.195 168.195C172.195 167.549 172.284 166.964 172.461 166.438C172.638 165.906 172.888 165.453 173.211 165.078C173.534 164.698 173.924 164.406 174.383 164.203C174.846 163.995 175.362 163.891 175.93 163.891C176.492 163.891 176.99 163.979 177.422 164.156C177.854 164.328 178.216 164.57 178.508 164.883C178.799 165.195 179.021 165.568 179.172 166C179.323 166.432 179.398 166.906 179.398 167.422ZM177.461 167.148C177.466 166.836 177.427 166.565 177.344 166.336C177.26 166.102 177.146 165.909 177 165.758C176.859 165.607 176.693 165.495 176.5 165.422C176.312 165.349 176.109 165.312 175.891 165.312C175.411 165.312 175.018 165.474 174.711 165.797C174.404 166.115 174.221 166.565 174.164 167.148H177.461ZM186.391 167.148C186.401 166.852 186.385 166.599 186.344 166.391C186.307 166.182 186.245 166.01 186.156 165.875C186.073 165.74 185.969 165.641 185.844 165.578C185.719 165.516 185.576 165.484 185.414 165.484C185.133 165.484 184.841 165.602 184.539 165.836C184.242 166.065 183.914 166.445 183.555 166.977V172H181.602V164.062H183.328L183.398 165.219C183.529 165.016 183.674 164.833 183.836 164.672C184.003 164.51 184.185 164.372 184.383 164.258C184.586 164.138 184.81 164.047 185.055 163.984C185.299 163.922 185.568 163.891 185.859 163.891C186.26 163.891 186.615 163.961 186.922 164.102C187.234 164.237 187.495 164.44 187.703 164.711C187.917 164.982 188.073 165.323 188.172 165.734C188.276 166.141 188.32 166.612 188.305 167.148H186.391Z" fill="black"/>
</svg>
