<svg width="512" height="213" viewBox="0 0 512 213" fill="none" xmlns="http://www.w3.org/2000/svg">
<circle cx="41" cy="41" r="38.5" fill="#7DE77B" stroke="black" stroke-width="5"/>
<circle cx="41" cy="41" r="26.5" fill="#FFFD54" fill-opacity="0.65" stroke="black" stroke-width="5"/>
<circle cx="40.5" cy="41.5" r="12" fill="#FFFD54" stroke="black" stroke-width="5"/>
<circle cx="41" cy="166" r="38.5" fill="#7DE77B" stroke="black" stroke-width="5"/>
<circle cx="41" cy="166" r="26.5" fill="#FFFD54" fill-opacity="0.65" stroke="black" stroke-width="5"/>
<circle cx="40.5" cy="166.5" r="12" fill="#FFFD54" stroke="black" stroke-width="5"/>
<circle cx="339" cy="44" r="38.5" fill="#7DE77B" stroke="black" stroke-width="5"/>
<circle cx="339" cy="44" r="26.5" fill="#FFFD54" fill-opacity="0.65" stroke="black" stroke-width="5"/>
<circle cx="338.5" cy="44.5" r="12" fill="#FFFD54" stroke="black" stroke-width="5"/>
<circle cx="339" cy="172" r="38.5" fill="#7DE77B" stroke="black" stroke-width="5"/>
<circle cx="339" cy="172" r="26.5" fill="#FFFD54" fill-opacity="0.65" stroke="black" stroke-width="5"/>
<circle cx="338.5" cy="172.5" r="12" fill="#FFFD54" stroke="black" stroke-width="5"/>
<path d="M436.453 158.894C436.453 159.951 436.309 160.882 436.021 161.687C435.742 162.482 435.336 163.146 434.803 163.68C434.278 164.213 433.635 164.615 432.873 164.886C432.111 165.157 431.257 165.292 430.309 165.292C429.242 165.292 428.328 165.157 427.566 164.886C426.805 164.615 426.187 164.226 425.713 163.718C425.239 163.21 424.896 162.592 424.685 161.864C424.473 161.136 424.367 160.32 424.367 159.414V148.407H427.49V159.224C427.49 159.782 427.537 160.277 427.63 160.709C427.731 161.141 427.901 161.509 428.138 161.813C428.383 162.11 428.688 162.334 429.052 162.486C429.416 162.639 429.873 162.715 430.423 162.715C430.939 162.715 431.375 162.651 431.73 162.524C432.086 162.389 432.382 162.177 432.619 161.89C432.856 161.593 433.034 161.217 433.152 160.76C433.271 160.303 433.33 159.748 433.33 159.097V148.407H436.453V158.894ZM449.961 161.204C449.961 161.94 449.796 162.571 449.466 163.096C449.144 163.612 448.713 164.035 448.171 164.365C447.638 164.687 447.028 164.92 446.343 165.063C445.666 165.216 444.972 165.292 444.261 165.292C443.313 165.292 442.458 165.245 441.696 165.152C440.935 165.068 440.215 164.941 439.538 164.771V161.979C440.334 162.309 441.125 162.55 441.912 162.702C442.708 162.846 443.457 162.918 444.159 162.918C444.972 162.918 445.577 162.791 445.975 162.537C446.381 162.275 446.584 161.936 446.584 161.521C446.584 161.327 446.542 161.149 446.457 160.988C446.372 160.827 446.212 160.675 445.975 160.531C445.746 160.379 445.42 160.227 444.997 160.074C444.574 159.913 444.02 159.736 443.334 159.541C442.699 159.363 442.141 159.164 441.658 158.944C441.184 158.716 440.791 158.449 440.478 158.145C440.164 157.84 439.927 157.489 439.767 157.091C439.614 156.685 439.538 156.211 439.538 155.669C439.538 155.144 439.657 154.649 439.894 154.184C440.131 153.718 440.482 153.312 440.947 152.965C441.421 152.609 442.009 152.33 442.712 152.127C443.414 151.924 444.235 151.822 445.175 151.822C445.987 151.822 446.707 151.865 447.333 151.949C447.959 152.034 448.514 152.127 448.996 152.229V154.755C448.26 154.518 447.566 154.353 446.914 154.26C446.271 154.158 445.632 154.107 444.997 154.107C444.362 154.107 443.85 154.222 443.461 154.45C443.08 154.679 442.89 154.996 442.89 155.402C442.89 155.597 442.928 155.771 443.004 155.923C443.08 156.075 443.228 156.223 443.448 156.367C443.677 156.511 443.99 156.663 444.388 156.824C444.794 156.977 445.327 157.146 445.987 157.332C446.732 157.544 447.358 157.772 447.866 158.018C448.374 158.255 448.78 158.525 449.085 158.83C449.398 159.135 449.622 159.482 449.758 159.871C449.893 160.26 449.961 160.705 449.961 161.204ZM464.853 157.561C464.853 157.772 464.844 158.047 464.827 158.386C464.819 158.724 464.802 159.042 464.776 159.338H456.296C456.296 159.905 456.381 160.404 456.55 160.836C456.728 161.268 456.973 161.632 457.286 161.928C457.608 162.215 457.989 162.436 458.429 162.588C458.877 162.74 459.372 162.816 459.914 162.816C460.54 162.816 461.209 162.77 461.92 162.677C462.639 162.575 463.384 162.414 464.154 162.194V164.657C463.824 164.75 463.465 164.835 463.075 164.911C462.686 164.987 462.288 165.055 461.882 165.114C461.476 165.174 461.065 165.216 460.65 165.241C460.236 165.275 459.834 165.292 459.444 165.292C458.463 165.292 457.582 165.152 456.804 164.873C456.025 164.594 455.365 164.183 454.823 163.642C454.282 163.091 453.867 162.414 453.579 161.61C453.291 160.806 453.147 159.875 453.147 158.817C453.147 157.768 453.291 156.816 453.579 155.961C453.867 155.098 454.273 154.361 454.798 153.752C455.323 153.134 455.957 152.66 456.702 152.33C457.455 151.992 458.293 151.822 459.216 151.822C460.13 151.822 460.938 151.966 461.641 152.254C462.343 152.533 462.931 152.927 463.405 153.435C463.879 153.942 464.239 154.548 464.484 155.25C464.73 155.952 464.853 156.723 464.853 157.561ZM461.704 157.116C461.713 156.608 461.649 156.168 461.514 155.796C461.378 155.415 461.192 155.102 460.955 154.856C460.727 154.611 460.456 154.429 460.143 154.311C459.838 154.192 459.508 154.133 459.152 154.133C458.374 154.133 457.735 154.395 457.235 154.92C456.736 155.436 456.44 156.168 456.347 157.116H461.704ZM476.215 157.116C476.232 156.634 476.206 156.223 476.139 155.885C476.079 155.546 475.978 155.267 475.834 155.047C475.699 154.827 475.529 154.666 475.326 154.564C475.123 154.463 474.89 154.412 474.628 154.412C474.171 154.412 473.697 154.603 473.206 154.983C472.724 155.356 472.19 155.974 471.606 156.837V165H468.433V152.102H471.238L471.353 153.98C471.564 153.65 471.801 153.354 472.063 153.092C472.334 152.829 472.631 152.605 472.952 152.419C473.282 152.224 473.646 152.076 474.044 151.975C474.442 151.873 474.878 151.822 475.352 151.822C476.003 151.822 476.579 151.937 477.078 152.165C477.586 152.385 478.009 152.715 478.348 153.155C478.695 153.595 478.949 154.15 479.109 154.818C479.279 155.479 479.351 156.244 479.325 157.116H476.215ZM492.846 161.204C492.846 161.94 492.681 162.571 492.351 163.096C492.029 163.612 491.597 164.035 491.056 164.365C490.522 164.687 489.913 164.92 489.228 165.063C488.55 165.216 487.856 165.292 487.146 165.292C486.198 165.292 485.343 165.245 484.581 165.152C483.819 165.068 483.1 164.941 482.423 164.771V161.979C483.218 162.309 484.01 162.55 484.797 162.702C485.592 162.846 486.341 162.918 487.044 162.918C487.856 162.918 488.462 162.791 488.859 162.537C489.266 162.275 489.469 161.936 489.469 161.521C489.469 161.327 489.426 161.149 489.342 160.988C489.257 160.827 489.096 160.675 488.859 160.531C488.631 160.379 488.305 160.227 487.882 160.074C487.459 159.913 486.904 159.736 486.219 159.541C485.584 159.363 485.025 159.164 484.543 158.944C484.069 158.716 483.675 158.449 483.362 158.145C483.049 157.84 482.812 157.489 482.651 157.091C482.499 156.685 482.423 156.211 482.423 155.669C482.423 155.144 482.541 154.649 482.778 154.184C483.015 153.718 483.367 153.312 483.832 152.965C484.306 152.609 484.894 152.33 485.597 152.127C486.299 151.924 487.12 151.822 488.06 151.822C488.872 151.822 489.591 151.865 490.218 151.949C490.844 152.034 491.398 152.127 491.881 152.229V154.755C491.145 154.518 490.451 154.353 489.799 154.26C489.156 154.158 488.517 154.107 487.882 154.107C487.247 154.107 486.735 154.222 486.346 154.45C485.965 154.679 485.774 154.996 485.774 155.402C485.774 155.597 485.812 155.771 485.889 155.923C485.965 156.075 486.113 156.223 486.333 156.367C486.562 156.511 486.875 156.663 487.272 156.824C487.679 156.977 488.212 157.146 488.872 157.332C489.617 157.544 490.243 157.772 490.751 158.018C491.259 158.255 491.665 158.525 491.97 158.83C492.283 159.135 492.507 159.482 492.643 159.871C492.778 160.26 492.846 160.705 492.846 161.204Z" fill="black"/>
<path d="M419.609 185.156C420.141 185.344 420.648 185.484 421.133 185.578C421.617 185.672 422.068 185.719 422.484 185.719C423.094 185.719 423.536 185.622 423.812 185.43C424.094 185.237 424.234 184.992 424.234 184.695C424.234 184.591 424.214 184.497 424.172 184.414C424.13 184.326 424.055 184.242 423.945 184.164C423.836 184.086 423.685 184.008 423.492 183.93C423.305 183.852 423.06 183.766 422.758 183.672C422.029 183.448 421.482 183.146 421.117 182.766C420.753 182.385 420.57 181.904 420.57 181.32C420.57 180.987 420.654 180.674 420.82 180.383C420.987 180.086 421.229 179.828 421.547 179.609C421.87 179.385 422.268 179.211 422.742 179.086C423.216 178.956 423.76 178.891 424.375 178.891C424.896 178.891 425.341 178.914 425.711 178.961C426.081 179.003 426.404 179.052 426.68 179.109V180.664C426.174 180.513 425.729 180.414 425.344 180.367C424.958 180.32 424.609 180.297 424.297 180.297C423.974 180.297 423.703 180.326 423.484 180.383C423.266 180.435 423.091 180.51 422.961 180.609C422.831 180.708 422.737 180.812 422.68 180.922C422.628 181.026 422.602 181.128 422.602 181.227C422.602 181.346 422.625 181.453 422.672 181.547C422.719 181.641 422.802 181.729 422.922 181.812C423.042 181.896 423.203 181.979 423.406 182.062C423.609 182.146 423.865 182.234 424.172 182.328C424.88 182.552 425.411 182.839 425.766 183.188C426.12 183.536 426.297 183.969 426.297 184.484C426.297 184.948 426.198 185.349 426 185.688C425.802 186.021 425.531 186.299 425.188 186.523C424.844 186.747 424.44 186.911 423.977 187.016C423.513 187.125 423.016 187.18 422.484 187.18C421.885 187.18 421.349 187.151 420.875 187.094C420.406 187.042 419.984 186.969 419.609 186.875V185.156ZM431.57 179.062L430.531 184.234C430.453 184.667 430.466 185 430.57 185.234C430.674 185.464 430.859 185.578 431.125 185.578C431.365 185.578 431.62 185.482 431.891 185.289C432.161 185.096 432.419 184.849 432.664 184.547C432.909 184.245 433.122 183.909 433.305 183.539C433.492 183.169 433.62 182.807 433.688 182.453L434.359 179.062H436.258L435.414 183.305C435.383 183.471 435.352 183.651 435.32 183.844C435.289 184.031 435.255 184.266 435.219 184.547C435.188 184.823 435.151 185.159 435.109 185.555C435.068 185.951 435.021 186.432 434.969 187H433.414L433.477 185.562C433.357 185.745 433.206 185.932 433.023 186.125C432.841 186.312 432.628 186.484 432.383 186.641C432.143 186.797 431.875 186.924 431.578 187.023C431.286 187.128 430.969 187.18 430.625 187.18C430.203 187.18 429.844 187.109 429.547 186.969C429.255 186.828 429.023 186.63 428.852 186.375C428.685 186.115 428.581 185.802 428.539 185.438C428.503 185.068 428.531 184.656 428.625 184.203L429.672 179.062H431.57ZM444.867 181.641C444.867 182.443 444.76 183.18 444.547 183.852C444.333 184.523 444.023 185.104 443.617 185.594C443.211 186.078 442.714 186.458 442.125 186.734C441.536 187.005 440.867 187.141 440.117 187.141C439.779 187.141 439.466 187.128 439.18 187.102C438.893 187.081 438.62 187.049 438.359 187.008C438.104 186.966 437.859 186.917 437.625 186.859C437.396 186.802 437.169 186.737 436.945 186.664L439.086 175.961H440.992L440.453 178.68L439.891 180.328C440.031 180.104 440.198 179.904 440.391 179.727C440.583 179.549 440.794 179.398 441.023 179.273C441.253 179.148 441.492 179.055 441.742 178.992C441.997 178.924 442.255 178.891 442.516 178.891C443.286 178.891 443.87 179.13 444.266 179.609C444.667 180.089 444.867 180.766 444.867 181.641ZM442.883 181.766C442.883 181.349 442.81 181.031 442.664 180.812C442.523 180.594 442.307 180.484 442.016 180.484C441.854 180.484 441.685 180.529 441.508 180.617C441.336 180.706 441.161 180.828 440.984 180.984C440.812 181.135 440.643 181.315 440.477 181.523C440.315 181.727 440.164 181.945 440.023 182.18C439.888 182.409 439.771 182.646 439.672 182.891C439.573 183.135 439.503 183.375 439.461 183.609L439.086 185.477C439.253 185.534 439.424 185.578 439.602 185.609C439.779 185.641 439.966 185.656 440.164 185.656C440.534 185.656 440.857 185.591 441.133 185.461C441.414 185.326 441.654 185.151 441.852 184.938C442.055 184.719 442.221 184.471 442.352 184.195C442.487 183.919 442.594 183.638 442.672 183.352C442.75 183.065 442.805 182.784 442.836 182.508C442.867 182.232 442.883 181.984 442.883 181.766ZM450.625 178.922C450.906 178.922 451.154 178.935 451.367 178.961C451.581 178.987 451.776 179.016 451.953 179.047L452.578 175.961H454.477L453.008 183.305C452.977 183.471 452.945 183.651 452.914 183.844C452.883 184.031 452.849 184.266 452.812 184.547C452.781 184.823 452.745 185.159 452.703 185.555C452.661 185.951 452.615 186.432 452.562 187H451.008L451.07 185.562C450.951 185.745 450.799 185.932 450.617 186.125C450.435 186.312 450.221 186.484 449.977 186.641C449.737 186.797 449.469 186.924 449.172 187.023C448.88 187.128 448.562 187.18 448.219 187.18C447.448 187.18 446.862 186.94 446.461 186.461C446.065 185.982 445.867 185.302 445.867 184.422C445.867 183.625 445.974 182.891 446.188 182.219C446.401 181.542 446.711 180.961 447.117 180.477C447.523 179.987 448.021 179.607 448.609 179.336C449.203 179.06 449.875 178.922 450.625 178.922ZM447.852 184.297C447.852 184.714 447.922 185.031 448.062 185.25C448.208 185.469 448.427 185.578 448.719 185.578C448.958 185.578 449.214 185.482 449.484 185.289C449.755 185.096 450.013 184.849 450.258 184.547C450.503 184.245 450.716 183.909 450.898 183.539C451.086 183.169 451.214 182.807 451.281 182.453L451.648 180.586C451.534 180.544 451.383 180.505 451.195 180.469C451.008 180.427 450.802 180.406 450.578 180.406C450.208 180.406 449.883 180.474 449.602 180.609C449.326 180.74 449.086 180.914 448.883 181.133C448.68 181.346 448.51 181.591 448.375 181.867C448.245 182.143 448.141 182.424 448.062 182.711C447.984 182.997 447.93 183.281 447.898 183.562C447.867 183.839 447.852 184.083 447.852 184.297ZM457.836 187.18C457.341 187.18 456.896 187.12 456.5 187C456.104 186.875 455.766 186.69 455.484 186.445C455.208 186.195 454.995 185.883 454.844 185.508C454.693 185.128 454.617 184.682 454.617 184.172C454.617 183.724 454.664 183.284 454.758 182.852C454.857 182.414 454.997 182 455.18 181.609C455.367 181.214 455.594 180.852 455.859 180.523C456.13 180.19 456.44 179.904 456.789 179.664C457.143 179.419 457.531 179.229 457.953 179.094C458.38 178.958 458.841 178.891 459.336 178.891C459.826 178.891 460.268 178.953 460.664 179.078C461.065 179.198 461.404 179.383 461.68 179.633C461.961 179.878 462.177 180.19 462.328 180.57C462.479 180.945 462.555 181.388 462.555 181.898C462.555 182.346 462.505 182.789 462.406 183.227C462.312 183.659 462.174 184.07 461.992 184.461C461.81 184.852 461.583 185.214 461.312 185.547C461.042 185.88 460.732 186.169 460.383 186.414C460.034 186.654 459.646 186.841 459.219 186.977C458.792 187.112 458.331 187.18 457.836 187.18ZM460.555 182.086C460.555 181.57 460.427 181.185 460.172 180.93C459.922 180.669 459.56 180.539 459.086 180.539C458.805 180.539 458.549 180.594 458.32 180.703C458.091 180.807 457.883 180.948 457.695 181.125C457.513 181.302 457.354 181.508 457.219 181.742C457.083 181.977 456.971 182.221 456.883 182.477C456.794 182.732 456.727 182.99 456.68 183.25C456.638 183.505 456.617 183.747 456.617 183.977C456.617 184.492 456.745 184.88 457 185.141C457.255 185.401 457.62 185.531 458.094 185.531C458.375 185.531 458.63 185.479 458.859 185.375C459.089 185.266 459.294 185.122 459.477 184.945C459.659 184.763 459.818 184.557 459.953 184.328C460.089 184.094 460.201 183.849 460.289 183.594C460.378 183.339 460.443 183.081 460.484 182.82C460.531 182.56 460.555 182.315 460.555 182.086ZM468.875 187L469.961 181.594C470.034 181.198 470.068 180.901 470.062 180.703C470.062 180.505 469.992 180.406 469.852 180.406C469.737 180.406 469.596 180.484 469.43 180.641C469.268 180.797 469.107 180.997 468.945 181.242C468.784 181.487 468.633 181.763 468.492 182.07C468.357 182.372 468.26 182.672 468.203 182.969L467.398 187H465.766L466.859 181.594C466.932 181.198 466.966 180.901 466.961 180.703C466.961 180.505 466.888 180.406 466.742 180.406C466.643 180.406 466.513 180.484 466.352 180.641C466.19 180.797 466.026 180.997 465.859 181.242C465.693 181.487 465.539 181.763 465.398 182.07C465.258 182.372 465.156 182.672 465.094 182.969L464.297 187H462.648L463.5 182.758C463.531 182.596 463.56 182.419 463.586 182.227C463.617 182.034 463.648 181.799 463.68 181.523C463.716 181.242 463.755 180.904 463.797 180.508C463.839 180.112 463.888 179.63 463.945 179.062H465.352L465.305 180.344L465.461 180.117C465.779 179.695 466.078 179.388 466.359 179.195C466.641 179.003 466.945 178.906 467.273 178.906C467.659 178.906 467.945 178.997 468.133 179.18C468.326 179.362 468.422 179.617 468.422 179.945C468.422 180.003 468.417 180.065 468.406 180.133C468.401 180.201 468.391 180.271 468.375 180.344C468.542 180.109 468.701 179.904 468.852 179.727C469.008 179.544 469.164 179.393 469.32 179.273C469.477 179.148 469.635 179.057 469.797 179C469.964 178.938 470.141 178.906 470.328 178.906C470.901 178.906 471.305 179.117 471.539 179.539C471.773 179.956 471.802 180.596 471.625 181.461L470.523 187H468.875ZM474.609 187.18C473.839 187.18 473.253 186.94 472.852 186.461C472.456 185.982 472.258 185.302 472.258 184.422C472.258 183.625 472.365 182.891 472.578 182.219C472.792 181.542 473.102 180.961 473.508 180.477C473.914 179.987 474.411 179.607 475 179.336C475.594 179.06 476.266 178.922 477.016 178.922C477.417 178.922 477.773 178.951 478.086 179.008C478.404 179.06 478.68 179.122 478.914 179.195L480.273 178.906L479.398 183.305C479.367 183.471 479.336 183.651 479.305 183.844C479.273 184.031 479.24 184.266 479.203 184.547C479.172 184.823 479.135 185.159 479.094 185.555C479.052 185.951 479.005 186.432 478.953 187H477.398L477.461 185.562C477.341 185.745 477.19 185.932 477.008 186.125C476.826 186.312 476.612 186.484 476.367 186.641C476.128 186.797 475.859 186.924 475.562 187.023C475.271 187.128 474.953 187.18 474.609 187.18ZM478.039 180.586C477.872 180.529 477.701 180.484 477.523 180.453C477.352 180.422 477.167 180.406 476.969 180.406C476.599 180.406 476.273 180.474 475.992 180.609C475.716 180.74 475.477 180.914 475.273 181.133C475.07 181.346 474.901 181.591 474.766 181.867C474.635 182.143 474.531 182.424 474.453 182.711C474.375 182.997 474.32 183.281 474.289 183.562C474.258 183.839 474.242 184.083 474.242 184.297C474.242 184.714 474.312 185.031 474.453 185.25C474.599 185.469 474.818 185.578 475.109 185.578C475.349 185.578 475.604 185.482 475.875 185.289C476.146 185.096 476.404 184.849 476.648 184.547C476.893 184.245 477.107 183.909 477.289 183.539C477.477 183.169 477.604 182.807 477.672 182.453L478.039 180.586ZM485.695 184.344C485.602 184.839 485.604 185.188 485.703 185.391C485.802 185.589 485.997 185.688 486.289 185.688C486.534 185.688 486.805 185.635 487.102 185.531C487.398 185.422 487.737 185.276 488.117 185.094V186.555C487.779 186.737 487.414 186.885 487.023 187C486.638 187.12 486.245 187.18 485.844 187.18C484.953 187.18 484.333 186.951 483.984 186.492C483.635 186.029 483.562 185.292 483.766 184.281L484.273 181.719C484.372 181.224 484.37 180.878 484.266 180.68C484.161 180.477 483.966 180.375 483.68 180.375C483.44 180.375 483.169 180.43 482.867 180.539C482.57 180.643 482.234 180.786 481.859 180.969V179.508C482.198 179.32 482.56 179.169 482.945 179.055C483.331 178.94 483.727 178.883 484.133 178.883C485.018 178.883 485.635 179.115 485.984 179.578C486.333 180.042 486.409 180.776 486.211 181.781L485.695 184.344ZM487.266 176.82C487.266 177.008 487.229 177.182 487.156 177.344C487.083 177.505 486.984 177.646 486.859 177.766C486.74 177.88 486.599 177.971 486.438 178.039C486.281 178.102 486.115 178.133 485.938 178.133C485.755 178.133 485.589 178.102 485.438 178.039C485.286 177.971 485.156 177.885 485.047 177.781C484.938 177.672 484.852 177.547 484.789 177.406C484.732 177.26 484.703 177.109 484.703 176.953C484.703 176.766 484.74 176.594 484.812 176.438C484.885 176.276 484.984 176.138 485.109 176.023C485.234 175.904 485.378 175.81 485.539 175.742C485.701 175.674 485.87 175.641 486.047 175.641C486.234 175.641 486.401 175.674 486.547 175.742C486.698 175.805 486.826 175.891 486.93 176C487.039 176.109 487.122 176.234 487.18 176.375C487.237 176.516 487.266 176.664 487.266 176.82ZM494.398 187L495.438 181.828C495.521 181.396 495.508 181.065 495.398 180.836C495.294 180.602 495.109 180.484 494.844 180.484C494.688 180.484 494.521 180.529 494.344 180.617C494.167 180.706 493.99 180.828 493.812 180.984C493.641 181.135 493.471 181.315 493.305 181.523C493.143 181.727 492.995 181.945 492.859 182.18C492.724 182.409 492.607 182.646 492.508 182.891C492.409 183.135 492.336 183.375 492.289 183.609L491.617 187H489.711L490.562 182.758C490.594 182.596 490.622 182.419 490.648 182.227C490.68 182.034 490.711 181.799 490.742 181.523C490.779 181.242 490.818 180.904 490.859 180.508C490.901 180.112 490.951 179.63 491.008 179.062H492.562L492.492 180.508C492.612 180.326 492.763 180.141 492.945 179.953C493.133 179.76 493.346 179.586 493.586 179.43C493.831 179.273 494.099 179.146 494.391 179.047C494.688 178.943 495.005 178.891 495.344 178.891C495.766 178.891 496.122 178.961 496.414 179.102C496.711 179.237 496.943 179.435 497.109 179.695C497.276 179.951 497.38 180.263 497.422 180.633C497.464 180.997 497.438 181.409 497.344 181.867L496.305 187H494.398Z" fill="black"/>
<path d="M116.105 37V20.4072H121.463C123.35 20.4072 124.764 20.7373 125.703 21.3975C126.651 22.0576 127.125 23.0563 127.125 24.3936C127.125 24.8083 127.074 25.2145 126.973 25.6123C126.88 26.0016 126.731 26.3613 126.528 26.6914C126.325 27.0215 126.071 27.3135 125.767 27.5674C125.462 27.8213 125.102 28.0202 124.688 28.1641C125.102 28.2318 125.496 28.3672 125.868 28.5703C126.249 28.765 126.579 29.0231 126.858 29.3447C127.146 29.6579 127.37 30.0303 127.531 30.4619C127.701 30.8936 127.785 31.376 127.785 31.9092C127.785 33.6019 127.218 34.8757 126.084 35.7305C124.95 36.5768 123.312 37 121.171 37H116.105ZM123.875 24.9395C123.875 24.6263 123.824 24.3428 123.723 24.0889C123.621 23.835 123.456 23.6191 123.228 23.4414C123.007 23.2637 122.72 23.1283 122.364 23.0352C122.017 22.9336 121.594 22.8828 121.095 22.8828H119.203V27.2754H121.095C121.603 27.2754 122.03 27.2161 122.377 27.0977C122.732 26.9707 123.02 26.8014 123.24 26.5898C123.469 26.3698 123.63 26.1201 123.723 25.8408C123.824 25.5615 123.875 25.2611 123.875 24.9395ZM121.387 34.4482C121.886 34.4482 122.322 34.3848 122.694 34.2578C123.075 34.1309 123.393 33.9574 123.646 33.7373C123.9 33.5088 124.091 33.2422 124.218 32.9375C124.353 32.6328 124.421 32.307 124.421 31.96C124.421 31.2406 124.15 30.6777 123.608 30.2715C123.075 29.8652 122.254 29.6621 121.146 29.6621H119.203V34.4482H121.387ZM138.119 20.5723C138.119 20.8516 138.068 21.1139 137.967 21.3594C137.865 21.6048 137.721 21.8206 137.535 22.0068C137.357 22.1846 137.146 22.3285 136.9 22.4385C136.655 22.54 136.388 22.5908 136.101 22.5908C135.813 22.5908 135.542 22.54 135.288 22.4385C135.043 22.3285 134.827 22.1846 134.641 22.0068C134.463 21.8206 134.323 21.6048 134.222 21.3594C134.12 21.1139 134.069 20.8516 134.069 20.5723C134.069 20.293 134.12 20.0306 134.222 19.7852C134.323 19.5397 134.463 19.3239 134.641 19.1377C134.827 18.9515 135.043 18.8076 135.288 18.7061C135.542 18.596 135.813 18.541 136.101 18.541C136.388 18.541 136.655 18.596 136.9 18.7061C137.146 18.8076 137.357 18.9515 137.535 19.1377C137.721 19.3239 137.865 19.5397 137.967 19.7852C138.068 20.0306 138.119 20.293 138.119 20.5723ZM134.691 26.5137H131.048V24.1016H137.865V34.5879H141.585V37H130.604V34.5879H134.691V26.5137ZM148.986 21.4736H145.343V19.0615H152.16V34.5879H155.88V37H144.898V34.5879H148.986V21.4736ZM163.281 21.4736H159.638V19.0615H166.455V34.5879H170.175V37H159.193V34.5879H163.281V21.4736ZM181.004 20.5723C181.004 20.8516 180.953 21.1139 180.852 21.3594C180.75 21.6048 180.606 21.8206 180.42 22.0068C180.242 22.1846 180.031 22.3285 179.785 22.4385C179.54 22.54 179.273 22.5908 178.985 22.5908C178.698 22.5908 178.427 22.54 178.173 22.4385C177.927 22.3285 177.712 22.1846 177.525 22.0068C177.348 21.8206 177.208 21.6048 177.106 21.3594C177.005 21.1139 176.954 20.8516 176.954 20.5723C176.954 20.293 177.005 20.0306 177.106 19.7852C177.208 19.5397 177.348 19.3239 177.525 19.1377C177.712 18.9515 177.927 18.8076 178.173 18.7061C178.427 18.596 178.698 18.541 178.985 18.541C179.273 18.541 179.54 18.596 179.785 18.7061C180.031 18.8076 180.242 18.9515 180.42 19.1377C180.606 19.3239 180.75 19.5397 180.852 19.7852C180.953 20.0306 181.004 20.293 181.004 20.5723ZM177.576 26.5137H173.933V24.1016H180.75V34.5879H184.47V37H173.488V34.5879H177.576V26.5137ZM195.4 37V28.5957C195.4 27.1823 194.876 26.4756 193.826 26.4756C193.301 26.4756 192.798 26.6872 192.315 27.1104C191.841 27.5335 191.338 28.109 190.805 28.8369V37H187.707V24.1016H190.386L190.462 26.0059C190.724 25.6758 190.995 25.3753 191.274 25.1045C191.562 24.8337 191.871 24.6051 192.201 24.4189C192.531 24.2243 192.887 24.0762 193.268 23.9746C193.648 23.873 194.076 23.8223 194.55 23.8223C195.21 23.8223 195.785 23.9323 196.276 24.1523C196.767 24.3639 197.178 24.6686 197.508 25.0664C197.838 25.4557 198.083 25.9297 198.244 26.4883C198.413 27.0384 198.498 27.6562 198.498 28.3418V37H195.4ZM211.676 26.3613C211.913 26.6576 212.078 26.9707 212.171 27.3008C212.272 27.6224 212.323 27.9525 212.323 28.291C212.323 29.0104 212.196 29.6452 211.942 30.1953C211.697 30.7454 211.346 31.2067 210.889 31.5791C210.44 31.9515 209.898 32.235 209.264 32.4297C208.637 32.6159 207.943 32.709 207.182 32.709C206.733 32.709 206.318 32.6667 205.938 32.582C205.557 32.4889 205.269 32.3831 205.074 32.2646C204.93 32.4085 204.808 32.5693 204.706 32.7471C204.604 32.9163 204.554 33.111 204.554 33.3311C204.554 33.4665 204.588 33.6019 204.655 33.7373C204.723 33.8727 204.82 33.9954 204.947 34.1055C205.083 34.207 205.239 34.2917 205.417 34.3594C205.603 34.4271 205.811 34.4652 206.039 34.4736L209.099 34.5879C209.784 34.6048 210.402 34.6937 210.952 34.8545C211.511 35.0068 211.989 35.2269 212.387 35.5146C212.785 35.8024 213.089 36.1536 213.301 36.5684C213.521 36.9746 213.631 37.4401 213.631 37.9648C213.631 38.5658 213.495 39.1328 213.225 39.666C212.954 40.1992 212.543 40.6605 211.993 41.0498C211.451 41.4476 210.774 41.7607 209.962 41.9893C209.149 42.2178 208.206 42.332 207.131 42.332C206.09 42.332 205.193 42.2474 204.439 42.0781C203.695 41.9173 203.081 41.6888 202.599 41.3926C202.125 41.0964 201.773 40.7409 201.545 40.3262C201.316 39.9199 201.202 39.4714 201.202 38.9805C201.202 38.6842 201.24 38.4092 201.316 38.1553C201.393 37.9014 201.507 37.6559 201.659 37.4189C201.812 37.1904 202.002 36.9661 202.23 36.7461C202.459 36.526 202.73 36.306 203.043 36.0859C202.628 35.849 202.311 35.5443 202.091 35.1719C201.879 34.7995 201.773 34.4017 201.773 33.9785C201.773 33.6908 201.812 33.4242 201.888 33.1787C201.964 32.9248 202.061 32.6836 202.18 32.4551C202.307 32.2266 202.451 32.0065 202.611 31.7949C202.772 31.5833 202.941 31.376 203.119 31.1729C202.806 30.8597 202.544 30.4831 202.332 30.043C202.129 29.5944 202.027 29.0358 202.027 28.3672C202.027 27.6478 202.154 27.0088 202.408 26.4502C202.671 25.8831 203.03 25.4092 203.487 25.0283C203.944 24.639 204.486 24.347 205.112 24.1523C205.747 23.9492 206.437 23.8477 207.182 23.8477C207.562 23.8477 207.926 23.8688 208.273 23.9111C208.629 23.945 208.951 24.0085 209.238 24.1016H213.707V26.3613H211.676ZM204.376 38.7139C204.376 39.2132 204.626 39.5814 205.125 39.8184C205.633 40.0553 206.344 40.1738 207.258 40.1738C207.842 40.1738 208.333 40.1188 208.73 40.0088C209.137 39.8988 209.467 39.7549 209.721 39.5771C209.975 39.3994 210.157 39.1921 210.267 38.9551C210.377 38.7181 210.432 38.4727 210.432 38.2188C210.432 37.9902 210.377 37.7956 210.267 37.6348C210.165 37.4824 210.017 37.3512 209.822 37.2412C209.636 37.1396 209.412 37.0592 209.149 37C208.896 36.9492 208.612 36.9154 208.299 36.8984L205.569 36.8477C205.324 37.0169 205.121 37.1777 204.96 37.3301C204.808 37.4824 204.685 37.6305 204.592 37.7744C204.507 37.9268 204.448 38.0791 204.414 38.2314C204.389 38.3838 204.376 38.5446 204.376 38.7139ZM204.896 28.3672C204.896 29.0527 205.095 29.5986 205.493 30.0049C205.899 30.4027 206.462 30.6016 207.182 30.6016C207.562 30.6016 207.893 30.5381 208.172 30.4111C208.46 30.2842 208.697 30.1149 208.883 29.9033C209.069 29.6917 209.209 29.4463 209.302 29.167C209.395 28.8877 209.441 28.5957 209.441 28.291C209.441 27.5716 209.238 27.013 208.832 26.6152C208.434 26.209 207.876 26.0059 207.156 26.0059C206.775 26.0059 206.441 26.0693 206.153 26.1963C205.874 26.3232 205.641 26.4967 205.455 26.7168C205.269 26.9284 205.129 27.1781 205.036 27.4658C204.943 27.7536 204.896 28.054 204.896 28.3672Z" fill="black"/>
<path d="M124.609 57.1562C125.141 57.3438 125.648 57.4844 126.133 57.5781C126.617 57.6719 127.068 57.7188 127.484 57.7188C128.094 57.7188 128.536 57.6224 128.812 57.4297C129.094 57.237 129.234 56.9922 129.234 56.6953C129.234 56.5911 129.214 56.4974 129.172 56.4141C129.13 56.3255 129.055 56.2422 128.945 56.1641C128.836 56.0859 128.685 56.0078 128.492 55.9297C128.305 55.8516 128.06 55.7656 127.758 55.6719C127.029 55.4479 126.482 55.1458 126.117 54.7656C125.753 54.3854 125.57 53.9036 125.57 53.3203C125.57 52.987 125.654 52.6745 125.82 52.3828C125.987 52.0859 126.229 51.8281 126.547 51.6094C126.87 51.3854 127.268 51.2109 127.742 51.0859C128.216 50.9557 128.76 50.8906 129.375 50.8906C129.896 50.8906 130.341 50.9141 130.711 50.9609C131.081 51.0026 131.404 51.0521 131.68 51.1094V52.6641C131.174 52.513 130.729 52.4141 130.344 52.3672C129.958 52.3203 129.609 52.2969 129.297 52.2969C128.974 52.2969 128.703 52.3255 128.484 52.3828C128.266 52.4349 128.091 52.5104 127.961 52.6094C127.831 52.7083 127.737 52.8125 127.68 52.9219C127.628 53.026 127.602 53.1276 127.602 53.2266C127.602 53.3464 127.625 53.4531 127.672 53.5469C127.719 53.6406 127.802 53.7292 127.922 53.8125C128.042 53.8958 128.203 53.9792 128.406 54.0625C128.609 54.1458 128.865 54.2344 129.172 54.3281C129.88 54.5521 130.411 54.8385 130.766 55.1875C131.12 55.5365 131.297 55.9688 131.297 56.4844C131.297 56.9479 131.198 57.349 131 57.6875C130.802 58.0208 130.531 58.2995 130.188 58.5234C129.844 58.7474 129.44 58.9115 128.977 59.0156C128.513 59.125 128.016 59.1797 127.484 59.1797C126.885 59.1797 126.349 59.151 125.875 59.0938C125.406 59.0417 124.984 58.9688 124.609 58.875V57.1562ZM136.57 51.0625L135.531 56.2344C135.453 56.6667 135.466 57 135.57 57.2344C135.674 57.4635 135.859 57.5781 136.125 57.5781C136.365 57.5781 136.62 57.4818 136.891 57.2891C137.161 57.0964 137.419 56.849 137.664 56.5469C137.909 56.2448 138.122 55.9089 138.305 55.5391C138.492 55.1693 138.62 54.8073 138.688 54.4531L139.359 51.0625H141.258L140.414 55.3047C140.383 55.4714 140.352 55.651 140.32 55.8438C140.289 56.0312 140.255 56.2656 140.219 56.5469C140.188 56.8229 140.151 57.1589 140.109 57.5547C140.068 57.9505 140.021 58.4323 139.969 59H138.414L138.477 57.5625C138.357 57.7448 138.206 57.9323 138.023 58.125C137.841 58.3125 137.628 58.4844 137.383 58.6406C137.143 58.7969 136.875 58.9245 136.578 59.0234C136.286 59.1276 135.969 59.1797 135.625 59.1797C135.203 59.1797 134.844 59.1094 134.547 58.9688C134.255 58.8281 134.023 58.6302 133.852 58.375C133.685 58.1146 133.581 57.8021 133.539 57.4375C133.503 57.0677 133.531 56.6562 133.625 56.2031L134.672 51.0625H136.57ZM149.867 53.6406C149.867 54.4427 149.76 55.1797 149.547 55.8516C149.333 56.5234 149.023 57.1042 148.617 57.5938C148.211 58.0781 147.714 58.4583 147.125 58.7344C146.536 59.0052 145.867 59.1406 145.117 59.1406C144.779 59.1406 144.466 59.1276 144.18 59.1016C143.893 59.0807 143.62 59.0495 143.359 59.0078C143.104 58.9661 142.859 58.9167 142.625 58.8594C142.396 58.8021 142.169 58.737 141.945 58.6641L144.086 47.9609H145.992L145.453 50.6797L144.891 52.3281C145.031 52.1042 145.198 51.9036 145.391 51.7266C145.583 51.5495 145.794 51.3984 146.023 51.2734C146.253 51.1484 146.492 51.0547 146.742 50.9922C146.997 50.9245 147.255 50.8906 147.516 50.8906C148.286 50.8906 148.87 51.1302 149.266 51.6094C149.667 52.0885 149.867 52.7656 149.867 53.6406ZM147.883 53.7656C147.883 53.349 147.81 53.0312 147.664 52.8125C147.523 52.5938 147.307 52.4844 147.016 52.4844C146.854 52.4844 146.685 52.5286 146.508 52.6172C146.336 52.7057 146.161 52.8281 145.984 52.9844C145.812 53.1354 145.643 53.3151 145.477 53.5234C145.315 53.7266 145.164 53.9453 145.023 54.1797C144.888 54.4089 144.771 54.6458 144.672 54.8906C144.573 55.1354 144.503 55.375 144.461 55.6094L144.086 57.4766C144.253 57.5339 144.424 57.5781 144.602 57.6094C144.779 57.6406 144.966 57.6562 145.164 57.6562C145.534 57.6562 145.857 57.5911 146.133 57.4609C146.414 57.3255 146.654 57.151 146.852 56.9375C147.055 56.7188 147.221 56.4714 147.352 56.1953C147.487 55.9193 147.594 55.638 147.672 55.3516C147.75 55.0651 147.805 54.7839 147.836 54.5078C147.867 54.2318 147.883 53.9844 147.883 53.7656ZM155.625 50.9219C155.906 50.9219 156.154 50.9349 156.367 50.9609C156.581 50.987 156.776 51.0156 156.953 51.0469L157.578 47.9609H159.477L158.008 55.3047C157.977 55.4714 157.945 55.651 157.914 55.8438C157.883 56.0312 157.849 56.2656 157.812 56.5469C157.781 56.8229 157.745 57.1589 157.703 57.5547C157.661 57.9505 157.615 58.4323 157.562 59H156.008L156.07 57.5625C155.951 57.7448 155.799 57.9323 155.617 58.125C155.435 58.3125 155.221 58.4844 154.977 58.6406C154.737 58.7969 154.469 58.9245 154.172 59.0234C153.88 59.1276 153.562 59.1797 153.219 59.1797C152.448 59.1797 151.862 58.9401 151.461 58.4609C151.065 57.9818 150.867 57.3021 150.867 56.4219C150.867 55.625 150.974 54.8906 151.188 54.2188C151.401 53.5417 151.711 52.9609 152.117 52.4766C152.523 51.987 153.021 51.6068 153.609 51.3359C154.203 51.0599 154.875 50.9219 155.625 50.9219ZM152.852 56.2969C152.852 56.7135 152.922 57.0312 153.062 57.25C153.208 57.4688 153.427 57.5781 153.719 57.5781C153.958 57.5781 154.214 57.4818 154.484 57.2891C154.755 57.0964 155.013 56.849 155.258 56.5469C155.503 56.2448 155.716 55.9089 155.898 55.5391C156.086 55.1693 156.214 54.8073 156.281 54.4531L156.648 52.5859C156.534 52.5443 156.383 52.5052 156.195 52.4688C156.008 52.4271 155.802 52.4062 155.578 52.4062C155.208 52.4062 154.883 52.474 154.602 52.6094C154.326 52.7396 154.086 52.9141 153.883 53.1328C153.68 53.3464 153.51 53.5911 153.375 53.8672C153.245 54.1432 153.141 54.4245 153.062 54.7109C152.984 54.9974 152.93 55.2812 152.898 55.5625C152.867 55.8385 152.852 56.0833 152.852 56.2969ZM162.836 59.1797C162.341 59.1797 161.896 59.1198 161.5 59C161.104 58.875 160.766 58.6901 160.484 58.4453C160.208 58.1953 159.995 57.8828 159.844 57.5078C159.693 57.1276 159.617 56.6823 159.617 56.1719C159.617 55.724 159.664 55.2839 159.758 54.8516C159.857 54.4141 159.997 54 160.18 53.6094C160.367 53.2135 160.594 52.8516 160.859 52.5234C161.13 52.1901 161.44 51.9036 161.789 51.6641C162.143 51.4193 162.531 51.2292 162.953 51.0938C163.38 50.9583 163.841 50.8906 164.336 50.8906C164.826 50.8906 165.268 50.9531 165.664 51.0781C166.065 51.1979 166.404 51.3828 166.68 51.6328C166.961 51.8776 167.177 52.1901 167.328 52.5703C167.479 52.9453 167.555 53.388 167.555 53.8984C167.555 54.3464 167.505 54.7891 167.406 55.2266C167.312 55.6589 167.174 56.0703 166.992 56.4609C166.81 56.8516 166.583 57.2135 166.312 57.5469C166.042 57.8802 165.732 58.1693 165.383 58.4141C165.034 58.6536 164.646 58.8411 164.219 58.9766C163.792 59.112 163.331 59.1797 162.836 59.1797ZM165.555 54.0859C165.555 53.5703 165.427 53.1849 165.172 52.9297C164.922 52.6693 164.56 52.5391 164.086 52.5391C163.805 52.5391 163.549 52.5938 163.32 52.7031C163.091 52.8073 162.883 52.9479 162.695 53.125C162.513 53.3021 162.354 53.5078 162.219 53.7422C162.083 53.9766 161.971 54.2214 161.883 54.4766C161.794 54.7318 161.727 54.9896 161.68 55.25C161.638 55.5052 161.617 55.7474 161.617 55.9766C161.617 56.4922 161.745 56.8802 162 57.1406C162.255 57.401 162.62 57.5312 163.094 57.5312C163.375 57.5312 163.63 57.4792 163.859 57.375C164.089 57.2656 164.294 57.1224 164.477 56.9453C164.659 56.763 164.818 56.5573 164.953 56.3281C165.089 56.0938 165.201 55.849 165.289 55.5938C165.378 55.3385 165.443 55.0807 165.484 54.8203C165.531 54.5599 165.555 54.3151 165.555 54.0859ZM173.875 59L174.961 53.5938C175.034 53.1979 175.068 52.901 175.062 52.7031C175.062 52.5052 174.992 52.4062 174.852 52.4062C174.737 52.4062 174.596 52.4844 174.43 52.6406C174.268 52.7969 174.107 52.9974 173.945 53.2422C173.784 53.487 173.633 53.763 173.492 54.0703C173.357 54.3724 173.26 54.6719 173.203 54.9688L172.398 59H170.766L171.859 53.5938C171.932 53.1979 171.966 52.901 171.961 52.7031C171.961 52.5052 171.888 52.4062 171.742 52.4062C171.643 52.4062 171.513 52.4844 171.352 52.6406C171.19 52.7969 171.026 52.9974 170.859 53.2422C170.693 53.487 170.539 53.763 170.398 54.0703C170.258 54.3724 170.156 54.6719 170.094 54.9688L169.297 59H167.648L168.5 54.7578C168.531 54.5964 168.56 54.4193 168.586 54.2266C168.617 54.0339 168.648 53.7995 168.68 53.5234C168.716 53.2422 168.755 52.9036 168.797 52.5078C168.839 52.112 168.888 51.6302 168.945 51.0625H170.352L170.305 52.3438L170.461 52.1172C170.779 51.6953 171.078 51.388 171.359 51.1953C171.641 51.0026 171.945 50.9062 172.273 50.9062C172.659 50.9062 172.945 50.9974 173.133 51.1797C173.326 51.362 173.422 51.6172 173.422 51.9453C173.422 52.0026 173.417 52.0651 173.406 52.1328C173.401 52.2005 173.391 52.2708 173.375 52.3438C173.542 52.1094 173.701 51.9036 173.852 51.7266C174.008 51.5443 174.164 51.3932 174.32 51.2734C174.477 51.1484 174.635 51.0573 174.797 51C174.964 50.9375 175.141 50.9062 175.328 50.9062C175.901 50.9062 176.305 51.1172 176.539 51.5391C176.773 51.9557 176.802 52.5964 176.625 53.4609L175.523 59H173.875ZM179.609 59.1797C178.839 59.1797 178.253 58.9401 177.852 58.4609C177.456 57.9818 177.258 57.3021 177.258 56.4219C177.258 55.625 177.365 54.8906 177.578 54.2188C177.792 53.5417 178.102 52.9609 178.508 52.4766C178.914 51.987 179.411 51.6068 180 51.3359C180.594 51.0599 181.266 50.9219 182.016 50.9219C182.417 50.9219 182.773 50.9505 183.086 51.0078C183.404 51.0599 183.68 51.1224 183.914 51.1953L185.273 50.9062L184.398 55.3047C184.367 55.4714 184.336 55.651 184.305 55.8438C184.273 56.0312 184.24 56.2656 184.203 56.5469C184.172 56.8229 184.135 57.1589 184.094 57.5547C184.052 57.9505 184.005 58.4323 183.953 59H182.398L182.461 57.5625C182.341 57.7448 182.19 57.9323 182.008 58.125C181.826 58.3125 181.612 58.4844 181.367 58.6406C181.128 58.7969 180.859 58.9245 180.562 59.0234C180.271 59.1276 179.953 59.1797 179.609 59.1797ZM183.039 52.5859C182.872 52.5286 182.701 52.4844 182.523 52.4531C182.352 52.4219 182.167 52.4062 181.969 52.4062C181.599 52.4062 181.273 52.474 180.992 52.6094C180.716 52.7396 180.477 52.9141 180.273 53.1328C180.07 53.3464 179.901 53.5911 179.766 53.8672C179.635 54.1432 179.531 54.4245 179.453 54.7109C179.375 54.9974 179.32 55.2812 179.289 55.5625C179.258 55.8385 179.242 56.0833 179.242 56.2969C179.242 56.7135 179.312 57.0312 179.453 57.25C179.599 57.4688 179.818 57.5781 180.109 57.5781C180.349 57.5781 180.604 57.4818 180.875 57.2891C181.146 57.0964 181.404 56.849 181.648 56.5469C181.893 56.2448 182.107 55.9089 182.289 55.5391C182.477 55.1693 182.604 54.8073 182.672 54.4531L183.039 52.5859ZM190.695 56.3438C190.602 56.8385 190.604 57.1875 190.703 57.3906C190.802 57.5885 190.997 57.6875 191.289 57.6875C191.534 57.6875 191.805 57.6354 192.102 57.5312C192.398 57.4219 192.737 57.276 193.117 57.0938V58.5547C192.779 58.737 192.414 58.8854 192.023 59C191.638 59.1198 191.245 59.1797 190.844 59.1797C189.953 59.1797 189.333 58.9505 188.984 58.4922C188.635 58.0286 188.562 57.2917 188.766 56.2812L189.273 53.7188C189.372 53.224 189.37 52.8776 189.266 52.6797C189.161 52.4766 188.966 52.375 188.68 52.375C188.44 52.375 188.169 52.4297 187.867 52.5391C187.57 52.6432 187.234 52.7865 186.859 52.9688V51.5078C187.198 51.3203 187.56 51.1693 187.945 51.0547C188.331 50.9401 188.727 50.8828 189.133 50.8828C190.018 50.8828 190.635 51.1146 190.984 51.5781C191.333 52.0417 191.409 52.776 191.211 53.7812L190.695 56.3438ZM192.266 48.8203C192.266 49.0078 192.229 49.1823 192.156 49.3438C192.083 49.5052 191.984 49.6458 191.859 49.7656C191.74 49.8802 191.599 49.9714 191.438 50.0391C191.281 50.1016 191.115 50.1328 190.938 50.1328C190.755 50.1328 190.589 50.1016 190.438 50.0391C190.286 49.9714 190.156 49.8854 190.047 49.7812C189.938 49.6719 189.852 49.5469 189.789 49.4062C189.732 49.2604 189.703 49.1094 189.703 48.9531C189.703 48.7656 189.74 48.5938 189.812 48.4375C189.885 48.276 189.984 48.138 190.109 48.0234C190.234 47.9036 190.378 47.8099 190.539 47.7422C190.701 47.6745 190.87 47.6406 191.047 47.6406C191.234 47.6406 191.401 47.6745 191.547 47.7422C191.698 47.8047 191.826 47.8906 191.93 48C192.039 48.1094 192.122 48.2344 192.18 48.375C192.237 48.5156 192.266 48.6641 192.266 48.8203ZM199.398 59L200.438 53.8281C200.521 53.3958 200.508 53.0651 200.398 52.8359C200.294 52.6016 200.109 52.4844 199.844 52.4844C199.688 52.4844 199.521 52.5286 199.344 52.6172C199.167 52.7057 198.99 52.8281 198.812 52.9844C198.641 53.1354 198.471 53.3151 198.305 53.5234C198.143 53.7266 197.995 53.9453 197.859 54.1797C197.724 54.4089 197.607 54.6458 197.508 54.8906C197.409 55.1354 197.336 55.375 197.289 55.6094L196.617 59H194.711L195.562 54.7578C195.594 54.5964 195.622 54.4193 195.648 54.2266C195.68 54.0339 195.711 53.7995 195.742 53.5234C195.779 53.2422 195.818 52.9036 195.859 52.5078C195.901 52.112 195.951 51.6302 196.008 51.0625H197.562L197.492 52.5078C197.612 52.3255 197.763 52.1406 197.945 51.9531C198.133 51.7604 198.346 51.5859 198.586 51.4297C198.831 51.2734 199.099 51.1458 199.391 51.0469C199.688 50.9427 200.005 50.8906 200.344 50.8906C200.766 50.8906 201.122 50.9609 201.414 51.1016C201.711 51.237 201.943 51.4349 202.109 51.6953C202.276 51.9505 202.38 52.263 202.422 52.6328C202.464 52.9974 202.438 53.4089 202.344 53.8672L201.305 59H199.398Z" fill="black"/>
<path d="M123.214 156.353C122.478 156.649 121.762 156.869 121.068 157.013C120.383 157.157 119.668 157.229 118.923 157.229C117.729 157.229 116.672 157.055 115.749 156.708C114.835 156.353 114.061 155.828 113.426 155.134C112.799 154.44 112.321 153.581 111.991 152.557C111.67 151.524 111.509 150.326 111.509 148.964C111.509 147.567 111.687 146.327 112.042 145.244C112.397 144.152 112.905 143.234 113.565 142.489C114.226 141.736 115.025 141.165 115.965 140.775C116.913 140.378 117.975 140.179 119.151 140.179C119.532 140.179 119.888 140.187 120.218 140.204C120.556 140.221 120.886 140.255 121.208 140.306C121.53 140.348 121.855 140.407 122.186 140.483C122.516 140.56 122.858 140.657 123.214 140.775V143.873C122.494 143.535 121.809 143.293 121.157 143.149C120.506 143.006 119.913 142.934 119.38 142.934C118.593 142.934 117.92 143.077 117.361 143.365C116.803 143.645 116.341 144.042 115.978 144.559C115.622 145.066 115.36 145.676 115.19 146.387C115.021 147.089 114.937 147.864 114.937 148.71C114.937 149.607 115.021 150.411 115.19 151.122C115.368 151.825 115.639 152.421 116.003 152.912C116.367 153.403 116.832 153.78 117.399 154.042C117.966 154.296 118.639 154.423 119.418 154.423C119.697 154.423 119.998 154.397 120.319 154.347C120.649 154.287 120.979 154.215 121.31 154.131C121.648 154.038 121.978 153.932 122.3 153.813C122.63 153.687 122.935 153.56 123.214 153.433V156.353ZM134.614 157L134.538 155.312C134.267 155.599 133.984 155.866 133.688 156.111C133.391 156.348 133.065 156.556 132.71 156.733C132.354 156.911 131.965 157.047 131.542 157.14C131.127 157.241 130.67 157.292 130.171 157.292C129.511 157.292 128.931 157.195 128.432 157C127.932 156.805 127.513 156.535 127.175 156.188C126.836 155.84 126.578 155.422 126.4 154.931C126.231 154.44 126.146 153.898 126.146 153.306C126.146 152.696 126.273 152.133 126.527 151.617C126.79 151.101 127.183 150.657 127.708 150.284C128.241 149.912 128.901 149.62 129.688 149.408C130.484 149.197 131.415 149.091 132.481 149.091H134.17V148.316C134.17 147.986 134.123 147.69 134.03 147.428C133.937 147.157 133.785 146.928 133.573 146.742C133.37 146.556 133.104 146.412 132.773 146.311C132.443 146.209 132.037 146.158 131.555 146.158C130.793 146.158 130.04 146.247 129.295 146.425C128.559 146.594 127.843 146.835 127.149 147.148V144.673C127.767 144.427 128.478 144.224 129.282 144.063C130.095 143.903 130.937 143.822 131.809 143.822C132.765 143.822 133.586 143.915 134.271 144.102C134.957 144.279 135.52 144.55 135.96 144.914C136.409 145.278 136.739 145.735 136.95 146.285C137.162 146.827 137.268 147.462 137.268 148.189V157H134.614ZM134.17 151.3H132.278C131.754 151.3 131.309 151.351 130.945 151.452C130.581 151.554 130.285 151.693 130.057 151.871C129.828 152.049 129.659 152.256 129.549 152.493C129.447 152.722 129.396 152.967 129.396 153.229C129.396 153.754 129.566 154.156 129.904 154.436C130.243 154.706 130.704 154.842 131.288 154.842C131.72 154.842 132.168 154.685 132.634 154.372C133.099 154.059 133.611 153.61 134.17 153.026V151.3ZM151.461 156.873C150.902 157 150.34 157.102 149.772 157.178C149.205 157.254 148.668 157.292 148.16 157.292C147.314 157.292 146.582 157.203 145.964 157.025C145.354 156.848 144.847 156.577 144.44 156.213C144.043 155.849 143.746 155.388 143.552 154.829C143.366 154.262 143.272 153.589 143.272 152.811V146.514H139.807V144.102H143.272V140.801L146.446 139.976V144.102H151.461V146.514H146.446V152.582C146.446 153.318 146.616 153.877 146.954 154.258C147.293 154.63 147.86 154.816 148.655 154.816C149.163 154.816 149.658 154.774 150.141 154.689C150.623 154.605 151.063 154.507 151.461 154.397V156.873ZM163.204 157L163.128 155.312C162.857 155.599 162.574 155.866 162.277 156.111C161.981 156.348 161.655 156.556 161.3 156.733C160.944 156.911 160.555 157.047 160.132 157.14C159.717 157.241 159.26 157.292 158.761 157.292C158.101 157.292 157.521 157.195 157.021 157C156.522 156.805 156.103 156.535 155.765 156.188C155.426 155.84 155.168 155.422 154.99 154.931C154.821 154.44 154.736 153.898 154.736 153.306C154.736 152.696 154.863 152.133 155.117 151.617C155.38 151.101 155.773 150.657 156.298 150.284C156.831 149.912 157.491 149.62 158.278 149.408C159.074 149.197 160.005 149.091 161.071 149.091H162.76V148.316C162.76 147.986 162.713 147.69 162.62 147.428C162.527 147.157 162.375 146.928 162.163 146.742C161.96 146.556 161.693 146.412 161.363 146.311C161.033 146.209 160.627 146.158 160.145 146.158C159.383 146.158 158.63 146.247 157.885 146.425C157.148 146.594 156.433 146.835 155.739 147.148V144.673C156.357 144.427 157.068 144.224 157.872 144.063C158.685 143.903 159.527 143.822 160.398 143.822C161.355 143.822 162.176 143.915 162.861 144.102C163.547 144.279 164.11 144.55 164.55 144.914C164.998 145.278 165.328 145.735 165.54 146.285C165.752 146.827 165.857 147.462 165.857 148.189V157H163.204ZM162.76 151.3H160.868C160.343 151.3 159.899 151.351 159.535 151.452C159.171 151.554 158.875 151.693 158.646 151.871C158.418 152.049 158.249 152.256 158.139 152.493C158.037 152.722 157.986 152.967 157.986 153.229C157.986 153.754 158.156 154.156 158.494 154.436C158.833 154.706 159.294 154.842 159.878 154.842C160.31 154.842 160.758 154.685 161.224 154.372C161.689 154.059 162.201 153.61 162.76 153.026V151.3ZM173.576 141.474H169.933V139.062H176.75V154.588H180.47V157H169.488V154.588H173.576V141.474ZM195.323 150.449C195.323 151.465 195.179 152.396 194.892 153.242C194.604 154.08 194.189 154.799 193.647 155.4C193.106 156.001 192.441 156.467 191.654 156.797C190.867 157.127 189.97 157.292 188.963 157.292C188.007 157.292 187.152 157.152 186.398 156.873C185.645 156.594 185.006 156.179 184.481 155.629C183.957 155.07 183.555 154.376 183.275 153.547C182.996 152.709 182.856 151.736 182.856 150.627C182.856 149.603 183 148.672 183.288 147.834C183.584 146.996 184.003 146.281 184.545 145.688C185.095 145.096 185.764 144.639 186.551 144.317C187.338 143.987 188.227 143.822 189.217 143.822C190.182 143.822 191.041 143.966 191.794 144.254C192.547 144.533 193.186 144.952 193.711 145.511C194.236 146.069 194.633 146.763 194.904 147.593C195.184 148.414 195.323 149.366 195.323 150.449ZM192.099 150.525C192.099 149.188 191.845 148.185 191.337 147.517C190.838 146.84 190.097 146.501 189.115 146.501C188.574 146.501 188.112 146.607 187.731 146.818C187.351 147.03 187.037 147.322 186.792 147.694C186.547 148.058 186.365 148.486 186.246 148.977C186.136 149.467 186.081 149.992 186.081 150.551C186.081 151.896 186.352 152.912 186.894 153.598C187.435 154.275 188.176 154.613 189.115 154.613C189.632 154.613 190.08 154.512 190.461 154.309C190.842 154.097 191.151 153.809 191.388 153.445C191.625 153.073 191.802 152.637 191.921 152.138C192.039 151.638 192.099 151.101 192.099 150.525ZM207.676 146.361C207.913 146.658 208.078 146.971 208.171 147.301C208.272 147.622 208.323 147.952 208.323 148.291C208.323 149.01 208.196 149.645 207.942 150.195C207.697 150.745 207.346 151.207 206.889 151.579C206.44 151.951 205.898 152.235 205.264 152.43C204.637 152.616 203.943 152.709 203.182 152.709C202.733 152.709 202.318 152.667 201.938 152.582C201.557 152.489 201.269 152.383 201.074 152.265C200.93 152.409 200.808 152.569 200.706 152.747C200.604 152.916 200.554 153.111 200.554 153.331C200.554 153.466 200.588 153.602 200.655 153.737C200.723 153.873 200.82 153.995 200.947 154.105C201.083 154.207 201.239 154.292 201.417 154.359C201.603 154.427 201.811 154.465 202.039 154.474L205.099 154.588C205.784 154.605 206.402 154.694 206.952 154.854C207.511 155.007 207.989 155.227 208.387 155.515C208.785 155.802 209.089 156.154 209.301 156.568C209.521 156.975 209.631 157.44 209.631 157.965C209.631 158.566 209.495 159.133 209.225 159.666C208.954 160.199 208.543 160.66 207.993 161.05C207.451 161.448 206.774 161.761 205.962 161.989C205.149 162.218 204.206 162.332 203.131 162.332C202.09 162.332 201.193 162.247 200.439 162.078C199.695 161.917 199.081 161.689 198.599 161.393C198.125 161.096 197.773 160.741 197.545 160.326C197.316 159.92 197.202 159.471 197.202 158.98C197.202 158.684 197.24 158.409 197.316 158.155C197.393 157.901 197.507 157.656 197.659 157.419C197.812 157.19 198.002 156.966 198.23 156.746C198.459 156.526 198.73 156.306 199.043 156.086C198.628 155.849 198.311 155.544 198.091 155.172C197.879 154.799 197.773 154.402 197.773 153.979C197.773 153.691 197.812 153.424 197.888 153.179C197.964 152.925 198.061 152.684 198.18 152.455C198.307 152.227 198.451 152.007 198.611 151.795C198.772 151.583 198.941 151.376 199.119 151.173C198.806 150.86 198.544 150.483 198.332 150.043C198.129 149.594 198.027 149.036 198.027 148.367C198.027 147.648 198.154 147.009 198.408 146.45C198.671 145.883 199.03 145.409 199.487 145.028C199.944 144.639 200.486 144.347 201.112 144.152C201.747 143.949 202.437 143.848 203.182 143.848C203.562 143.848 203.926 143.869 204.273 143.911C204.629 143.945 204.951 144.008 205.238 144.102H209.707V146.361H207.676ZM200.376 158.714C200.376 159.213 200.626 159.581 201.125 159.818C201.633 160.055 202.344 160.174 203.258 160.174C203.842 160.174 204.333 160.119 204.73 160.009C205.137 159.899 205.467 159.755 205.721 159.577C205.975 159.399 206.157 159.192 206.267 158.955C206.377 158.718 206.432 158.473 206.432 158.219C206.432 157.99 206.377 157.796 206.267 157.635C206.165 157.482 206.017 157.351 205.822 157.241C205.636 157.14 205.412 157.059 205.149 157C204.896 156.949 204.612 156.915 204.299 156.898L201.569 156.848C201.324 157.017 201.121 157.178 200.96 157.33C200.808 157.482 200.685 157.631 200.592 157.774C200.507 157.927 200.448 158.079 200.414 158.231C200.389 158.384 200.376 158.545 200.376 158.714ZM200.896 148.367C200.896 149.053 201.095 149.599 201.493 150.005C201.899 150.403 202.462 150.602 203.182 150.602C203.562 150.602 203.893 150.538 204.172 150.411C204.46 150.284 204.697 150.115 204.883 149.903C205.069 149.692 205.209 149.446 205.302 149.167C205.395 148.888 205.441 148.596 205.441 148.291C205.441 147.572 205.238 147.013 204.832 146.615C204.434 146.209 203.876 146.006 203.156 146.006C202.775 146.006 202.441 146.069 202.153 146.196C201.874 146.323 201.641 146.497 201.455 146.717C201.269 146.928 201.129 147.178 201.036 147.466C200.943 147.754 200.896 148.054 200.896 148.367Z" fill="black"/>
<path d="M120.609 177.156C121.141 177.344 121.648 177.484 122.133 177.578C122.617 177.672 123.068 177.719 123.484 177.719C124.094 177.719 124.536 177.622 124.812 177.43C125.094 177.237 125.234 176.992 125.234 176.695C125.234 176.591 125.214 176.497 125.172 176.414C125.13 176.326 125.055 176.242 124.945 176.164C124.836 176.086 124.685 176.008 124.492 175.93C124.305 175.852 124.06 175.766 123.758 175.672C123.029 175.448 122.482 175.146 122.117 174.766C121.753 174.385 121.57 173.904 121.57 173.32C121.57 172.987 121.654 172.674 121.82 172.383C121.987 172.086 122.229 171.828 122.547 171.609C122.87 171.385 123.268 171.211 123.742 171.086C124.216 170.956 124.76 170.891 125.375 170.891C125.896 170.891 126.341 170.914 126.711 170.961C127.081 171.003 127.404 171.052 127.68 171.109V172.664C127.174 172.513 126.729 172.414 126.344 172.367C125.958 172.32 125.609 172.297 125.297 172.297C124.974 172.297 124.703 172.326 124.484 172.383C124.266 172.435 124.091 172.51 123.961 172.609C123.831 172.708 123.737 172.812 123.68 172.922C123.628 173.026 123.602 173.128 123.602 173.227C123.602 173.346 123.625 173.453 123.672 173.547C123.719 173.641 123.802 173.729 123.922 173.812C124.042 173.896 124.203 173.979 124.406 174.062C124.609 174.146 124.865 174.234 125.172 174.328C125.88 174.552 126.411 174.839 126.766 175.188C127.12 175.536 127.297 175.969 127.297 176.484C127.297 176.948 127.198 177.349 127 177.688C126.802 178.021 126.531 178.299 126.188 178.523C125.844 178.747 125.44 178.911 124.977 179.016C124.513 179.125 124.016 179.18 123.484 179.18C122.885 179.18 122.349 179.151 121.875 179.094C121.406 179.042 120.984 178.969 120.609 178.875V177.156ZM132.57 171.062L131.531 176.234C131.453 176.667 131.466 177 131.57 177.234C131.674 177.464 131.859 177.578 132.125 177.578C132.365 177.578 132.62 177.482 132.891 177.289C133.161 177.096 133.419 176.849 133.664 176.547C133.909 176.245 134.122 175.909 134.305 175.539C134.492 175.169 134.62 174.807 134.688 174.453L135.359 171.062H137.258L136.414 175.305C136.383 175.471 136.352 175.651 136.32 175.844C136.289 176.031 136.255 176.266 136.219 176.547C136.188 176.823 136.151 177.159 136.109 177.555C136.068 177.951 136.021 178.432 135.969 179H134.414L134.477 177.562C134.357 177.745 134.206 177.932 134.023 178.125C133.841 178.312 133.628 178.484 133.383 178.641C133.143 178.797 132.875 178.924 132.578 179.023C132.286 179.128 131.969 179.18 131.625 179.18C131.203 179.18 130.844 179.109 130.547 178.969C130.255 178.828 130.023 178.63 129.852 178.375C129.685 178.115 129.581 177.802 129.539 177.438C129.503 177.068 129.531 176.656 129.625 176.203L130.672 171.062H132.57ZM145.867 173.641C145.867 174.443 145.76 175.18 145.547 175.852C145.333 176.523 145.023 177.104 144.617 177.594C144.211 178.078 143.714 178.458 143.125 178.734C142.536 179.005 141.867 179.141 141.117 179.141C140.779 179.141 140.466 179.128 140.18 179.102C139.893 179.081 139.62 179.049 139.359 179.008C139.104 178.966 138.859 178.917 138.625 178.859C138.396 178.802 138.169 178.737 137.945 178.664L140.086 167.961H141.992L141.453 170.68L140.891 172.328C141.031 172.104 141.198 171.904 141.391 171.727C141.583 171.549 141.794 171.398 142.023 171.273C142.253 171.148 142.492 171.055 142.742 170.992C142.997 170.924 143.255 170.891 143.516 170.891C144.286 170.891 144.87 171.13 145.266 171.609C145.667 172.089 145.867 172.766 145.867 173.641ZM143.883 173.766C143.883 173.349 143.81 173.031 143.664 172.812C143.523 172.594 143.307 172.484 143.016 172.484C142.854 172.484 142.685 172.529 142.508 172.617C142.336 172.706 142.161 172.828 141.984 172.984C141.812 173.135 141.643 173.315 141.477 173.523C141.315 173.727 141.164 173.945 141.023 174.18C140.888 174.409 140.771 174.646 140.672 174.891C140.573 175.135 140.503 175.375 140.461 175.609L140.086 177.477C140.253 177.534 140.424 177.578 140.602 177.609C140.779 177.641 140.966 177.656 141.164 177.656C141.534 177.656 141.857 177.591 142.133 177.461C142.414 177.326 142.654 177.151 142.852 176.938C143.055 176.719 143.221 176.471 143.352 176.195C143.487 175.919 143.594 175.638 143.672 175.352C143.75 175.065 143.805 174.784 143.836 174.508C143.867 174.232 143.883 173.984 143.883 173.766ZM151.625 170.922C151.906 170.922 152.154 170.935 152.367 170.961C152.581 170.987 152.776 171.016 152.953 171.047L153.578 167.961H155.477L154.008 175.305C153.977 175.471 153.945 175.651 153.914 175.844C153.883 176.031 153.849 176.266 153.812 176.547C153.781 176.823 153.745 177.159 153.703 177.555C153.661 177.951 153.615 178.432 153.562 179H152.008L152.07 177.562C151.951 177.745 151.799 177.932 151.617 178.125C151.435 178.312 151.221 178.484 150.977 178.641C150.737 178.797 150.469 178.924 150.172 179.023C149.88 179.128 149.562 179.18 149.219 179.18C148.448 179.18 147.862 178.94 147.461 178.461C147.065 177.982 146.867 177.302 146.867 176.422C146.867 175.625 146.974 174.891 147.188 174.219C147.401 173.542 147.711 172.961 148.117 172.477C148.523 171.987 149.021 171.607 149.609 171.336C150.203 171.06 150.875 170.922 151.625 170.922ZM148.852 176.297C148.852 176.714 148.922 177.031 149.062 177.25C149.208 177.469 149.427 177.578 149.719 177.578C149.958 177.578 150.214 177.482 150.484 177.289C150.755 177.096 151.013 176.849 151.258 176.547C151.503 176.245 151.716 175.909 151.898 175.539C152.086 175.169 152.214 174.807 152.281 174.453L152.648 172.586C152.534 172.544 152.383 172.505 152.195 172.469C152.008 172.427 151.802 172.406 151.578 172.406C151.208 172.406 150.883 172.474 150.602 172.609C150.326 172.74 150.086 172.914 149.883 173.133C149.68 173.346 149.51 173.591 149.375 173.867C149.245 174.143 149.141 174.424 149.062 174.711C148.984 174.997 148.93 175.281 148.898 175.562C148.867 175.839 148.852 176.083 148.852 176.297ZM158.836 179.18C158.341 179.18 157.896 179.12 157.5 179C157.104 178.875 156.766 178.69 156.484 178.445C156.208 178.195 155.995 177.883 155.844 177.508C155.693 177.128 155.617 176.682 155.617 176.172C155.617 175.724 155.664 175.284 155.758 174.852C155.857 174.414 155.997 174 156.18 173.609C156.367 173.214 156.594 172.852 156.859 172.523C157.13 172.19 157.44 171.904 157.789 171.664C158.143 171.419 158.531 171.229 158.953 171.094C159.38 170.958 159.841 170.891 160.336 170.891C160.826 170.891 161.268 170.953 161.664 171.078C162.065 171.198 162.404 171.383 162.68 171.633C162.961 171.878 163.177 172.19 163.328 172.57C163.479 172.945 163.555 173.388 163.555 173.898C163.555 174.346 163.505 174.789 163.406 175.227C163.312 175.659 163.174 176.07 162.992 176.461C162.81 176.852 162.583 177.214 162.312 177.547C162.042 177.88 161.732 178.169 161.383 178.414C161.034 178.654 160.646 178.841 160.219 178.977C159.792 179.112 159.331 179.18 158.836 179.18ZM161.555 174.086C161.555 173.57 161.427 173.185 161.172 172.93C160.922 172.669 160.56 172.539 160.086 172.539C159.805 172.539 159.549 172.594 159.32 172.703C159.091 172.807 158.883 172.948 158.695 173.125C158.513 173.302 158.354 173.508 158.219 173.742C158.083 173.977 157.971 174.221 157.883 174.477C157.794 174.732 157.727 174.99 157.68 175.25C157.638 175.505 157.617 175.747 157.617 175.977C157.617 176.492 157.745 176.88 158 177.141C158.255 177.401 158.62 177.531 159.094 177.531C159.375 177.531 159.63 177.479 159.859 177.375C160.089 177.266 160.294 177.122 160.477 176.945C160.659 176.763 160.818 176.557 160.953 176.328C161.089 176.094 161.201 175.849 161.289 175.594C161.378 175.339 161.443 175.081 161.484 174.82C161.531 174.56 161.555 174.315 161.555 174.086ZM169.875 179L170.961 173.594C171.034 173.198 171.068 172.901 171.062 172.703C171.062 172.505 170.992 172.406 170.852 172.406C170.737 172.406 170.596 172.484 170.43 172.641C170.268 172.797 170.107 172.997 169.945 173.242C169.784 173.487 169.633 173.763 169.492 174.07C169.357 174.372 169.26 174.672 169.203 174.969L168.398 179H166.766L167.859 173.594C167.932 173.198 167.966 172.901 167.961 172.703C167.961 172.505 167.888 172.406 167.742 172.406C167.643 172.406 167.513 172.484 167.352 172.641C167.19 172.797 167.026 172.997 166.859 173.242C166.693 173.487 166.539 173.763 166.398 174.07C166.258 174.372 166.156 174.672 166.094 174.969L165.297 179H163.648L164.5 174.758C164.531 174.596 164.56 174.419 164.586 174.227C164.617 174.034 164.648 173.799 164.68 173.523C164.716 173.242 164.755 172.904 164.797 172.508C164.839 172.112 164.888 171.63 164.945 171.062H166.352L166.305 172.344L166.461 172.117C166.779 171.695 167.078 171.388 167.359 171.195C167.641 171.003 167.945 170.906 168.273 170.906C168.659 170.906 168.945 170.997 169.133 171.18C169.326 171.362 169.422 171.617 169.422 171.945C169.422 172.003 169.417 172.065 169.406 172.133C169.401 172.201 169.391 172.271 169.375 172.344C169.542 172.109 169.701 171.904 169.852 171.727C170.008 171.544 170.164 171.393 170.32 171.273C170.477 171.148 170.635 171.057 170.797 171C170.964 170.938 171.141 170.906 171.328 170.906C171.901 170.906 172.305 171.117 172.539 171.539C172.773 171.956 172.802 172.596 172.625 173.461L171.523 179H169.875ZM175.609 179.18C174.839 179.18 174.253 178.94 173.852 178.461C173.456 177.982 173.258 177.302 173.258 176.422C173.258 175.625 173.365 174.891 173.578 174.219C173.792 173.542 174.102 172.961 174.508 172.477C174.914 171.987 175.411 171.607 176 171.336C176.594 171.06 177.266 170.922 178.016 170.922C178.417 170.922 178.773 170.951 179.086 171.008C179.404 171.06 179.68 171.122 179.914 171.195L181.273 170.906L180.398 175.305C180.367 175.471 180.336 175.651 180.305 175.844C180.273 176.031 180.24 176.266 180.203 176.547C180.172 176.823 180.135 177.159 180.094 177.555C180.052 177.951 180.005 178.432 179.953 179H178.398L178.461 177.562C178.341 177.745 178.19 177.932 178.008 178.125C177.826 178.312 177.612 178.484 177.367 178.641C177.128 178.797 176.859 178.924 176.562 179.023C176.271 179.128 175.953 179.18 175.609 179.18ZM179.039 172.586C178.872 172.529 178.701 172.484 178.523 172.453C178.352 172.422 178.167 172.406 177.969 172.406C177.599 172.406 177.273 172.474 176.992 172.609C176.716 172.74 176.477 172.914 176.273 173.133C176.07 173.346 175.901 173.591 175.766 173.867C175.635 174.143 175.531 174.424 175.453 174.711C175.375 174.997 175.32 175.281 175.289 175.562C175.258 175.839 175.242 176.083 175.242 176.297C175.242 176.714 175.312 177.031 175.453 177.25C175.599 177.469 175.818 177.578 176.109 177.578C176.349 177.578 176.604 177.482 176.875 177.289C177.146 177.096 177.404 176.849 177.648 176.547C177.893 176.245 178.107 175.909 178.289 175.539C178.477 175.169 178.604 174.807 178.672 174.453L179.039 172.586ZM186.695 176.344C186.602 176.839 186.604 177.188 186.703 177.391C186.802 177.589 186.997 177.688 187.289 177.688C187.534 177.688 187.805 177.635 188.102 177.531C188.398 177.422 188.737 177.276 189.117 177.094V178.555C188.779 178.737 188.414 178.885 188.023 179C187.638 179.12 187.245 179.18 186.844 179.18C185.953 179.18 185.333 178.951 184.984 178.492C184.635 178.029 184.562 177.292 184.766 176.281L185.273 173.719C185.372 173.224 185.37 172.878 185.266 172.68C185.161 172.477 184.966 172.375 184.68 172.375C184.44 172.375 184.169 172.43 183.867 172.539C183.57 172.643 183.234 172.786 182.859 172.969V171.508C183.198 171.32 183.56 171.169 183.945 171.055C184.331 170.94 184.727 170.883 185.133 170.883C186.018 170.883 186.635 171.115 186.984 171.578C187.333 172.042 187.409 172.776 187.211 173.781L186.695 176.344ZM188.266 168.82C188.266 169.008 188.229 169.182 188.156 169.344C188.083 169.505 187.984 169.646 187.859 169.766C187.74 169.88 187.599 169.971 187.438 170.039C187.281 170.102 187.115 170.133 186.938 170.133C186.755 170.133 186.589 170.102 186.438 170.039C186.286 169.971 186.156 169.885 186.047 169.781C185.938 169.672 185.852 169.547 185.789 169.406C185.732 169.26 185.703 169.109 185.703 168.953C185.703 168.766 185.74 168.594 185.812 168.438C185.885 168.276 185.984 168.138 186.109 168.023C186.234 167.904 186.378 167.81 186.539 167.742C186.701 167.674 186.87 167.641 187.047 167.641C187.234 167.641 187.401 167.674 187.547 167.742C187.698 167.805 187.826 167.891 187.93 168C188.039 168.109 188.122 168.234 188.18 168.375C188.237 168.516 188.266 168.664 188.266 168.82ZM195.398 179L196.438 173.828C196.521 173.396 196.508 173.065 196.398 172.836C196.294 172.602 196.109 172.484 195.844 172.484C195.688 172.484 195.521 172.529 195.344 172.617C195.167 172.706 194.99 172.828 194.812 172.984C194.641 173.135 194.471 173.315 194.305 173.523C194.143 173.727 193.995 173.945 193.859 174.18C193.724 174.409 193.607 174.646 193.508 174.891C193.409 175.135 193.336 175.375 193.289 175.609L192.617 179H190.711L191.562 174.758C191.594 174.596 191.622 174.419 191.648 174.227C191.68 174.034 191.711 173.799 191.742 173.523C191.779 173.242 191.818 172.904 191.859 172.508C191.901 172.112 191.951 171.63 192.008 171.062H193.562L193.492 172.508C193.612 172.326 193.763 172.141 193.945 171.953C194.133 171.76 194.346 171.586 194.586 171.43C194.831 171.273 195.099 171.146 195.391 171.047C195.688 170.943 196.005 170.891 196.344 170.891C196.766 170.891 197.122 170.961 197.414 171.102C197.711 171.237 197.943 171.435 198.109 171.695C198.276 171.951 198.38 172.263 198.422 172.633C198.464 172.997 198.438 173.409 198.344 173.867L197.305 179H195.398Z" fill="black"/>
<path d="M420.215 21.0098V35H417.016V21.0098H412.471V18.4072H424.76V21.0098H420.215ZM435.83 27.1162C435.847 26.6338 435.822 26.2233 435.754 25.8848C435.695 25.5462 435.593 25.2669 435.449 25.0469C435.314 24.8268 435.145 24.666 434.941 24.5645C434.738 24.4629 434.506 24.4121 434.243 24.4121C433.786 24.4121 433.312 24.6025 432.821 24.9834C432.339 25.3558 431.806 25.9736 431.222 26.8369V35H428.048V22.1016H430.854L430.968 23.9805C431.179 23.6504 431.416 23.3542 431.679 23.0918C431.95 22.8294 432.246 22.6051 432.567 22.4189C432.897 22.2243 433.261 22.0762 433.659 21.9746C434.057 21.873 434.493 21.8223 434.967 21.8223C435.618 21.8223 436.194 21.9365 436.693 22.165C437.201 22.3851 437.624 22.7152 437.963 23.1553C438.31 23.5954 438.564 24.1497 438.725 24.8184C438.894 25.4785 438.966 26.2445 438.94 27.1162H435.83ZM449.909 35L449.833 33.3115C449.562 33.5993 449.279 33.8659 448.982 34.1113C448.686 34.3483 448.36 34.5557 448.005 34.7334C447.649 34.9111 447.26 35.0465 446.837 35.1396C446.422 35.2412 445.965 35.292 445.466 35.292C444.806 35.292 444.226 35.1947 443.727 35C443.227 34.8053 442.808 34.5345 442.47 34.1875C442.131 33.8405 441.873 33.4215 441.695 32.9307C441.526 32.4398 441.441 31.8981 441.441 31.3057C441.441 30.6963 441.568 30.1335 441.822 29.6172C442.085 29.1009 442.478 28.6566 443.003 28.2842C443.536 27.9118 444.196 27.6198 444.983 27.4082C445.779 27.1966 446.71 27.0908 447.776 27.0908H449.465V26.3164C449.465 25.9863 449.418 25.6901 449.325 25.4277C449.232 25.1569 449.08 24.9284 448.868 24.7422C448.665 24.556 448.398 24.4121 448.068 24.3105C447.738 24.209 447.332 24.1582 446.85 24.1582C446.088 24.1582 445.335 24.2471 444.59 24.4248C443.854 24.5941 443.138 24.8353 442.444 25.1484V22.6729C443.062 22.4274 443.773 22.2243 444.577 22.0635C445.39 21.9027 446.232 21.8223 447.104 21.8223C448.06 21.8223 448.881 21.9154 449.566 22.1016C450.252 22.2793 450.815 22.5501 451.255 22.9141C451.703 23.278 452.034 23.735 452.245 24.2852C452.457 24.8268 452.562 25.4616 452.562 26.1895V35H449.909ZM449.465 29.2998H447.573C447.049 29.2998 446.604 29.3506 446.24 29.4521C445.876 29.5537 445.58 29.6934 445.352 29.8711C445.123 30.0488 444.954 30.2562 444.844 30.4932C444.742 30.7217 444.691 30.9671 444.691 31.2295C444.691 31.7542 444.861 32.1562 445.199 32.4355C445.538 32.7064 445.999 32.8418 446.583 32.8418C447.015 32.8418 447.463 32.6852 447.929 32.3721C448.394 32.0589 448.906 31.6104 449.465 31.0264V29.2998ZM464.229 35L464.153 33.0957C463.882 33.4258 463.603 33.7262 463.315 33.9971C463.028 34.2679 462.719 34.5007 462.389 34.6953C462.059 34.8815 461.703 35.0254 461.322 35.127C460.95 35.237 460.535 35.292 460.078 35.292C459.316 35.292 458.639 35.1396 458.047 34.835C457.454 34.5303 456.955 34.0986 456.549 33.54C456.151 32.973 455.846 32.2874 455.635 31.4834C455.423 30.6794 455.317 29.7822 455.317 28.792C455.317 27.6071 455.482 26.583 455.812 25.7197C456.151 24.848 456.617 24.1286 457.209 23.5615C457.801 22.986 458.504 22.5628 459.316 22.292C460.129 22.0127 461.013 21.873 461.97 21.873C462.291 21.873 462.613 21.8942 462.935 21.9365C463.265 21.9788 463.557 22.0339 463.811 22.1016V17.0615H466.908V35H464.229ZM458.567 28.6523C458.567 29.3633 458.614 29.9727 458.707 30.4805C458.809 30.9798 458.952 31.3903 459.139 31.7119C459.333 32.0335 459.57 32.2705 459.85 32.4229C460.129 32.5667 460.446 32.6387 460.802 32.6387C461.326 32.6387 461.826 32.4271 462.3 32.0039C462.774 31.5807 463.277 31.001 463.811 30.2646V24.6279C463.565 24.5348 463.26 24.4587 462.896 24.3994C462.541 24.3402 462.181 24.3105 461.817 24.3105C461.318 24.3105 460.869 24.4121 460.472 24.6152C460.074 24.8184 459.731 25.1061 459.443 25.4785C459.164 25.8509 458.948 26.3079 458.796 26.8496C458.644 27.3828 458.567 27.9837 458.567 28.6523ZM478.004 18.5723C478.004 18.8516 477.953 19.1139 477.852 19.3594C477.75 19.6048 477.606 19.8206 477.42 20.0068C477.242 20.1846 477.031 20.3285 476.785 20.4385C476.54 20.54 476.273 20.5908 475.985 20.5908C475.698 20.5908 475.427 20.54 475.173 20.4385C474.927 20.3285 474.712 20.1846 474.525 20.0068C474.348 19.8206 474.208 19.6048 474.106 19.3594C474.005 19.1139 473.954 18.8516 473.954 18.5723C473.954 18.293 474.005 18.0306 474.106 17.7852C474.208 17.5397 474.348 17.3239 474.525 17.1377C474.712 16.9515 474.927 16.8076 475.173 16.7061C475.427 16.596 475.698 16.541 475.985 16.541C476.273 16.541 476.54 16.596 476.785 16.7061C477.031 16.8076 477.242 16.9515 477.42 17.1377C477.606 17.3239 477.75 17.5397 477.852 17.7852C477.953 18.0306 478.004 18.293 478.004 18.5723ZM474.576 24.5137H470.933V22.1016H477.75V32.5879H481.47V35H470.488V32.5879H474.576V24.5137ZM492.4 35V26.5957C492.4 25.1823 491.876 24.4756 490.826 24.4756C490.301 24.4756 489.798 24.6872 489.315 25.1104C488.841 25.5335 488.338 26.109 487.805 26.8369V35H484.707V22.1016H487.386L487.462 24.0059C487.724 23.6758 487.995 23.3753 488.274 23.1045C488.562 22.8337 488.871 22.6051 489.201 22.4189C489.531 22.2243 489.887 22.0762 490.268 21.9746C490.648 21.873 491.076 21.8223 491.55 21.8223C492.21 21.8223 492.785 21.9323 493.276 22.1523C493.767 22.3639 494.178 22.6686 494.508 23.0664C494.838 23.4557 495.083 23.9297 495.244 24.4883C495.413 25.0384 495.498 25.6562 495.498 26.3418V35H492.4ZM508.676 24.3613C508.913 24.6576 509.078 24.9707 509.171 25.3008C509.272 25.6224 509.323 25.9525 509.323 26.291C509.323 27.0104 509.196 27.6452 508.942 28.1953C508.697 28.7454 508.346 29.2067 507.889 29.5791C507.44 29.9515 506.898 30.235 506.264 30.4297C505.637 30.6159 504.943 30.709 504.182 30.709C503.733 30.709 503.318 30.6667 502.938 30.582C502.557 30.4889 502.269 30.3831 502.074 30.2646C501.93 30.4085 501.808 30.5693 501.706 30.7471C501.604 30.9163 501.554 31.111 501.554 31.3311C501.554 31.4665 501.588 31.6019 501.655 31.7373C501.723 31.8727 501.82 31.9954 501.947 32.1055C502.083 32.207 502.239 32.2917 502.417 32.3594C502.603 32.4271 502.811 32.4652 503.039 32.4736L506.099 32.5879C506.784 32.6048 507.402 32.6937 507.952 32.8545C508.511 33.0068 508.989 33.2269 509.387 33.5146C509.785 33.8024 510.089 34.1536 510.301 34.5684C510.521 34.9746 510.631 35.4401 510.631 35.9648C510.631 36.5658 510.495 37.1328 510.225 37.666C509.954 38.1992 509.543 38.6605 508.993 39.0498C508.451 39.4476 507.774 39.7607 506.962 39.9893C506.149 40.2178 505.206 40.332 504.131 40.332C503.09 40.332 502.193 40.2474 501.439 40.0781C500.695 39.9173 500.081 39.6888 499.599 39.3926C499.125 39.0964 498.773 38.7409 498.545 38.3262C498.316 37.9199 498.202 37.4714 498.202 36.9805C498.202 36.6842 498.24 36.4092 498.316 36.1553C498.393 35.9014 498.507 35.6559 498.659 35.4189C498.812 35.1904 499.002 34.9661 499.23 34.7461C499.459 34.526 499.73 34.306 500.043 34.0859C499.628 33.849 499.311 33.5443 499.091 33.1719C498.879 32.7995 498.773 32.4017 498.773 31.9785C498.773 31.6908 498.812 31.4242 498.888 31.1787C498.964 30.9248 499.061 30.6836 499.18 30.4551C499.307 30.2266 499.451 30.0065 499.611 29.7949C499.772 29.5833 499.941 29.376 500.119 29.1729C499.806 28.8597 499.544 28.4831 499.332 28.043C499.129 27.5944 499.027 27.0358 499.027 26.3672C499.027 25.6478 499.154 25.0088 499.408 24.4502C499.671 23.8831 500.03 23.4092 500.487 23.0283C500.944 22.639 501.486 22.347 502.112 22.1523C502.747 21.9492 503.437 21.8477 504.182 21.8477C504.562 21.8477 504.926 21.8688 505.273 21.9111C505.629 21.945 505.951 22.0085 506.238 22.1016H510.707V24.3613H508.676ZM501.376 36.7139C501.376 37.2132 501.626 37.5814 502.125 37.8184C502.633 38.0553 503.344 38.1738 504.258 38.1738C504.842 38.1738 505.333 38.1188 505.73 38.0088C506.137 37.8988 506.467 37.7549 506.721 37.5771C506.975 37.3994 507.157 37.1921 507.267 36.9551C507.377 36.7181 507.432 36.4727 507.432 36.2188C507.432 35.9902 507.377 35.7956 507.267 35.6348C507.165 35.4824 507.017 35.3512 506.822 35.2412C506.636 35.1396 506.412 35.0592 506.149 35C505.896 34.9492 505.612 34.9154 505.299 34.8984L502.569 34.8477C502.324 35.0169 502.121 35.1777 501.96 35.3301C501.808 35.4824 501.685 35.6305 501.592 35.7744C501.507 35.9268 501.448 36.0791 501.414 36.2314C501.389 36.3838 501.376 36.5446 501.376 36.7139ZM501.896 26.3672C501.896 27.0527 502.095 27.5986 502.493 28.0049C502.899 28.4027 503.462 28.6016 504.182 28.6016C504.562 28.6016 504.893 28.5381 505.172 28.4111C505.46 28.2842 505.697 28.1149 505.883 27.9033C506.069 27.6917 506.209 27.4463 506.302 27.167C506.395 26.8877 506.441 26.5957 506.441 26.291C506.441 25.5716 506.238 25.013 505.832 24.6152C505.434 24.209 504.876 24.0059 504.156 24.0059C503.775 24.0059 503.441 24.0693 503.153 24.1963C502.874 24.3232 502.641 24.4967 502.455 24.7168C502.269 24.9284 502.129 25.1781 502.036 25.4658C501.943 25.7536 501.896 26.054 501.896 26.3672Z" fill="black"/>
<path d="M421.609 55.1562C422.141 55.3438 422.648 55.4844 423.133 55.5781C423.617 55.6719 424.068 55.7188 424.484 55.7188C425.094 55.7188 425.536 55.6224 425.812 55.4297C426.094 55.237 426.234 54.9922 426.234 54.6953C426.234 54.5911 426.214 54.4974 426.172 54.4141C426.13 54.3255 426.055 54.2422 425.945 54.1641C425.836 54.0859 425.685 54.0078 425.492 53.9297C425.305 53.8516 425.06 53.7656 424.758 53.6719C424.029 53.4479 423.482 53.1458 423.117 52.7656C422.753 52.3854 422.57 51.9036 422.57 51.3203C422.57 50.987 422.654 50.6745 422.82 50.3828C422.987 50.0859 423.229 49.8281 423.547 49.6094C423.87 49.3854 424.268 49.2109 424.742 49.0859C425.216 48.9557 425.76 48.8906 426.375 48.8906C426.896 48.8906 427.341 48.9141 427.711 48.9609C428.081 49.0026 428.404 49.0521 428.68 49.1094V50.6641C428.174 50.513 427.729 50.4141 427.344 50.3672C426.958 50.3203 426.609 50.2969 426.297 50.2969C425.974 50.2969 425.703 50.3255 425.484 50.3828C425.266 50.4349 425.091 50.5104 424.961 50.6094C424.831 50.7083 424.737 50.8125 424.68 50.9219C424.628 51.026 424.602 51.1276 424.602 51.2266C424.602 51.3464 424.625 51.4531 424.672 51.5469C424.719 51.6406 424.802 51.7292 424.922 51.8125C425.042 51.8958 425.203 51.9792 425.406 52.0625C425.609 52.1458 425.865 52.2344 426.172 52.3281C426.88 52.5521 427.411 52.8385 427.766 53.1875C428.12 53.5365 428.297 53.9688 428.297 54.4844C428.297 54.9479 428.198 55.349 428 55.6875C427.802 56.0208 427.531 56.2995 427.188 56.5234C426.844 56.7474 426.44 56.9115 425.977 57.0156C425.513 57.125 425.016 57.1797 424.484 57.1797C423.885 57.1797 423.349 57.151 422.875 57.0938C422.406 57.0417 421.984 56.9688 421.609 56.875V55.1562ZM433.57 49.0625L432.531 54.2344C432.453 54.6667 432.466 55 432.57 55.2344C432.674 55.4635 432.859 55.5781 433.125 55.5781C433.365 55.5781 433.62 55.4818 433.891 55.2891C434.161 55.0964 434.419 54.849 434.664 54.5469C434.909 54.2448 435.122 53.9089 435.305 53.5391C435.492 53.1693 435.62 52.8073 435.688 52.4531L436.359 49.0625H438.258L437.414 53.3047C437.383 53.4714 437.352 53.651 437.32 53.8438C437.289 54.0312 437.255 54.2656 437.219 54.5469C437.188 54.8229 437.151 55.1589 437.109 55.5547C437.068 55.9505 437.021 56.4323 436.969 57H435.414L435.477 55.5625C435.357 55.7448 435.206 55.9323 435.023 56.125C434.841 56.3125 434.628 56.4844 434.383 56.6406C434.143 56.7969 433.875 56.9245 433.578 57.0234C433.286 57.1276 432.969 57.1797 432.625 57.1797C432.203 57.1797 431.844 57.1094 431.547 56.9688C431.255 56.8281 431.023 56.6302 430.852 56.375C430.685 56.1146 430.581 55.8021 430.539 55.4375C430.503 55.0677 430.531 54.6562 430.625 54.2031L431.672 49.0625H433.57ZM446.867 51.6406C446.867 52.4427 446.76 53.1797 446.547 53.8516C446.333 54.5234 446.023 55.1042 445.617 55.5938C445.211 56.0781 444.714 56.4583 444.125 56.7344C443.536 57.0052 442.867 57.1406 442.117 57.1406C441.779 57.1406 441.466 57.1276 441.18 57.1016C440.893 57.0807 440.62 57.0495 440.359 57.0078C440.104 56.9661 439.859 56.9167 439.625 56.8594C439.396 56.8021 439.169 56.737 438.945 56.6641L441.086 45.9609H442.992L442.453 48.6797L441.891 50.3281C442.031 50.1042 442.198 49.9036 442.391 49.7266C442.583 49.5495 442.794 49.3984 443.023 49.2734C443.253 49.1484 443.492 49.0547 443.742 48.9922C443.997 48.9245 444.255 48.8906 444.516 48.8906C445.286 48.8906 445.87 49.1302 446.266 49.6094C446.667 50.0885 446.867 50.7656 446.867 51.6406ZM444.883 51.7656C444.883 51.349 444.81 51.0312 444.664 50.8125C444.523 50.5938 444.307 50.4844 444.016 50.4844C443.854 50.4844 443.685 50.5286 443.508 50.6172C443.336 50.7057 443.161 50.8281 442.984 50.9844C442.812 51.1354 442.643 51.3151 442.477 51.5234C442.315 51.7266 442.164 51.9453 442.023 52.1797C441.888 52.4089 441.771 52.6458 441.672 52.8906C441.573 53.1354 441.503 53.375 441.461 53.6094L441.086 55.4766C441.253 55.5339 441.424 55.5781 441.602 55.6094C441.779 55.6406 441.966 55.6562 442.164 55.6562C442.534 55.6562 442.857 55.5911 443.133 55.4609C443.414 55.3255 443.654 55.151 443.852 54.9375C444.055 54.7188 444.221 54.4714 444.352 54.1953C444.487 53.9193 444.594 53.638 444.672 53.3516C444.75 53.0651 444.805 52.7839 444.836 52.5078C444.867 52.2318 444.883 51.9844 444.883 51.7656ZM452.625 48.9219C452.906 48.9219 453.154 48.9349 453.367 48.9609C453.581 48.987 453.776 49.0156 453.953 49.0469L454.578 45.9609H456.477L455.008 53.3047C454.977 53.4714 454.945 53.651 454.914 53.8438C454.883 54.0312 454.849 54.2656 454.812 54.5469C454.781 54.8229 454.745 55.1589 454.703 55.5547C454.661 55.9505 454.615 56.4323 454.562 57H453.008L453.07 55.5625C452.951 55.7448 452.799 55.9323 452.617 56.125C452.435 56.3125 452.221 56.4844 451.977 56.6406C451.737 56.7969 451.469 56.9245 451.172 57.0234C450.88 57.1276 450.562 57.1797 450.219 57.1797C449.448 57.1797 448.862 56.9401 448.461 56.4609C448.065 55.9818 447.867 55.3021 447.867 54.4219C447.867 53.625 447.974 52.8906 448.188 52.2188C448.401 51.5417 448.711 50.9609 449.117 50.4766C449.523 49.987 450.021 49.6068 450.609 49.3359C451.203 49.0599 451.875 48.9219 452.625 48.9219ZM449.852 54.2969C449.852 54.7135 449.922 55.0312 450.062 55.25C450.208 55.4688 450.427 55.5781 450.719 55.5781C450.958 55.5781 451.214 55.4818 451.484 55.2891C451.755 55.0964 452.013 54.849 452.258 54.5469C452.503 54.2448 452.716 53.9089 452.898 53.5391C453.086 53.1693 453.214 52.8073 453.281 52.4531L453.648 50.5859C453.534 50.5443 453.383 50.5052 453.195 50.4688C453.008 50.4271 452.802 50.4062 452.578 50.4062C452.208 50.4062 451.883 50.474 451.602 50.6094C451.326 50.7396 451.086 50.9141 450.883 51.1328C450.68 51.3464 450.51 51.5911 450.375 51.8672C450.245 52.1432 450.141 52.4245 450.062 52.7109C449.984 52.9974 449.93 53.2812 449.898 53.5625C449.867 53.8385 449.852 54.0833 449.852 54.2969ZM459.836 57.1797C459.341 57.1797 458.896 57.1198 458.5 57C458.104 56.875 457.766 56.6901 457.484 56.4453C457.208 56.1953 456.995 55.8828 456.844 55.5078C456.693 55.1276 456.617 54.6823 456.617 54.1719C456.617 53.724 456.664 53.2839 456.758 52.8516C456.857 52.4141 456.997 52 457.18 51.6094C457.367 51.2135 457.594 50.8516 457.859 50.5234C458.13 50.1901 458.44 49.9036 458.789 49.6641C459.143 49.4193 459.531 49.2292 459.953 49.0938C460.38 48.9583 460.841 48.8906 461.336 48.8906C461.826 48.8906 462.268 48.9531 462.664 49.0781C463.065 49.1979 463.404 49.3828 463.68 49.6328C463.961 49.8776 464.177 50.1901 464.328 50.5703C464.479 50.9453 464.555 51.388 464.555 51.8984C464.555 52.3464 464.505 52.7891 464.406 53.2266C464.312 53.6589 464.174 54.0703 463.992 54.4609C463.81 54.8516 463.583 55.2135 463.312 55.5469C463.042 55.8802 462.732 56.1693 462.383 56.4141C462.034 56.6536 461.646 56.8411 461.219 56.9766C460.792 57.112 460.331 57.1797 459.836 57.1797ZM462.555 52.0859C462.555 51.5703 462.427 51.1849 462.172 50.9297C461.922 50.6693 461.56 50.5391 461.086 50.5391C460.805 50.5391 460.549 50.5938 460.32 50.7031C460.091 50.8073 459.883 50.9479 459.695 51.125C459.513 51.3021 459.354 51.5078 459.219 51.7422C459.083 51.9766 458.971 52.2214 458.883 52.4766C458.794 52.7318 458.727 52.9896 458.68 53.25C458.638 53.5052 458.617 53.7474 458.617 53.9766C458.617 54.4922 458.745 54.8802 459 55.1406C459.255 55.401 459.62 55.5312 460.094 55.5312C460.375 55.5312 460.63 55.4792 460.859 55.375C461.089 55.2656 461.294 55.1224 461.477 54.9453C461.659 54.763 461.818 54.5573 461.953 54.3281C462.089 54.0938 462.201 53.849 462.289 53.5938C462.378 53.3385 462.443 53.0807 462.484 52.8203C462.531 52.5599 462.555 52.3151 462.555 52.0859ZM470.875 57L471.961 51.5938C472.034 51.1979 472.068 50.901 472.062 50.7031C472.062 50.5052 471.992 50.4062 471.852 50.4062C471.737 50.4062 471.596 50.4844 471.43 50.6406C471.268 50.7969 471.107 50.9974 470.945 51.2422C470.784 51.487 470.633 51.763 470.492 52.0703C470.357 52.3724 470.26 52.6719 470.203 52.9688L469.398 57H467.766L468.859 51.5938C468.932 51.1979 468.966 50.901 468.961 50.7031C468.961 50.5052 468.888 50.4062 468.742 50.4062C468.643 50.4062 468.513 50.4844 468.352 50.6406C468.19 50.7969 468.026 50.9974 467.859 51.2422C467.693 51.487 467.539 51.763 467.398 52.0703C467.258 52.3724 467.156 52.6719 467.094 52.9688L466.297 57H464.648L465.5 52.7578C465.531 52.5964 465.56 52.4193 465.586 52.2266C465.617 52.0339 465.648 51.7995 465.68 51.5234C465.716 51.2422 465.755 50.9036 465.797 50.5078C465.839 50.112 465.888 49.6302 465.945 49.0625H467.352L467.305 50.3438L467.461 50.1172C467.779 49.6953 468.078 49.388 468.359 49.1953C468.641 49.0026 468.945 48.9062 469.273 48.9062C469.659 48.9062 469.945 48.9974 470.133 49.1797C470.326 49.362 470.422 49.6172 470.422 49.9453C470.422 50.0026 470.417 50.0651 470.406 50.1328C470.401 50.2005 470.391 50.2708 470.375 50.3438C470.542 50.1094 470.701 49.9036 470.852 49.7266C471.008 49.5443 471.164 49.3932 471.32 49.2734C471.477 49.1484 471.635 49.0573 471.797 49C471.964 48.9375 472.141 48.9062 472.328 48.9062C472.901 48.9062 473.305 49.1172 473.539 49.5391C473.773 49.9557 473.802 50.5964 473.625 51.4609L472.523 57H470.875ZM476.609 57.1797C475.839 57.1797 475.253 56.9401 474.852 56.4609C474.456 55.9818 474.258 55.3021 474.258 54.4219C474.258 53.625 474.365 52.8906 474.578 52.2188C474.792 51.5417 475.102 50.9609 475.508 50.4766C475.914 49.987 476.411 49.6068 477 49.3359C477.594 49.0599 478.266 48.9219 479.016 48.9219C479.417 48.9219 479.773 48.9505 480.086 49.0078C480.404 49.0599 480.68 49.1224 480.914 49.1953L482.273 48.9062L481.398 53.3047C481.367 53.4714 481.336 53.651 481.305 53.8438C481.273 54.0312 481.24 54.2656 481.203 54.5469C481.172 54.8229 481.135 55.1589 481.094 55.5547C481.052 55.9505 481.005 56.4323 480.953 57H479.398L479.461 55.5625C479.341 55.7448 479.19 55.9323 479.008 56.125C478.826 56.3125 478.612 56.4844 478.367 56.6406C478.128 56.7969 477.859 56.9245 477.562 57.0234C477.271 57.1276 476.953 57.1797 476.609 57.1797ZM480.039 50.5859C479.872 50.5286 479.701 50.4844 479.523 50.4531C479.352 50.4219 479.167 50.4062 478.969 50.4062C478.599 50.4062 478.273 50.474 477.992 50.6094C477.716 50.7396 477.477 50.9141 477.273 51.1328C477.07 51.3464 476.901 51.5911 476.766 51.8672C476.635 52.1432 476.531 52.4245 476.453 52.7109C476.375 52.9974 476.32 53.2812 476.289 53.5625C476.258 53.8385 476.242 54.0833 476.242 54.2969C476.242 54.7135 476.312 55.0312 476.453 55.25C476.599 55.4688 476.818 55.5781 477.109 55.5781C477.349 55.5781 477.604 55.4818 477.875 55.2891C478.146 55.0964 478.404 54.849 478.648 54.5469C478.893 54.2448 479.107 53.9089 479.289 53.5391C479.477 53.1693 479.604 52.8073 479.672 52.4531L480.039 50.5859ZM487.695 54.3438C487.602 54.8385 487.604 55.1875 487.703 55.3906C487.802 55.5885 487.997 55.6875 488.289 55.6875C488.534 55.6875 488.805 55.6354 489.102 55.5312C489.398 55.4219 489.737 55.276 490.117 55.0938V56.5547C489.779 56.737 489.414 56.8854 489.023 57C488.638 57.1198 488.245 57.1797 487.844 57.1797C486.953 57.1797 486.333 56.9505 485.984 56.4922C485.635 56.0286 485.562 55.2917 485.766 54.2812L486.273 51.7188C486.372 51.224 486.37 50.8776 486.266 50.6797C486.161 50.4766 485.966 50.375 485.68 50.375C485.44 50.375 485.169 50.4297 484.867 50.5391C484.57 50.6432 484.234 50.7865 483.859 50.9688V49.5078C484.198 49.3203 484.56 49.1693 484.945 49.0547C485.331 48.9401 485.727 48.8828 486.133 48.8828C487.018 48.8828 487.635 49.1146 487.984 49.5781C488.333 50.0417 488.409 50.776 488.211 51.7812L487.695 54.3438ZM489.266 46.8203C489.266 47.0078 489.229 47.1823 489.156 47.3438C489.083 47.5052 488.984 47.6458 488.859 47.7656C488.74 47.8802 488.599 47.9714 488.438 48.0391C488.281 48.1016 488.115 48.1328 487.938 48.1328C487.755 48.1328 487.589 48.1016 487.438 48.0391C487.286 47.9714 487.156 47.8854 487.047 47.7812C486.938 47.6719 486.852 47.5469 486.789 47.4062C486.732 47.2604 486.703 47.1094 486.703 46.9531C486.703 46.7656 486.74 46.5938 486.812 46.4375C486.885 46.276 486.984 46.138 487.109 46.0234C487.234 45.9036 487.378 45.8099 487.539 45.7422C487.701 45.6745 487.87 45.6406 488.047 45.6406C488.234 45.6406 488.401 45.6745 488.547 45.7422C488.698 45.8047 488.826 45.8906 488.93 46C489.039 46.1094 489.122 46.2344 489.18 46.375C489.237 46.5156 489.266 46.6641 489.266 46.8203ZM496.398 57L497.438 51.8281C497.521 51.3958 497.508 51.0651 497.398 50.8359C497.294 50.6016 497.109 50.4844 496.844 50.4844C496.688 50.4844 496.521 50.5286 496.344 50.6172C496.167 50.7057 495.99 50.8281 495.812 50.9844C495.641 51.1354 495.471 51.3151 495.305 51.5234C495.143 51.7266 494.995 51.9453 494.859 52.1797C494.724 52.4089 494.607 52.6458 494.508 52.8906C494.409 53.1354 494.336 53.375 494.289 53.6094L493.617 57H491.711L492.562 52.7578C492.594 52.5964 492.622 52.4193 492.648 52.2266C492.68 52.0339 492.711 51.7995 492.742 51.5234C492.779 51.2422 492.818 50.9036 492.859 50.5078C492.901 50.112 492.951 49.6302 493.008 49.0625H494.562L494.492 50.5078C494.612 50.3255 494.763 50.1406 494.945 49.9531C495.133 49.7604 495.346 49.5859 495.586 49.4297C495.831 49.2734 496.099 49.1458 496.391 49.0469C496.688 48.9427 497.005 48.8906 497.344 48.8906C497.766 48.8906 498.122 48.9609 498.414 49.1016C498.711 49.237 498.943 49.4349 499.109 49.6953C499.276 49.9505 499.38 50.263 499.422 50.6328C499.464 50.9974 499.438 51.4089 499.344 51.8672L498.305 57H496.398Z" fill="black"/>
</svg>
